<svg xmlns="http://www.w3.org/2000/svg" width="512" height="512" viewBox="0 0 512 512"><path fill="#eef1f6" fill-rule="evenodd" d="M230 34 c-7 3 -13 9 -15 16 -2 6 -2 18 -1 26 1 7 6 18 9 22 l3 4 -4 2 c-3 1 -6 2 -11 2 -7 0 -14 3 -19 7 -2 2 -4 2 -11 2 -10 0 -16 2 -22 8 l-4 4 -8 0 c-6 0 -8 -1 -11 -3 -2 -1 -6 -4 -9 -5 s-9 -5 -14 -8 c-9 -6 -14 -7 -19 -5 -1 1 -3 0 -7 -1 -6 -3 -12 -3 -19 -1 -4 1 -4 2 -8 9 -3 6 -4 9 -4 14 0 7 1 8 9 11 l6 2 9 15 9 15 0 7 c0 4 1 8 1 9 1 1 4 1 17 1 h16 l1 5 c1 5 7 12 11 13 l3 1 v65 l-4 4 c-5 5 -6 10 -6 23 0 7 0 14 -1 19 -2 12 -1 32 2 47 3 13 5 37 3 39 -1 1 -1 3 -1 4 0 5 -13 22 -23 28 -13 8 -14 16 -4 21 3 2 9 1 15 0 2 -1 6 -2 7 -2 s5 -3 9 -6 c6 -5 6 -5 13 -6 9 -1 15 -4 16 -7 0 -1 0 -6 0 -10 l0 -7 3 1 c3 1 23 3 45 6 17 2 16 2 15 5 -1 5 -9 20 -14 26 -7 8 -8 11 -8 16 0 3 1 4 3 6 2 2 4 2 15 2 12 0 12 0 18 -3 6 -3 9 -8 11 -14 1 -2 2 -6 4 -8 2 -3 2 -4 2 -10 0 -3 -1 -7 -1 -7 s0 -3 0 -4 l0 -4 12 2 c7 1 17 2 23 3 6 1 11 2 11 2 0 1 -2 2 -4 4 -4 3 -4 3 -4 7 0 4 -1 4 15 6 13 2 13 2 21 -5 5 -4 6 -5 6 -8 0 -3 -1 -4 -5 -4 -1 0 -2 0 -2 -1 s8 -6 17 -13 c9 -7 22 -15 28 -19 s15 -10 20 -14 l10 -6 v-7 c0 -7 0 -8 -2 -8 -1 0 -9 -1 -17 -2 -14 -1 -17 -2 -14 -3 1 0 1 -19 1 -54 v-53 l-4 -1 -4 -1 v-23 c0 -23 0 -23 2 -24 5 -2 10 -8 12 -16 1 -2 2 -2 19 -1 21 1 21 1 21 -8 0 -5 -1 -7 -3 -8 -2 -1 -10 -17 -9 -19 0 0 9 -3 19 -6 s19 -6 20 -7 c1 -1 2 -2 2 -8 v-7 l-5 -4 c-3 -2 -5 -5 -5 -6 0 -2 -5 -11 -7 -12 -5 -4 -8 -5 -18 -5 -9 0 -11 1 -15 2 -4 2 -4 2 -7 1 -6 -3 -10 -2 -23 9 l-13 10 -3 -2 c-5 -4 -10 -6 -18 -6 -7 0 -8 0 -13 -4 -5 -3 -8 -5 -14 -5 -1 0 -2 -1 -3 -1 -1 0 -4 0 -6 0 l-4 1 0 -10 c0 -11 -2 -15 -8 -18 -3 -2 -5 -2 -13 -1 -8 1 -9 1 -9 -1 0 -1 2 -2 11 -2 l11 0 4 4 c5 4 6 7 7 19 l1 8 0 -9 c0 -5 -1 -10 -2 -11 -2 -3 -6 -8 -8 -8 -1 0 -1 0 -1 -1 1 -1 11 3 14 5 5 4 7 9 7 18 0 4 0 8 1 8 1 0 1 -12 0 -16 -2 -6 -8 -12 -15 -14 -5 -2 -7 -2 -17 -2 -11 0 -11 0 -11 -2 0 -1 0 -6 -1 -11 -1 -11 -4 -17 -10 -21 -8 -6 -15 -7 -24 -3 m1 1 c-6 2 -11 6 -13 12 -3 7 -3 23 0 33 4 11 8 18 11 20 4 2 9 1 12 -1 2 -2 2 -2 0 -1 -3 1 -8 2 -11 1 -2 -1 -3 -2 -6 -9 -5 -10 -6 -18 -5 -28 0 -4 1 -9 1 -11 1 -7 11 -14 20 -14 7 0 14 4 18 8 2 2 2 4 2 4 S259 49 259 48 s0 -1 -1 -1 c0 0 0 1 0 2 1 1 1 1 2 0 1 -1 1 -1 0 1 0 1 -1 3 -1 4 s-1 -1 -2 -4 c-6 -16 -29 -16 -36 -1 -2 4 -2 6 -2 17 0 11 1 13 4 20 2 4 4 8 5 9 4 3 10 2 17 -4 C250 90 254 82 254 79 c0 -1 1 -2 2 -3 C261 73 263 64 259 64 c-3 0 -3 -1 -2 -3 1 -1 2 -1 3 0 2 1 2 1 -1 1 l-2 0 2 1 c2 1 2 1 2 5 0 3 -1 5 -4 7 -2 2 -3 4 -4 6 0 2 -2 5 -3 7 l-2 4 2 -2 c1 -1 3 -4 3 -7 s2 -5 3 -5 c3 -2 5 -7 4 -11 0 -2 0 -4 0 -3 1 1 0 -11 -1 -14 -2 -4 -7 -9 -12 -12 -6 -3 -12 -3 -18 -1 m-1 4 C226 41 220 47 220 49 c0 1 1 0 2 -2 1 -2 5 -5 8 -6 9 -4 17 -3 25 4 3 3 3 3 2 1 -1 -1 -4 -4 -7 -5 -7 -3 -14 -4 -20 -1 M261 57 c0 1 0 1 -1 0 s-1 0 -1 0 1 1 2 1 2 -1 2 -1 0 -1 0 -1 0 0 0 1 m4 21 c-2 1 -2 4 0 10 2 6 2 6 8 8 a485 485 0 0 1 11 5 c3 1 6 2 6 2 2 0 1 -16 0 -20 -2 -6 -5 -7 -15 -7 -5 0 -10 0 -10 1 m33 2 c4 4 6 8 7 16 l1 8 0 -6 c0 -3 0 -8 -1 -10 C304 84 298 77 296 77 c-1 0 0 1 2 3 m-40 -1 c0 0 -1 2 -1 3 0 4 -4 13 -8 15 -6 5 -10 6 -14 5 -3 0 -5 0 -9 3 -4 3 -6 3 -11 3 -7 0 -14 3 -19 7 -3 3 -4 3 -11 2 -9 -1 -16 2 -21 8 l-3 4 -9 0 c-6 0 -10 -1 -11 -2 -1 -1 -6 -3 -10 -5 -4 -2 -11 -6 -14 -8 -9 -6 -11 -6 -16 -5 -3 1 -4 1 -9 -1 -4 -2 -6 -2 -11 -2 -3 0 -7 1 -8 1 a62 62 0 0 1 -3 1 c-2 0 -6 8 -8 15 -1 3 -1 6 -1 8 1 4 1 4 7 6 7 2 7 3 21 25 6 9 6 10 6 17 0 4 1 7 1 8 1 1 6 2 9 0 1 -1 3 -1 3 0 0 1 4 1 9 0 10 -1 14 0 14 4 0 4 5 11 10 13 l4 2 0 33 0 33 4 -5 c2 -2 5 -6 7 -8 l4 -3 V201 l-4 2 c-2 1 -5 2 -7 2 -3 0 -3 0 1 -1 2 -1 3 -2 3 -2 0 0 0 -1 1 0 1 1 3 -1 4 -3 0 -1 1 -1 1 -1 1 0 3 -4 3 -9 0 -4 0 -5 -2 -4 -1 0 -2 0 -2 -1 0 -1 0 -1 1 -1 2 1 4 -2 4 -5 l0 -3 -1 3 -1 3 -1 -3 c0 -2 0 -3 1 -3 1 0 0 -1 -1 -1 -1 -1 -1 -2 -1 -5 l1 -4 0 4 c0 2 0 4 1 4 0 0 1 -2 1 -4 s0 -4 1 -5 c1 0 1 1 0 4 0 2 -1 5 -1 6 0 4 0 78 0 78 0 0 0 -12 0 -28 0 -23 0 -28 -1 -27 -1 1 -1 8 -1 30 l1 28 4 -3 c2 -2 5 -4 6 -5 l3 -2 v-29 c0 -23 0 -29 -1 -29 -1 0 -1 7 -1 29 l0 29 0 -28 0 -28 -3 1 c-2 0 -2 0 1 -1 2 -1 4 -3 5 -3 0 -1 1 -7 1 -14 l1 -13 -3 0 c-2 0 2 0 7 -1 7 0 12 -1 17 -2 l7 -2 -1 -3 c-1 -1 -2 -5 -2 -8 0 -6 -4 -15 -7 -17 q-2 -2 -1 -3 c1 -1 2 -2 3 -4 3 -4 13 -9 20 -9 3 0 6 0 6 1 0 0 -1 1 -4 0 -6 -1 -13 2 -19 6 l-4 4 3 3 c4 4 6 9 7 17 1 8 4 13 8 16 3 3 10 4 14 4 2 0 3 0 3 1 0 1 -2 2 -5 3 -4 1 -5 1 -10 -2 l-5 -3 1 2 c0 1 1 7 1 12 0 6 2 12 3 14 2 3 2 7 2 20 0 12 0 16 -1 17 -1 0 -2 2 -3 5 -2 4 -2 4 0 5 1 1 1 1 0 1 -1 0 -3 0 -3 1 -1 1 -6 2 -12 4 -11 3 -23 8 -20 9 1 0 2 0 3 -1 2 -2 12 1 17 5 10 7 21 24 22 31 0 4 0 4 0 1 -2 -8 -13 -23 -21 -30 -6 -5 -13 -7 -20 -5 -6 2 -14 8 -26 19 -13 13 -14 14 -12 29 1 5 1 10 0 11 0 0 -1 1 -1 3 s-1 7 -1 12 c-1 12 -1 22 4 43 3 14 5 37 3 36 -1 0 -1 0 -1 1 2 6 -12 25 -25 34 -7 5 -9 7 -9 10 1 3 4 6 8 7 1 0 5 0 8 -1 3 -1 7 -1 7 -1 1 0 1 0 0 0 0 -1 0 -1 1 -1 1 0 5 -2 8 -6 4 -4 7 -6 9 -6 2 0 3 0 3 -1 0 0 2 -1 6 -1 10 -1 12 -6 9 -18 -1 -2 -1 -6 -1 -9 s-1 -6 -1 -7 c-3 -14 -2 -25 5 -42 5 -13 6 -23 3 -36 -3 -13 -3 -16 1 -20 3 -3 8 -4 12 -3 2 0 2 0 2 -1 0 -2 0 -2 -6 0 -7 1 -10 3 -13 7 -2 2 -2 3 0 9 5 26 5 32 -1 44 -2 4 -4 10 -5 14 s-2 6 -2 5 c0 -4 2 -12 6 -20 4 -10 5 -21 2 -35 -3 -13 -3 -16 0 -20 3 -3 10 -6 15 -6 2 0 3 0 3 -2 0 -2 4 -6 7 -7 4 -1 17 -2 17 -2 0 0 -4 1 -9 2 -13 1 -14 3 -13 13 0 4 1 9 1 9 s5 1 10 1 c5 0 9 1 10 2 0 1 1 2 1 4 0 3 1 3 16 4 4 0 8 1 8 2 0 1 -1 1 -3 0 -2 0 -7 -1 -12 -1 -10 -1 -11 -1 -11 -5 v-3 l-9 0 c-10 -1 -13 -2 -13 -9 l0 -4 -4 1 c-9 1 -11 5 -9 15 5 20 4 29 -1 42 -3 8 -6 20 -6 27 0 6 0 5 11 7 5 1 6 0 31 -11 14 -6 26 -12 26 -12 0 0 -1 -3 -2 -7 -4 -12 -4 -27 1 -38 1 -3 2 -6 3 -8 l1 -4 -8 -1 c-24 -2 -34 -3 -37 -4 -2 -1 -2 -1 -2 -9 0 -10 0 -10 13 -11 5 -1 9 -2 10 -2 1 -2 -2 -9 -6 -15 -8 -13 -19 -22 -28 -22 -5 0 -14 6 -23 15 -3 3 -8 7 -10 9 -6 4 -7 8 -6 21 0 6 1 13 2 17 1 3 1 7 1 7 0 0 -1 -3 -2 -7 -2 -9 -3 -27 -2 -30 2 -4 22 -23 29 -28 11 -7 20 -4 33 9 8 8 11 13 10 14 0 1 0 1 1 1 2 0 4 9 3 12 -1 2 -1 2 2 1 2 0 6 -2 10 -3 6 -2 7 -2 7 -4 0 -2 0 -2 -1 0 -1 1 -3 2 -6 3 s-5 2 -6 2 c-2 1 -2 1 0 -1 1 -1 4 -2 7 -3 4 -1 5 -2 6 -4 0 -2 3 -7 5 -12 4 -9 5 -9 12 -15 7 -5 15 -9 21 -9 5 0 4 2 -1 3 -7 2 -12 5 -19 10 -6 5 -8 6 -5 3 1 -1 1 -2 1 -3 -1 0 -2 1 -4 4 -3 5 -4 8 -1 4 1 -1 2 -2 3 -2 s3 -1 5 -2 c11 -5 28 1 36 12 2 4 3 5 3 11 0 4 0 7 -1 7 -1 0 -1 0 0 0 0 1 0 2 -1 3 l-1 2 1 -2 c0 -1 1 -5 2 -7 3 -12 -7 -24 -23 -27 -5 -1 -7 -1 -11 0 -3 1 -6 3 -8 4 -4 3 -9 12 -9 18 0 8 2 23 4 29 2 6 2 6 0 5 -1 0 -1 0 0 0 0 1 -1 6 -2 11 -4 14 -3 24 2 39 l4 11 0 15 c0 13 -1 16 -3 22 -1 4 -3 8 -3 10 0 5 -8 20 -15 29 -12 15 -11 19 7 20 8 1 10 0 15 -2 7 -3 11 -7 13 -14 1 -3 2 -6 4 -8 2 -2 2 -4 2 -9 0 -3 0 -6 -1 -6 0 0 -1 -6 0 -13 0 -15 4 -30 11 -53 7 -22 7 -28 1 -49 -3 -9 -3 -12 0 -18 1 -1 0 -2 0 -1 -2 1 -5 13 -4 20 0 10 0 12 -1 11 -1 -1 -1 -2 0 -3 1 -1 1 -1 0 -2 -2 -1 -1 -13 2 -20 2 -5 7 -12 8 -11 0 0 -1 3 -2 6 -3 6 -3 7 0 5 1 -1 2 -2 1 -3 s1 -2 2 -4 c1 -2 3 -5 4 -7 l1 -5 -3 2 c-2 1 -5 2 -9 3 -5 0 -6 1 -5 3 0 3 -5 16 -7 16 -2 0 -2 -2 0 -10 2 -6 2 -9 1 -13 -1 -6 0 -6 3 -2 1 2 2 3 1 3 s-2 -1 -2 -3 c-1 -4 -2 -2 -1 2 1 3 -1 12 -4 20 0 1 0 2 0 1 2 -2 6 -14 6 -15 -1 -2 2 -4 8 -6 6 -2 9 -4 9 -6 0 -2 -4 -9 -6 -11 -1 -1 -5 -3 -8 -5 -11 -5 -21 -2 -27 6 -3 4 -3 5 -3 11 0 12 2 22 4 32 2 6 2 9 2 10 s-2 0 -2 -3 c-2 -4 -2 -6 -1 -4 2 2 1 0 -1 -7 -2 -7 -5 -28 -4 -33 1 -6 6 -12 11 -15 5 -3 15 -4 18 -2 1 1 3 1 4 1 1 0 1 0 1 1 0 1 0 1 0 1 1 -1 6 2 6 4 0 1 0 1 0 0 1 -1 7 5 7 8 0 1 1 3 1 5 1 5 -1 14 -5 18 -2 2 -2 3 -2 3 1 0 1 0 0 1 0 1 0 1 1 0 1 -1 2 -2 3 -2 0 -1 0 -1 -2 0 -2 1 -2 1 0 -1 1 -1 2 -2 3 -2 0 0 1 0 2 -1 0 -1 2 -3 3 -5 3 -5 12 -23 12 -26 0 -1 0 -2 1 -2 1 0 1 -4 1 -9 0 -10 -1 -12 -7 -28 -2 -5 -3 -8 -3 -15 0 -5 -1 -9 -1 -10 -1 -1 -1 -4 0 -4 1 0 2 -3 2 -5 0 -3 3 -9 7 -17 4 -7 8 -16 10 -21 2 -5 4 -9 4 -9 s3 1 5 2 7 3 9 4 c2 1 5 1 6 2 2 0 2 0 1 -1 -1 -1 -2 -2 -4 -1 -4 1 -17 -5 -15 -7 2 -2 1 -3 -1 -1 -1 1 -4 6 -6 10 -4 10 -15 31 -16 31 0 0 1 -3 3 -7 s6 -13 9 -20 c4 -8 7 -14 8 -15 3 -2 5 -1 4 1 -1 2 -1 2 3 4 2 1 6 2 8 3 3 1 3 1 3 -3 0 -5 2 -7 11 -14 7 -5 15 -8 18 -7 1 0 4 2 6 4 l3 4 10 -7 10 -7 -3 -2 c-3 -2 -4 -6 -1 -10 2 -3 5 -3 15 1 8 4 13 7 11 8 -1 1 -15 -5 -16 -7 -1 -1 5 1 11 4 2 1 4 2 4 1 0 0 -16 -9 -17 -9 0 0 0 1 0 2 s0 3 0 4 c-1 2 -3 4 -3 2 0 -1 0 -1 1 -2 1 -1 1 -6 0 -7 -2 -2 -4 -1 -5 1 -3 4 -1 7 7 11 4 2 6 4 6 4 0 1 -41 32 -41 32 0 0 8 -7 19 -15 s20 -15 20 -16 0 -1 -1 -2 c-1 -1 -3 -1 -3 0 -1 1 -20 16 -40 31 -3 2 -6 5 -6 5 0 0 0 1 0 2 s1 1 2 1 c2 1 2 1 -1 1 -4 0 -4 -3 0 -7 2 -2 3 -4 3 -4 -1 0 -3 2 -5 4 l-4 4 -3 -4 c-2 -2 -3 -4 -3 -4 -1 0 0 2 3 6 2 4 4 5 7 6 2 1 4 1 5 0 s1 0 1 0 c0 2 -6 1 -9 0 l-3 -1 -1 60 c-1 101 -2 136 -3 137 -1 1 -24 -1 -30 -3 l-4 -1 v-24 c0 -13 0 -24 -1 -24 s-2 1 -3 2 -4 2 -5 2 c-1 0 0 -1 4 -3 3 -2 6 -3 6 -4 0 -1 0 -9 0 -13 0 -3 -3 -4 -5 -3 -1 1 -3 1 -5 1 -2 0 -4 1 -4 1 0 1 0 1 6 0 3 -1 5 -1 5 -1 0 0 -9 4 -11 4 -1 0 -3 3 -5 7 -3 5 -5 7 -8 8 -3 1 -4 2 -4 3 0 2 0 2 12 -2 18 -6 17 -6 18 -13 l0 -6 0 6 c0 5 0 6 -2 8 -4 2 -28 11 -29 10 -1 0 -1 0 -1 1 0 1 2 1 10 -2 5 -2 10 -3 10 -3 s0 1 -1 1 c-1 0 -1 2 -1 4 1 4 -2 6 -8 8 l-5 2 1 6 c2 10 1 24 -2 35 -2 7 -3 10 -3 16 0 7 0 7 -3 9 -3 2 -4 4 -1 3 1 -1 2 -1 3 -2 s3 -1 5 -1 c5 0 5 0 1 1 -6 1 -13 5 -13 10 0 1 -1 2 -1 3 -1 1 0 2 0 1 1 0 6 0 12 1 6 1 13 1 16 1 5 -1 33 3 34 4 0 0 -1 0 -3 0 -2 0 -6 -1 -9 -1 l-6 0 6 1 c3 1 8 1 10 2 3 1 4 1 5 0 1 -1 2 -2 3 -3 l2 -1 -2 -1 c-1 0 -11 -2 -21 -3 -21 -3 -22 -3 -13 -9 l6 -3 v-9 c0 -7 0 -9 1 -10 1 -1 26 2 31 3 2 0 2 1 2 15 0 17 0 16 -11 23 -8 5 -9 6 -7 6 2 0 18 -11 17 -11 0 0 0 0 1 0 l2 1 1 -83 c0 -46 1 -96 1 -112 1 -26 1 -29 2 -29 1 0 2 1 2 3 1 5 4 10 7 12 l3 2 0 48 0 48 1 -46 c0 -25 1 -47 1 -47 s2 -1 4 -1 c3 0 3 0 2 1 -1 1 -3 1 -4 1 -2 0 -2 2 -2 39 0 22 -1 53 -1 69 0 17 0 30 -1 30 -1 0 -1 -9 -1 -22 0 -12 0 1 -1 29 s0 51 0 51 1 0 3 -2 c3 -2 42 -29 45 -31 4 -2 2 0 -3 3 -3 2 -17 11 -30 21 -14 10 -29 20 -33 23 l-8 5 0 5 c0 3 0 5 1 5 0 0 11 -7 24 -16 s30 -21 38 -26 l15 -10 1 -5 1 -5 0 5 c0 5 0 5 -3 8 -11 8 -74 51 -74 51 0 0 -1 -2 -1 -5 l0 -5 -5 -1 c-3 0 -5 -1 -6 -2 -3 -2 -6 1 -6 6 0 4 0 4 -2 4 -2 0 -38 -5 -44 -6 -3 -1 -4 0 -4 0 0 1 3 2 9 2 22 3 39 5 40 6 2 1 1 4 -3 6 -4 3 -5 4 0 2 l3 -2 -2 2 c-1 1 -3 2 -4 2 -2 0 -2 0 -2 2 0 3 0 3 5 4 3 0 9 1 13 2 l8 1 7 -6 c8 -7 9 -10 3 -11 -2 0 -4 -1 -4 -2 0 -1 21 -16 56 -39 l20 -13 0 -7 c0 -5 0 -7 -1 -7 -3 0 -31 -3 -33 -4 -1 0 -1 -1 0 -2 1 -1 1 -26 1 -55 l1 -53 h-4 c-3 0 -4 -1 -4 -2 -1 -2 -1 -26 0 -39 l1 -10 3 -2 c4 -2 9 -8 10 -12 1 -5 4 -5 19 -5 7 0 15 1 17 1 3 1 3 0 4 -2 2 -5 1 -10 -2 -11 -3 -1 -11 -19 -11 -21 0 -1 10 -4 21 -8 l21 -6 0 -6 0 -6 -6 -4 c-3 -2 -6 -5 -6 -5 0 -4 -6 -14 -9 -14 -1 0 -2 -1 -3 -1 -1 -1 -4 -1 -11 -2 -9 0 -11 0 -15 2 -4 2 -5 2 -8 1 -6 -3 -10 -1 -22 8 -6 5 -12 9 -13 10 -1 1 -2 1 -5 -2 -2 -2 -5 -4 -7 -5 -4 -2 -13 -2 -19 0 l-4 2 5 -1 c9 -1 16 -1 21 2 4 2 8 6 8 8 0 0 -1 -1 -3 -2 -6 -7 -14 -9 -25 -7 -7 2 -9 1 -6 -2 2 -1 2 -2 -3 -5 -10 -6 -23 -7 -32 -2 -2 1 -5 2 -5 2 -3 -1 10 -5 17 -6 8 -1 17 2 23 6 2 1 4 2 5 2 2 -1 -11 -8 -17 -9 -9 -2 -16 -1 -25 3 -4 2 -7 3 -7 3 -1 -1 9 -6 11 -7 2 0 -1 -2 -12 -6 -7 -3 -9 -4 -10 -7 -1 -2 -2 -6 -3 -9 -1 -5 -2 -7 -4 -5 m1 3 c0 5 2 13 5 16 2 2 18 9 19 8 0 0 -4 -2 -9 -4 -9 -4 -9 -4 -11 -8 -1 -2 -2 -7 -3 -10 -1 -5 -1 -5 -1 -2 M246 94 c-2 2 -3 3 -2 3 1 0 0 1 -3 3 -2 1 -4 2 -3 2 2 0 10 -5 12 -8 1 -1 1 -2 1 -2 -1 0 -1 0 -1 0 0 -1 -2 0 -4 2 m1 1 c-1 1 -2 2 -1 2 s2 -1 3 -2 c2 -3 1 -3 -2 0 m-16 10 c0 3 3 10 4 9 0 0 1 1 2 2 2 3 4 4 4 2 0 -1 -2 -4 -4 -7 -3 -5 -4 -6 -2 -1 0 1 0 1 -1 1 -1 0 -1 0 -1 -1 0 0 0 -2 -1 -4 -1 -3 -1 -3 -2 -1 m171 0 c-5 2 -8 4 -7 4 0 0 1 0 2 -1 1 -1 4 -2 6 -3 s4 -2 3 -2 -3 1 -4 1 m8 -1 c-1 0 -3 2 -4 4 -2 4 -3 5 -1 3 1 -1 2 -1 3 2 2 3 2 3 1 0 0 -1 0 -2 0 -2 s1 2 2 4 l1 3 0 -3 c0 -2 -1 -4 -2 -5 -1 -2 -2 -2 -1 -1 0 1 0 2 0 1 -2 -1 -1 -3 1 -5 4 -3 5 -2 7 5 1 4 2 6 2 5 0 -1 0 -4 -1 -7 -1 -6 -3 -7 -7 -5 m9 0 c-1 1 -1 2 0 7 2 7 1 13 -2 14 -1 0 -1 0 0 -2 1 -1 1 -3 1 -4 0 -2 -2 2 -2 6 0 1 -1 2 -2 2 -1 1 -2 1 0 1 1 0 3 -1 4 -2 3 -3 4 -9 2 -16 -1 -5 -1 -5 0 -6 2 -1 4 1 5 7 1 7 0 12 -4 15 -4 3 -2 4 2 1 8 -6 4 -29 -4 -24 m-195 4 c-2 1 -4 3 -3 3 0 0 7 -4 9 -5 1 -1 -2 0 -5 2 m158 -2 C379 107 355 126 355 127 c0 0 6 -3 12 -9 14 -11 18 -13 22 -11 2 1 3 1 2 0 -2 -2 -7 -2 -9 -1 m-303 1 c0 0 -1 1 -1 2 0 1 0 1 1 0 1 -2 2 -2 7 0 3 1 5 2 6 2 1 -1 -9 -5 -11 -5 -1 0 -2 0 -2 1 m349 1 c2 2 2 3 2 6 0 3 0 4 1 1 l0 -3 2 4 c1 2 2 3 2 3 0 -2 -6 -12 -8 -12 -1 0 -1 0 1 2 m-360 6 c-2 4 -3 7 -3 8 0 2 3 8 4 8 0 0 0 -2 -1 -5 l-2 -5 4 -7 c2 -4 3 -7 3 -7 0 0 -2 3 -4 7 M75 108 c0 0 0 1 1 1 s1 0 1 0 0 0 0 0 0 0 0 1 m-7 1 c0 1 0 1 1 0 2 -1 2 -1 1 -1 -1 0 -1 0 -2 1 M77 109 c0 0 0 1 1 1 s1 0 1 0 0 0 0 0 0 0 0 1 m22 2 c-1 1 -1 1 2 0 3 -1 4 0 10 4 8 5 28 16 29 15 0 0 -4 -3 -9 -5 s-12 -6 -15 -8 c-10 -7 -14 -8 -17 -6 m-25 4 c-3 5 -3 7 -2 11 1 3 4 3 5 0 0 -1 0 -1 -1 0 -1 2 -3 1 -4 -3 -1 -3 0 -4 2 -7 1 -2 3 -4 2 -5 s-2 1 -3 3 m-10 2 c-2 4 -2 5 -1 8 1 3 1 4 0 3 -1 0 0 0 1 1 3 3 4 2 1 -3 l-2 -4 2 -5 c1 -3 2 -5 2 -5 s-1 2 -3 5 M234 112 c0 1 0 1 1 1 a1 1 0 0 0 0 -1 c0 0 -1 0 -1 1 m2 0 c0 0 1 2 2 4 2 4 3 3 0 -2 -1 -3 -2 -4 -2 -2 m-148 3 c-3 1 -5 2 -5 1 0 -1 -1 0 -3 2 s-3 4 -3 5 c0 2 0 1 1 -1 1 -2 2 -3 3 -3 s4 -1 7 -2 6 -2 6 -2 0 1 -1 3 c-1 2 -1 3 1 5 2 2 1 2 -8 6 -6 2 -11 5 -11 5 -1 1 -1 1 1 0 1 0 2 -1 3 -1 s5 -2 10 -4 c9 -3 9 -4 8 -5 -2 -2 -2 -5 0 -7 3 -2 5 1 4 5 l0 4 16 9 c9 5 16 9 16 8 s-7 -5 -15 -10 l-15 -9 0 -4 c0 -2 0 -4 -1 -5 -2 -2 -8 -2 -13 1 m175 0 c-6 1 -14 4 -16 7 -1 2 1 1 10 -1 5 -1 10 -2 17 -1 8 0 11 0 11 -1 0 -1 -1 -1 -2 -2 a653 653 0 0 1 -7 -2 c-5 -1 -5 -1 -14 0 m-178 4 c-3 1 -6 3 -6 3 0 1 11 -4 12 -5 2 -2 -1 -1 -7 2 m127 -2 c-3 2 -1 3 6 3 4 0 9 1 12 2 3 1 6 2 7 2 1 -1 -1 -3 -6 -5 -6 -3 -16 -3 -19 -1 m46 0 c-2 1 -6 2 -7 3 s-2 1 -1 1 c11 -3 13 -4 24 -3 6 0 11 0 11 0 -1 -1 -21 -2 -26 0 m-46 0 c-1 1 1 1 6 1 4 0 9 1 12 2 7 3 8 2 1 -1 -5 -2 -17 -4 -19 -2 m32 2 c-1 2 -3 4 -5 3 -1 0 -1 0 -1 1 0 1 -1 4 -3 7 -4 7 -5 17 -4 23 1 6 3 6 3 1 0 -7 2 -16 5 -22 4 -8 4 -9 0 -3 -3 6 -6 16 -6 24 l0 5 -1 -4 c-2 -10 3 -24 9 -30 2 -1 3 -3 2 -4 0 -1 -1 -1 -1 1 m-72 2 c-5 2 -14 9 -14 12 0 2 0 2 -1 0 -1 -2 -1 -2 -1 0 0 3 2 3 3 0 4 -8 12 -12 22 -12 5 0 6 0 5 -1 -5 -1 -9 -1 -14 1 M319 120 c0 0 0 1 1 1 s1 0 1 0 0 0 0 0 0 0 0 1 m91 3 c0 2 0 3 0 4 0 0 1 -1 1 -3 0 -5 0 -5 -1 -1 m20 0 c0 2 -2 5 -3 6 -2 2 -2 3 -1 2 1 0 2 0 1 0 -1 2 -6 2 -11 1 -2 -1 -9 -3 -14 -6 -9 -4 -18 -7 -10 -4 22 11 27 13 33 11 2 -1 5 -1 5 -1 3 1 7 -10 5 -11 -1 -1 -2 4 -1 6 0 1 0 1 0 0 -1 0 -2 0 -3 1 -3 3 -3 2 -1 -2 1 -2 2 -5 2 -6 0 -1 -1 -1 -1 1 m-125 1 c-8 4 -13 8 -20 19 -10 14 -16 18 -29 20 -3 0 -6 0 -10 -1 -5 -2 -7 -2 -5 1 4 5 19 6 28 1 7 -4 11 -7 20 -19 8 -10 12 -14 17 -17 5 -2 9 -5 8 -6 -1 -1 -2 -1 -9 2 m0 2 c-8 4 -14 10 -21 20 -5 7 -11 13 -17 15 -6 3 -17 3 -22 1 -5 -2 -6 -2 -2 1 3 2 5 2 11 2 13 0 20 -5 32 -21 8 -10 13 -15 21 -19 5 -2 7 -3 5 -3 0 0 -4 2 -8 4 m-111 2 c4 5 5 7 6 16 1 8 4 15 7 17 4 4 11 6 15 5 4 -1 5 -2 1 -2 -5 1 -11 -2 -15 -5 -3 -3 -5 -9 -7 -20 -1 -6 -6 -15 -8 -15 -1 0 0 1 1 3 m192 -2 c0 0 -5 4 -10 8 l-10 7 -2 -2 c-3 -5 -5 -6 -9 -6 -5 0 -12 4 -19 10 -5 4 -6 6 -6 8 0 2 0 4 1 4 1 0 1 -1 0 -2 -1 -4 3 -8 12 -14 10 -6 15 -7 19 -1 l2 3 -3 -3 c-2 -2 -4 -3 -5 -3 -5 0 -20 10 -22 15 -1 2 -1 3 2 8 l3 6 2 -3 c2 -3 23 -19 24 -18 0 0 0 1 0 1 s-4 3 -8 6 -8 6 -7 6 4 -2 9 -6 a5370 5370 0 0 1 19 -15 C391 123 391 123 389 123 c-1 0 -2 0 -2 1 M441 126 c2 2 4 3 4 3 0 0 1 2 1 4 l0 4 0 -4 c0 -3 0 -4 -3 -6 -5 -4 -7 -4 -3 -1 M61 125 c0 0 0 1 1 1 s1 0 1 0 0 0 0 0 0 0 0 1 m33 1 c-1 1 -2 1 -2 2 s5 3 10 6 10 6 10 6 c0 0 -6 -2 -12 -6 l-11 -6 -5 3 c-3 2 -4 3 -4 4 q0 2 -1 1 c-1 -1 2 6 14 25 5 8 9 14 9 13 0 0 -1 -2 -2 -5 s-2 -4 -2 -5 0 -1 -1 -1 -1 0 -2 -1 c0 -1 0 -1 1 -1 1 1 1 0 0 -1 -1 -1 -2 -2 -2 -2 s-1 0 -2 -1 c0 -1 0 -1 1 -1 1 0 0 -1 -1 -3 -4 -7 -5 -8 -6 -8 -1 0 -1 -1 -1 -2 0 -1 0 -1 -1 -1 -1 0 -1 0 0 -1 0 -1 0 -3 -1 -5 -1 -2 -2 -3 -1 -3 1 0 2 2 4 6 2 3 3 5 4 5 1 0 25 12 40 21 3 2 6 3 6 3 0 0 -35 -21 -44 -25 -5 -2 -9 -9 -7 -10 5 -3 4 -3 31 12 14 8 26 14 26 14 0 0 -1 -1 -4 -3 s-4 -2 -4 -3 c0 0 3 1 5 2 3 1 5 3 5 2 s-11 -7 -25 -15 C105 134 94 127 94 127 c0 0 1 -1 2 -1 1 0 10 4 26 13 13 8 25 15 27 16 7 4 9 8 6 9 -1 0 -1 0 0 0 1 0 2 -1 2 -2 0 -3 -2 -5 -25 -18 a13607 13607 0 0 1 -26 -15 c-8 -4 -8 -5 -11 -3 m320 0 c0 0 0 1 1 1 s1 0 1 0 0 0 0 0 0 0 0 1 m-354 1 c0 0 0 1 1 1 s1 0 1 0 0 0 0 0 0 0 0 1 m339 0 c0 1 5 4 9 6 l3 1 -22 17 c-12 9 -23 17 -23 18 s1 0 1 0 10 -8 21 -16 21 -16 23 -18 l3 -3 -3 -1 c-2 0 -3 -1 -3 -1 s0 -1 -1 -2 c-1 0 -1 0 0 0 1 2 -1 1 -2 0 -2 -2 -5 -4 -5 -3 m-92 1 c0 1 0 1 0 0 1 -1 2 -2 1 -2 0 0 -1 1 -1 1 m85 4 c-6 5 -12 9 -11 9 1 0 16 -12 16 -13 0 -1 -1 0 -6 3 m39 -2 c-1 2 -1 2 0 0 2 -1 2 -2 1 -2 0 0 -1 1 -2 2 m-295 4 c-2 2 -4 4 -4 5 s2 -1 3 -3 c5 -5 8 -6 16 -2 3 2 8 5 11 7 6 5 6 8 2 15 -4 6 -6 8 -10 9 l-3 1 3 0 c4 0 8 -3 12 -10 3 -4 3 -6 3 -9 -1 -4 -6 -9 -14 -13 -8 -5 -13 -5 -18 0 M152 130 c0 0 1 1 2 1 1 0 2 0 1 0 -1 -1 -3 -1 -3 -1 m-11 3 c-1 1 -3 3 -4 5 l-3 4 5 -4 5 -4 5 2 c6 2 16 9 18 12 1 2 1 3 -2 7 -2 3 -3 5 -3 6 1 1 7 -9 7 -11 0 -3 -6 -8 -13 -12 -6 -4 -11 -5 -13 -3 M434 132 c0 1 11 7 12 6 0 0 -2 -2 -5 -4 -5 -3 -7 -4 -7 -3 m-369 1 c-2 1 -1 1 1 1 2 0 4 0 4 0 0 0 0 -1 -1 -1 -1 0 -1 0 1 -1 l3 -1 -3 0 c-2 0 -4 0 -5 1 m361 0 c-1 1 -4 1 -6 0 -3 -1 -4 0 -13 6 -5 4 -17 13 -27 21 S362 175 363 175 c1 0 0 1 30 -22 l23 -17 5 0 c3 0 6 0 7 -1 2 -2 1 -2 -2 0 m9 2 c2 1 5 3 5 3 0 0 2 0 -20 7 -10 3 -17 5 -16 6 s9 -2 19 -5 c10 -3 18 -6 19 -6 s1 0 1 -1 c-1 -1 -10 -6 -11 -6 -1 0 1 1 3 3 m-128 -1 c-2 3 11 8 18 8 5 0 5 0 -2 -1 -6 -1 -16 -4 -15 -5 0 0 2 0 5 1 7 2 15 3 17 2 2 -1 1 -1 -4 -1 -3 0 -9 -1 -13 -2 -4 -1 -7 -2 -7 -2 M73 138 c2 2 15 23 20 33 2 3 3 5 3 4 1 -1 -23 -39 -24 -39 -1 0 0 1 0 2 M80 137 c0 1 1 2 1 3 1 1 1 1 1 1 s-1 -2 -1 -3 c-1 -1 -1 -1 -1 -1 m228 0 c0 0 0 1 1 1 s1 0 1 0 0 0 0 0 0 0 0 1 m-117 4 c-5 3 -7 3 -13 3 -5 0 -6 0 -5 1 5 2 19 -2 23 -6 2 -2 2 -2 -5 2 m-79 0 c0 1 20 12 21 11 0 0 -19 -12 -20 -12 0 0 -1 0 -1 0 m82 2 c-4 3 -9 4 -15 4 -5 0 -6 0 -4 1 4 2 18 -2 21 -5 2 -2 1 -2 -2 0 M88 143 c0 0 0 1 1 1 s1 0 1 0 0 0 0 0 0 0 0 1 m56 6 c9 5 12 8 13 10 1 3 2 3 2 1 0 -1 -2 -3 -3 -5 -4 -3 -20 -13 -22 -13 -1 0 4 3 10 7 m-54 -2 c1 1 1 2 1 2 0 0 1 3 3 6 a488 488 0 0 1 7 12 c3 5 4 6 6 6 2 0 2 0 1 1 -1 1 2 1 9 1 12 0 13 -1 13 -5 0 -2 -5 -5 -33 -21 -7 -4 -10 -5 -7 -2 M171 146 c0 0 0 1 1 1 s1 0 1 0 0 0 0 0 0 0 0 1 m-85 1 c0 1 5 10 6 10 0 0 -1 -3 -3 -5 -2 -3 -3 -5 -3 -4 m7 4 c1 1 4 6 7 11 5 9 5 9 10 10 3 0 8 1 11 1 6 0 7 0 7 -2 0 -1 0 -2 -1 -3 C123 164 93 148 92 148 c0 0 0 1 1 2 m97 4 c-5 1 -9 2 -13 2 -3 0 -6 0 -6 0 0 2 24 0 27 -3 1 -1 1 -1 -8 1 m211 -2 c0 1 2 7 6 13 4 10 6 12 7 11 1 -1 1 -1 0 -1 -1 0 -2 -1 -2 -2 -1 -4 -10 -22 -10 -21 m-91 5 c-1 3 -3 8 -5 12 l-3 8 -1 43 c0 41 -2 74 -2 59 l0 -6 -1 4 c-1 2 -3 6 -4 8 -3 5 -2 6 3 3 l3 -1 -3 0 c-2 0 -3 0 -2 -1 s2 -1 4 0 c1 1 3 1 3 1 0 0 0 -4 0 -10 l0 -10 4 -3 c2 -2 4 -5 6 -9 2 -6 2 -6 3 -55 0 -27 0 -49 0 -49 0 0 -2 2 -3 5 m4 47 c0 50 0 50 -2 54 -1 2 -4 6 -6 7 L302 270 v9 c0 5 0 10 1 10 1 0 1 4 1 9 s0 9 -1 9 c-1 0 -1 10 -1 26 0 23 0 25 2 25 1 0 8 1 15 1 7 1 14 1 14 1 1 0 1 -10 1 -45 0 -25 0 -69 1 -99 1 -59 1 -58 -5 -58 -2 0 -6 -1 -9 -2 s-6 -2 -6 -2 -1 23 -1 50 M195 158 c-3 1 -8 2 -13 2 l-8 0 -1 20 c0 11 -1 30 -1 43 v23 l5 -2 c3 -1 9 -3 14 -5 11 -3 14 -4 16 -8 1 -2 2 -4 3 -5 1 -1 1 -6 2 -15 0 -12 0 -15 -2 -21 -1 -4 -2 -11 -3 -17 s-1 -11 -1 -11 c0 -2 -4 -6 -5 -6 -1 0 -3 1 -6 2 m201 -1 c0 0 2 4 4 9 3 6 4 10 4 13 0 4 0 4 0 1 0 -2 1 -4 1 -3 1 1 1 0 -4 -10 -4 -8 -5 -11 -5 -9 m-85 1 c0 0 -1 22 -1 48 -1 51 -1 52 -6 58 -1 2 -2 2 -1 2 1 0 3 -3 4 -6 2 -4 3 -7 4 -16 1 -11 1 -87 0 -86 M94 160 c0 1 0 1 1 1 a1 1 0 0 0 0 -1 c0 0 -1 0 -1 1 m47 0 c-1 1 -2 3 -3 4 -2 3 -1 3 2 -1 4 -4 4 -6 1 -3 m2 3 c-2 4 -3 5 -1 5 1 0 1 0 1 -1 s0 -2 1 -4 2 -4 2 -4 -1 1 -3 3 m4 -4 c0 0 1 2 1 3 3 5 -6 12 -12 8 -2 -1 -3 -1 -4 -1 -1 0 1 1 4 3 5 2 6 3 8 2 2 -1 3 -1 3 0 0 1 5 -3 7 -5 1 -2 0 -1 -2 1 -4 4 -5 4 -3 -1 2 -4 2 -8 0 -9 -1 -1 -1 -1 -1 -1 m132 1 c-1 1 0 1 2 1 2 0 4 0 4 0 0 -1 -5 -1 -6 0 m72 0 c-1 1 -1 2 -1 5 0 4 1 5 4 8 4 3 6 4 6 1 0 -1 0 -1 0 0 -1 1 -1 1 -3 0 -2 -2 -2 -2 0 -1 2 0 1 0 -1 -2 -1 -1 -3 -4 -4 -5 -1 -2 -2 -3 0 -4 1 -1 2 -1 4 2 3 4 4 3 1 -1 -2 -3 -3 -4 -6 -2 m34 4 c-5 4 -6 5 -6 7 0 1 1 3 2 3 2 1 17 1 18 0 1 -1 -4 -14 -6 -14 -1 0 -4 2 -8 4 m-215 8 L170 184 l-3 2 c-2 1 -3 2 -2 2 1 0 3 -1 4 -2 2 -2 2 -2 2 -14 l0 -12 zm190 -8 c3 3 3 4 1 4 -2 -1 -2 -1 0 1 2 2 4 3 3 1 0 -1 -1 -2 -1 -3 s-2 -3 -3 -4 l-3 -3 zm-83 -2 c1 2 6 2 7 1 0 0 0 -1 -1 0 s-3 0 -4 -1 c-2 -1 -2 -1 -1 0 M387 165 c-3 2 -5 4 -6 4 0 0 -1 1 -1 2 0 2 1 2 9 2 h9 L396 167 c-2 -3 -3 -6 -3 -6 0 0 -3 2 -5 4 m-178 3 c0 2 1 5 2 6 1 1 1 1 0 -1 l-1 -3 1 3 c1 2 1 4 2 5 s0 2 1 1 c1 -1 -1 -8 -3 -11 l-2 -3 zm73 -1 c-1 1 -3 2 -6 2 -6 0 -6 3 0 4 4 0 5 0 8 -1 2 -1 3 -2 3 -3 s-1 0 -2 1 c-3 3 -5 3 -9 3 -6 -1 -5 -2 0 -2 3 0 5 -1 7 -2 1 -1 2 -2 2 -2 0 0 -1 1 -2 2 m-145 1 c-1 1 -1 1 -1 1 1 0 2 -1 2 -1 2 -2 1 -2 -1 0 m213 -1 c0 1 1 3 3 4 1 1 1 1 0 -1 -1 -2 -3 -3 -3 -3 s0 0 0 1 m4 0 c0 1 1 1 1 1 s0 0 0 -1 -1 -1 -1 -1 0 0 0 1 m-120 2 c0 0 -3 2 -7 3 s-8 4 -9 5 l-3 3 4 -3 c3 -2 12 -6 13 -5 0 0 -2 1 -5 3 -3 1 -5 2 -5 3 s3 -1 6 -2 5 -3 5 -3 0 -1 1 -2 c1 -1 2 -1 3 0 2 2 2 4 0 2 -1 -1 -2 0 -5 1 -2 1 -3 2 -2 2 s2 -1 4 -2 c2 -2 3 -2 4 -1 1 1 2 1 4 1 q3 -1 1 0 c-1 1 1 2 6 4 6 3 8 4 10 7 1 2 3 4 3 4 1 1 6 -1 9 -4 3 -3 3 -5 1 -4 -3 1 -13 1 -14 0 -1 -1 -1 -1 1 -1 3 0 9 -5 7 -6 -1 -1 -2 0 -3 1 -3 2 -5 2 -12 -1 -3 -2 -7 -3 -9 -3 -2 0 -3 -1 -4 -2 -1 -2 -2 -2 -3 -1 m106 3 c0 2 0 4 -1 6 0 2 0 2 1 1 1 -1 1 -3 1 -5 0 -3 0 -3 -1 -1 m3 0 c0 2 0 2 0 1 s0 -2 0 -3 0 0 0 2 m-199 -1 c-1 1 -2 1 -3 1 l-2 0 3 0 c1 0 3 -1 4 -1 1 -2 1 -2 -1 -1 m231 1 c0 1 1 3 1 5 2 3 2 7 0 9 -2 2 -4 -1 -4 -4 0 -2 0 -2 1 0 l1 3 0 -3 c0 -2 0 -3 -1 -2 -2 1 -2 4 -1 6 2 3 3 3 5 0 2 -3 1 -6 -1 -11 -1 -3 -2 -4 -2 -2 M131 173 c0 1 0 1 1 1 a1 1 0 0 0 0 -1 c0 0 -1 0 -1 1 m117 3 c4 2 8 4 7 4 S252 179 250 178 s-5 -2 -5 -2 c-1 0 11 6 12 6 0 0 0 -1 0 -1 0 -1 0 -1 1 -1 2 1 7 -1 8 -3 0 -1 -1 0 -2 0 -4 2 -5 2 -12 -1 -10 -4 -12 -5 -3 0 m-143 3 L104 184 h-4 c-4 0 -4 0 -5 -5 l-1 -5 0 4 c0 5 1 6 6 6 4 0 5 -1 5 -7 0 -4 0 -4 -1 1 m135 -4 a1 1 0 0 0 1 0 c0 0 0 -1 -1 -1 s-1 0 -1 1 m46 1 c-1 2 -5 3 -6 1 0 -1 -1 0 -3 2 -1 2 -2 3 -1 4 1 1 10 -1 12 -3 2 -2 1 -2 -1 0 -2 1 -5 2 -7 2 -4 1 -4 1 -3 -1 1 -1 2 -2 4 -1 3 1 6 -2 5 -4 0 -1 -1 0 -1 1 m-173 0 c3 0 7 0 10 0 s0 0 -5 0 -8 0 -5 0 m16 0 c-2 4 1 11 4 9 2 -2 2 -6 0 -8 -1 -1 -2 -1 0 0 1 2 2 7 0 7 -2 1 -3 -2 -3 -6 1 -4 0 -4 -1 -2 m27 0 c-1 1 -2 7 0 8 0 0 1 -1 0 -3 s0 -4 1 -5 c1 -2 1 -2 -1 0 m133 -1 c0 0 0 1 1 1 s1 0 1 0 0 0 0 0 0 0 0 1 m56 2 c0 1 0 4 0 7 0 3 0 3 1 -2 0 -5 0 -5 2 -4 1 1 2 2 0 5 -2 4 -1 10 2 14 2 3 9 7 12 7 3 0 10 -3 12 -6 2 -3 6 -10 4 -9 -1 0 -1 1 -1 2 0 3 -7 9 -12 11 -4 2 -5 2 -9 -1 -4 -2 -5 -3 -7 -7 -1 -2 -2 -5 -2 -6 s1 -3 1 -6 c1 -4 0 -5 -1 -7 l-2 -2 zM106 179 c0 2 0 4 1 4 s1 -1 1 -3 0 -3 -1 -4 c-1 0 -1 1 -1 3 M143 182 c0 4 0 5 0 3 s0 -5 0 -6 c0 -2 0 0 0 3 m2 0 c0 4 1 7 2 9 1 2 1 4 1 6 0 2 0 2 0 1 1 -2 1 -5 -1 -8 -1 -2 -1 -4 -1 -8 0 -3 0 -6 0 -6 s-1 3 -1 6 m65 -6 c0 0 0 1 1 1 s1 0 1 0 0 0 0 0 0 0 0 1 m173 1 c4 1 15 1 15 0 0 -1 -4 -1 -9 -1 -6 0 -8 0 -6 1 m-157 1 c-1 1 -2 1 -3 0 -1 0 -2 0 -2 1 s0 1 0 1 0 1 -1 2 c-2 2 -3 6 -1 10 2 3 5 4 11 3 4 -1 4 -1 -2 -1 -6 0 -6 0 -8 -3 -1 -3 -1 -4 0 -6 1 -2 3 -4 5 -5 s4 -2 3 -2 c-1 0 -2 0 -2 1 m136 6 c0 5 0 7 1 8 3 3 1 7 -4 7 -1 0 -2 -1 -3 -2 0 -1 0 -1 1 0 1 1 1 1 1 -1 0 -2 0 -3 1 -3 2 0 3 2 2 4 -1 2 -1 2 1 0 2 -1 2 -2 1 -3 -2 -2 -4 -2 -5 1 -1 1 -2 2 -2 1 0 -1 1 -2 2 -3 s2 -2 1 -2 -2 1 -3 3 c-2 2 -2 3 0 5 2 3 4 3 8 1 2 -1 3 -6 0 -8 -1 -1 -2 -4 -2 -8 l0 -7 zm37 -3 c0 2 0 3 0 2 s0 -3 0 -4 0 0 0 2 m17 1 c0 3 0 4 0 2 s0 -4 0 -5 0 0 0 3 m-260 -1 c0 2 0 2 0 1 s0 -2 0 -3 0 0 0 2 m55 0 c0 4 1 6 2 6 1 0 1 -1 0 -1 0 -1 -1 -3 -1 -5 l-1 -4 zM222 180 c0 0 0 1 1 1 s1 0 1 0 0 0 0 0 0 0 0 1 m74 5 c-5 11 -7 20 -7 30 0 5 0 9 1 9 0 0 2 4 4 8 s3 8 3 8 1 1 1 3 1 3 1 4 c1 1 1 -11 1 -33 0 -19 0 -34 0 -34 s-2 3 -3 6 m-80 -3 c0 1 0 1 -1 1 s-1 1 0 1 c0 0 1 0 2 -1 1 -2 1 -3 0 -3 -1 0 -1 0 0 1 m-103 2 c3 0 7 0 10 0 s0 0 -5 0 -7 0 -5 0 m173 0 c-1 1 -1 3 0 2 1 0 1 1 1 3 0 3 0 3 1 1 0 -3 -1 -6 -2 -5 M235 189 c0 3 0 5 1 5 s1 -2 1 -5 l0 -5 1 5 c1 3 1 4 1 2 0 -2 0 -4 0 -5 s-1 -2 -1 -2 c-1 0 -1 1 -1 5 m36 -4 c-1 1 -3 1 -6 1 -2 0 -5 0 -5 0 s2 1 4 1 c3 0 4 0 2 1 -1 1 -3 1 -4 0 -2 -1 -2 -1 0 1 2 1 2 1 5 0 4 -2 7 -4 6 -5 0 0 -1 0 -2 1 m111 0 c0 0 4 1 9 1 s9 0 9 0 c-1 -1 -17 -1 -17 0 m-255 0 a1 1 0 0 0 1 0 c0 0 0 -1 -1 -1 s-1 0 -1 1 M297 212 c0 15 0 21 0 14 s0 -20 0 -27 c0 -8 0 -1 0 14 m106 -27 c0 0 3 1 6 1 4 0 5 0 5 0 -1 -1 -12 -1 -11 -1 m-187 3 c0 2 1 4 1 5 1 1 1 4 2 8 0 4 1 6 2 8 2 2 2 2 1 0 -1 -3 -2 -10 -1 -11 0 0 3 0 5 0 4 1 4 1 1 1 -3 0 -3 0 -1 1 1 0 4 0 5 -1 1 -1 1 -1 0 -1 -1 0 -1 0 0 -1 1 -1 1 -1 -1 0 -7 2 -11 -1 -13 -8 l-1 -3 zm-86 1 c2 11 12 17 19 12 3 -2 7 -7 6 -10 0 -1 -1 0 -2 3 -3 6 -5 8 -9 8 -5 0 -10 -4 -12 -10 -1 -3 -2 -4 -2 -2 M276 192 c-6 6 -6 7 -5 8 1 0 1 0 1 0 0 -1 2 -3 5 -7 3 -3 5 -6 5 -6 0 0 -3 2 -5 5 m-64 -4 c0 0 0 2 1 2 1 1 1 4 2 7 l1 5 0 -5 c0 -3 -1 -6 -2 -7 S212 188 212 188 m73 3 c-1 28 -1 32 -4 33 -1 1 -2 1 -1 2 s0 1 -1 0 c-2 -1 -17 2 -21 3 -4 2 14 0 22 -2 7 -2 8 -2 8 -5 0 -2 0 -2 -1 0 -1 1 -2 2 -2 2 -1 0 -1 0 0 -1 1 -1 3 -36 2 -36 0 0 -1 2 -1 4 m56 36 c0 21 0 40 0 41 0 2 0 30 -1 63 0 75 0 80 -3 81 -3 1 -15 10 -15 10 1 1 29 -18 29 -19 0 -1 0 -45 1 -99 l1 -98 -4 -3 c-4 -3 -6 -8 -6 -12 0 -1 0 -3 -1 -3 -1 0 -1 14 -1 39 M140 191 c-3 3 0 9 4 7 3 -2 2 -8 -1 -8 -1 0 -2 1 -2 1 m141 0 c0 1 -2 3 -4 5 s-3 4 -2 3 c4 -2 9 -9 7 -9 0 0 0 0 0 1 m-140 1 c-1 1 -1 4 1 5 2 2 4 -1 3 -4 -1 -2 -3 -3 -4 -2 M141 194 c0 1 0 1 1 1 a1 1 0 0 0 0 -1 c0 0 -1 0 -1 1 m146 3 c0 2 0 3 0 2 0 -1 0 -3 0 -4 0 -1 0 0 0 2 M246 195 c4 0 8 1 10 0 2 0 4 0 3 1 0 1 -4 1 -10 1 -7 0 -9 0 -8 1 2 1 15 1 18 0 1 0 2 -1 2 -2 0 -1 -2 -1 -11 -1 -11 0 -11 0 -4 1 m-13 2 c0 0 0 1 1 1 s1 0 1 0 0 0 0 0 0 0 0 1 m11 0 a1 1 0 0 0 1 0 c0 0 0 -1 -1 -1 s-1 0 -1 1 M237 199 c0 0 0 1 1 1 s1 0 1 0 0 0 0 0 0 0 0 1 m23 2 c-2 8 -2 10 0 10 2 0 2 1 1 3 -1 1 -6 15 -6 16 0 2 2 -2 3 -7 1 -3 2 -7 3 -8 s1 -3 1 -3 c0 -1 1 -2 2 -4 1 -2 2 -3 1 -5 -1 -3 -4 -4 -5 -1 M156 200 c0 0 0 1 1 1 s1 0 1 0 0 0 0 0 0 0 0 1 m93 0 c1 0 3 0 5 0 1 0 0 0 -2 0 s-3 0 -2 0 m12 0 c0 1 -1 3 -1 5 0 4 0 4 1 2 1 -1 2 -3 2 -4 0 -3 -2 -5 -2 -3 m-39 1 c0 1 1 3 1 4 0 3 4 6 8 6 l4 0 -4 -1 c-4 -1 -7 -3 -7 -7 0 -1 -1 -3 -1 -3 -1 0 -1 0 0 1 m15 4 c0 4 1 5 2 6 1 0 2 0 2 -4 l0 -4 -1 4 -1 4 -1 -4 c-1 -3 0 -4 0 -4 2 -1 1 -2 0 -2 -1 0 -1 1 -1 5 M261 201 c0 0 0 1 1 1 s1 0 1 0 0 0 0 0 0 0 0 1 m-46 5 c0 1 -1 6 -1 11 0 8 0 9 2 11 3 3 11 4 25 4 l13 0 -14 -1 c-13 -1 -20 -2 -23 -4 -2 -1 -2 -7 -1 -14 1 -7 1 -9 -1 -6 M145 237 c0 17 0 23 0 15 s0 -22 0 -30 c0 -8 0 -2 0 15 m118 -27 c1 3 0 8 -1 7 -1 0 -1 0 -2 1 -2 3 -1 4 0 1 1 -2 1 -2 1 -1 0 1 -1 3 -3 5 -1 2 -2 4 -2 4 1 1 5 -6 6 -12 1 -4 1 -6 0 -6 -1 -1 -1 -1 -1 0 m99 10 c-1 16 -1 35 0 35 1 0 1 -8 1 -23 0 -13 0 -23 0 -23 s-1 5 -1 11 M244 211 c0 1 2 1 8 0 4 -1 4 -1 -2 -1 -3 0 -6 0 -6 1 m-24 3 c0 3 4 13 4 12 0 0 0 -2 -1 -4 -1 -2 -2 -5 -2 -7 l-1 -3 zm22 -1 c0 1 1 2 4 2 4 1 11 -1 11 -3 0 -1 0 -1 -1 0 -2 2 -12 2 -13 0 0 -1 -1 -1 -1 0 M222 214 c0 1 0 2 1 1 0 -1 0 -2 0 -2 0 -1 -1 0 -1 1 m3 -1 c0 1 4 2 7 1 2 -1 2 -1 -2 -1 -3 0 -5 0 -5 0 M237 215 c-1 2 0 6 2 6 0 0 2 -1 2 -3 1 -2 1 -3 0 -4 -2 -2 -4 -1 -4 1 m2 2 c0 3 0 3 1 1 1 -3 1 -4 0 -4 -1 0 -1 1 -1 3 m-14 0 c0 2 0 2 0 1 s0 -2 0 -3 0 0 0 2 M286 217 c0 1 0 1 1 1 a1 1 0 0 0 0 -1 c0 0 -1 0 -1 1 m-61 5 c0 1 0 3 1 4 1 2 1 2 1 1 0 -1 0 -3 -1 -4 -1 -1 -1 -1 -1 0 m57 6 c-6 2 -16 4 -24 4 -6 0 -8 0 -6 1 1 0 -2 1 -6 0 -5 0 -11 -1 -14 -1 s-8 -1 -10 -2 c-8 -3 -8 -3 -9 0 -1 3 -1 3 0 5 1 1 5 3 9 4 10 3 22 4 34 2 5 -1 11 -1 13 -1 2 0 4 0 4 -1 0 -1 -3 -1 -10 0 -3 1 -12 1 -18 1 -11 0 -14 0 -21 -3 -11 -3 -11 -4 -9 -7 l1 -2 7 2 c12 4 38 4 57 -1 4 -1 8 -2 9 -2 1 0 2 0 3 2 1 3 1 3 -2 4 l-3 1 3 0 c2 0 4 -1 4 -1 0 0 0 -2 -1 -4 -1 -4 -2 -4 -7 -3 m-50 6 a1 1 0 0 0 1 0 c0 0 0 -1 -1 -1 s-1 0 -1 1 M202 238 c0 0 0 1 1 1 s1 0 1 0 0 0 0 0 0 0 0 1 m80 1 c1 1 3 4 4 7 1 3 2 4 2 3 -1 -4 -5 -10 -6 -10 -1 -1 -1 0 0 1 m3 -1 c0 0 1 2 2 5 s2 5 3 7 0 2 1 3 c3 2 -1 -8 -4 -12 -2 -2 -1 -2 1 -2 2 0 3 1 5 4 1 2 2 3 1 2 -1 -5 -3 -7 -6 -7 -2 0 -3 0 -3 0 m-80 2 c-1 1 -2 2 -4 2 -4 0 -18 4 -21 6 -3 2 -3 2 10 -2 5 -1 10 -3 12 -3 s3 -1 4 -2 1 -2 1 -2 c-1 0 -2 1 -2 2 m9 0 c15 7 30 8 48 4 9 -2 8 -3 -1 -1 -15 3 -30 2 -42 -2 -8 -3 -11 -3 -6 -1 M276 247 c0 1 2 2 3 3 5 2 11 8 13 12 1 2 2 3 2 3 s-1 -3 -2 -5 c-2 -3 -5 -6 -13 -11 -4 -3 1 -1 6 2 6 4 8 7 11 12 1 4 1 4 1 1 0 -6 -4 -11 -14 -16 -4 -2 -6 -2 -6 -1 m-57 1 c1 1 5 2 8 3 5 2 8 2 13 2 7 -1 5 1 -3 2 -3 0 -5 0 -8 -1 -2 -1 -3 -1 -4 -1 s1 1 3 2 c4 2 11 2 16 -1 l4 -2 -11 -1 c-6 0 -12 -1 -14 -2 l-5 -2 c-2 -1 -2 0 0 0 M296 252 c0 3 1 6 1 6 1 1 0 -6 -1 -9 -1 -2 -1 -1 0 3 m-37 -2 c-5 2 -17 10 -15 11 0 0 2 0 3 -1 5 -4 9 -7 16 -9 4 -1 5 -2 4 -2 -1 0 -5 1 -7 2 m-63 1 c0 1 25 14 25 13 0 0 -1 -1 -1 -1 s-2 -1 -2 -1 c0 -1 0 -1 1 -1 3 1 2 0 -4 -4 -3 -2 -8 -5 -11 -6 -6 -2 -7 -2 -7 0 m18 0 c0 1 10 8 11 8 0 0 2 0 3 1 1 1 2 1 2 0 0 -1 0 -1 -1 -1 0 0 -3 -2 -7 -4 -6 -4 -9 -6 -8 -3 M198 251 c0 1 1 1 2 1 1 0 5 2 9 4 s8 4 8 4 c1 -1 -8 -6 -13 -8 -6 -2 -7 -2 -6 -1 m18 -1 c0 1 7 6 9 6 1 0 0 -1 -1 -1 -5 -3 -7 -5 -7 -4 m144 6 c1 0 3 0 4 0 1 0 0 0 -2 0 s-3 0 -2 0 m7 1 c-2 1 -3 1 -3 1 0 1 6 -1 7 -2 1 -1 0 -1 -4 0 m-7 2 c1 0 2 0 3 0 1 0 0 -1 -1 -1 s-2 0 -1 1 m-136 1 c0 0 2 4 4 8 2 4 4 7 4 6 s-2 -4 -3 -7 c-4 -6 -3 -7 2 0 2 2 3 3 3 3 0 -2 -6 -9 -8 -9 -1 0 -1 0 -1 0 m139 4 c0 3 0 4 2 4 1 0 2 0 2 -1 s1 -1 2 -1 c1 0 2 0 2 -1 0 -1 0 -1 -3 0 -2 1 -4 2 -4 2 s-1 -2 -1 -4 l0 -4 zM358 269 c0 1 1 1 2 1 s2 0 2 -1 -1 -1 -1 -1 -1 0 -1 1 m-68 1 c0 1 0 1 0 1 s1 1 1 2 c0 1 0 2 -1 0 s-1 -1 -1 0 c0 1 0 2 1 2 1 0 1 1 1 2 0 1 1 0 1 -2 0 -4 -1 -7 -2 -5 M294 270 c0 0 0 1 1 1 s1 0 1 0 0 0 0 0 0 0 0 1 m68 4 c0 2 0 3 0 2 0 -1 0 -3 0 -3 0 -1 0 0 0 2 m-69 1 c0 0 0 1 1 1 s1 0 1 0 0 0 0 0 0 0 0 1 m73 2 c-2 1 -3 2 -2 2 1 1 8 -2 8 -3 0 -1 -2 -1 -5 1 m-7 2 c1 0 2 0 2 0 s0 -1 -1 -1 c-1 0 -1 0 -1 1 m-129 3 c0 1 0 1 1 1 0 -1 0 -2 0 -2 s-1 0 -1 1 m59 0 c0 1 -2 4 -3 7 -3 6 -3 8 0 3 2 -4 5 -11 4 -12 0 0 -1 0 -1 1 m72 0 c-1 4 1 6 6 4 2 -1 4 -2 3 -2 s-2 0 -4 1 l-4 1 0 -3 c0 -3 0 -3 -1 -1 m-177 1 c0 1 0 1 0 2 0 1 -7 7 -11 9 -6 3 -11 3 -16 1 l-4 -2 6 1 c3 0 7 0 9 0 3 -1 15 -7 15 -8 0 0 -3 1 -6 3 -7 4 -15 6 -22 3 -3 -1 -2 2 1 4 7 4 17 2 26 -7 3 -3 4 -4 3 -5 -1 -1 -1 -1 -1 0 M358 285 c0 0 1 1 2 1 s2 0 2 0 c0 -1 -1 -1 -1 -1 s-1 0 -1 0 m-80 3 c-2 2 -5 4 -10 5 -4 1 -4 1 -1 1 5 0 14 -5 13 -7 0 -1 -1 -1 -2 0 m84 -1 c-1 1 -1 4 0 4 1 0 1 -1 1 -2 0 -3 0 -3 -1 -2 m6 1 c0 0 0 1 1 1 s1 0 1 0 0 0 0 0 0 0 0 1 m-3 1 a1 1 0 0 0 1 0 c0 0 0 -1 -1 -1 s-1 0 -1 1 M154 291 c0 0 0 1 1 1 s1 0 1 0 0 0 0 0 0 0 0 1 m66 2 c-5 1 -10 2 -12 2 -3 0 -3 0 -1 1 1 1 6 1 12 1 s10 1 11 1 c1 1 1 1 0 1 -3 0 -29 -2 -32 -3 -6 -1 -8 2 -8 10 v6 l4 1 c2 0 10 1 18 2 8 1 16 1 18 2 l4 1 -1 -5 c-1 -3 -1 -7 -1 -8 s0 -3 0 -2 c-1 1 -27 -1 -35 -2 -9 -1 -3 -1 15 0 10 1 20 1 20 1 1 0 1 -1 0 -3 -1 -1 -2 -3 -2 -4 0 -2 0 -2 -9 0 m146 -1 c-2 1 -3 2 -2 2 1 0 7 -3 7 -4 0 -1 -1 0 -5 2 m-7 2 c1 0 2 0 2 0 s0 -1 -1 -1 c-1 0 -1 0 -1 1 m3 2 c-2 2 -1 4 2 5 2 1 8 -1 7 -2 0 0 -2 0 -3 1 -4 1 -4 1 -5 -2 0 -1 -1 -2 -1 -2 m-83 6 c0 1 0 1 1 1 0 -1 0 -2 0 -2 s-1 0 -1 1 m80 0 c1 0 2 0 2 0 s0 -1 -1 -1 c-1 0 -1 0 -1 1 M270 303 c0 1 0 1 1 0 s1 -1 1 -1 0 0 -1 0 -1 0 -1 1 m92 0 c-1 3 -1 7 0 7 1 0 1 -2 1 -4 0 -3 -1 -5 -1 -3 m4 3 c-1 1 -1 1 -1 2 1 0 2 -1 3 -1 1 -1 1 -1 1 -1 -1 0 -2 1 -3 1 m-8 1 c1 0 2 0 2 0 s0 -1 -1 -1 c-1 0 -1 0 -1 1 m12 0 c0 0 -1 1 -1 2 0 1 0 1 1 0 1 -1 1 -1 1 -2 s-1 0 -1 0 m-234 5 c0 3 3 12 4 12 1 0 1 0 0 -1 -1 -1 -2 -4 -3 -7 -1 -3 -2 -5 -2 -4 M358 312 c0 1 1 1 2 1 1 0 2 1 2 3 0 1 0 3 1 3 2 0 1 -4 0 -6 -2 -2 -4 -2 -4 0 m-61 40 c0 22 0 40 1 41 1 0 1 -29 0 -66 0 -8 0 4 0 26 M364 313 c0 0 0 1 1 1 s1 0 1 0 0 0 0 0 0 0 0 1 M289 354 c0 22 0 31 0 20 s0 -29 0 -40 c0 -11 0 -2 0 20 m-6 -38 c-1 0 -1 2 -1 3 0 1 -1 2 -1 3 -1 1 -7 3 -8 2 0 0 1 -1 4 -2 3 -1 4 -2 4 -4 0 -2 0 -2 -3 -1 -2 1 -4 2 -5 2 -2 0 -2 1 -2 3 0 3 0 3 3 3 1 0 5 -2 7 -3 4 -2 5 -3 5 -5 0 -3 0 -3 -2 -2 m86 0 a1 1 0 0 0 1 0 c0 0 0 -1 -1 -1 s-1 0 -1 1 m-235 6 c-1 10 -1 22 3 41 3 15 4 21 4 32 0 15 0 16 -9 28 -8 10 -10 12 -19 18 -5 3 -7 5 -7 7 -1 6 8 9 17 5 2 -1 5 -2 7 -2 2 0 5 -3 8 -6 6 -6 8 -7 16 -7 12 -1 12 -1 9 -21 -1 -8 -3 -17 -3 -19 l0 -4 0 5 c0 2 1 10 2 16 3 15 3 19 0 21 -1 1 -5 1 -9 2 -8 1 -9 1 -16 8 -4 4 -7 5 -12 7 -8 2 -10 3 -14 1 -3 -1 -4 -4 -2 -7 1 -1 4 -4 8 -6 s8 -6 10 -8 c9 -11 13 -17 15 -20 1 -2 1 -8 1 -18 0 -12 0 -17 -3 -30 -3 -14 -3 -18 -3 -31 0 -8 0 -15 0 -15 s0 2 -1 5 m75 -2 c0 3 1 3 7 3 16 2 18 2 15 1 -1 -1 -7 -1 -12 -2 -7 -1 -9 -1 -9 -2 0 -1 2 -1 12 -1 7 0 12 0 12 0 0 -1 -12 -2 -20 -2 -4 0 -4 0 -3 3 m155 -1 c-1 1 -1 1 -1 2 1 0 1 0 2 -1 0 -1 1 -1 2 -1 s2 0 2 0 c1 -1 -3 -1 -5 0 M358 320 c0 1 1 1 2 1 1 0 1 1 1 3 0 2 0 3 1 3 s1 -1 1 -3 c0 -2 -1 -3 -3 -4 -3 -1 -4 -1 -3 0 m-203 3 c-4 8 -4 20 0 29 3 6 5 6 4 0 0 -3 -1 -9 -2 -15 l-1 -10 0 12 c0 7 1 13 1 15 1 3 1 3 -1 0 -3 -7 -3 -31 1 -28 1 0 1 0 1 0 0 -2 -2 -2 -3 0 m113 1 c0 2 1 6 2 11 2 11 2 23 -2 34 -4 11 -8 27 -11 40 -2 8 -2 13 -2 19 0 4 0 9 0 10 -1 2 -1 2 -1 0 0 -1 -1 -2 -2 -2 -1 0 0 6 1 9 1 2 1 2 1 -1 -1 -5 -1 -6 0 -4 l1 3 1 -3 c0 -2 1 -8 1 -14 0 -7 1 -14 2 -18 3 -10 8 -30 11 -38 4 -11 4 -24 1 -37 -1 -5 -2 -8 -2 -6 m-28 1 c0 1 0 2 1 3 1 2 1 0 0 -2 -1 -1 -1 -1 -1 0 M286 348 c0 14 0 24 1 24 1 -1 1 -49 0 -49 0 0 -1 11 -1 25 m83 -23 c0 1 0 1 -1 0 s-1 0 -1 1 0 1 -1 2 q-1 1 -1 -1 c0 -1 0 0 -1 1 -1 1 -3 2 -4 2 -1 0 -2 0 -1 0 1 0 2 1 2 3 0 3 2 4 5 3 1 0 1 0 1 1 0 1 -1 1 -2 1 -1 0 -1 0 -1 1 1 1 7 -2 6 -4 0 -2 0 -2 -3 0 -4 2 -4 2 -4 -1 0 -2 1 -3 4 -4 4 -2 6 -4 3 -4 -1 0 -1 0 -1 1 m-135 8 c-2 11 -3 23 0 31 1 3 2 6 2 5 s0 -3 -1 -6 c-2 -7 -2 -19 0 -29 1 -4 2 -8 1 -9 s-1 3 -2 7 m48 -8 c0 1 0 2 0 30 0 17 0 18 2 18 1 0 1 0 1 -1 -1 -1 -1 -7 -2 -25 0 -13 0 -24 -1 -23 m-3 7 c0 2 0 3 0 2 0 -1 0 -3 0 -4 0 -1 0 0 0 2 m88 3 a1 1 0 0 0 1 0 c0 0 0 -1 -1 -1 s-1 0 -1 1 m-127 3 c0 8 -1 26 -2 29 0 3 0 5 0 6 1 3 2 -4 3 -19 0 -7 1 -14 1 -16 0 -2 0 -3 -1 -3 s-1 1 -1 2 m118 0 c1 0 2 0 3 0 1 0 0 -1 -1 -1 s-2 0 -1 1 M280 351 c0 7 0 10 0 6 0 -4 0 -10 0 -13 0 -3 0 0 0 7 m-39 6 c0 10 -1 26 -1 36 0 18 0 19 -3 25 -1 3 -3 8 -3 10 0 5 -9 22 -16 32 -4 5 -7 9 -7 9 s0 1 -1 2 c-1 3 2 5 11 5 12 1 18 -1 23 -5 2 -2 4 -5 5 -7 s2 -5 4 -8 c3 -5 4 -10 2 -14 -1 -1 -1 -1 0 3 0 4 0 5 -2 9 -1 2 -3 6 -4 9 -3 10 -12 14 -27 13 -13 -1 -13 -3 -3 -15 7 -9 16 -26 16 -31 0 -2 1 -6 2 -8 s2 -7 3 -11 c1 -7 3 -70 2 -70 0 0 -1 8 -1 18 M361 342 c0 3 0 3 2 3 3 0 6 -2 5 -3 0 0 -2 0 -3 1 L363 345 v-3 c0 -2 0 -3 -1 -3 s-1 2 -1 3 m5 4 c-2 1 -3 2 -2 2 1 0 3 -1 4 -2 3 -2 2 -2 -2 0 M336 355 c0 5 0 7 0 4 s0 -6 0 -8 c0 -2 0 0 0 4 m18 4 0 12 1 -10 c0 -6 0 -11 0 -12 -1 -1 -1 3 -1 11 M358 348 c0 1 1 1 2 1 1 0 1 1 1 3 0 1 0 3 1 3 1 0 1 -4 0 -6 -1 -1 -5 -2 -4 0 m9 4 c-3 2 -3 2 0 1 2 -1 2 -1 0 1 -2 1 -3 2 -2 2 0 0 2 0 4 -2 2 -1 3 -2 2 -2 -1 0 -1 0 0 -1 1 -1 1 -1 1 -1 s-2 0 -3 2 m-9 4 c0 0 1 1 2 1 s2 0 2 0 -1 -1 -2 -1 c-1 0 -2 0 -2 0 m4 4 c0 1 1 3 1 3 1 0 1 1 0 2 -1 2 -2 5 0 5 1 0 1 -1 1 -3 0 -2 1 -3 3 -4 2 -1 3 -2 4 -3 0 -1 -1 -1 -3 1 l-3 2 v-3 c0 -1 0 -3 -1 -3 s-1 1 -1 2 M300 362 c0 1 0 1 1 1 a1 1 0 0 0 0 -1 c0 0 -1 0 -1 1 m5 0 c2 0 4 0 5 0 s0 0 -3 0 -4 0 -2 0 m10 1 c2 0 4 0 6 0 s0 0 -3 0 -4 0 -3 0 m-14 2 c-2 2 -2 9 -1 8 1 0 1 -2 1 -4 0 -3 0 -3 2 -3 1 0 7 1 13 2 s12 1 13 2 c2 0 3 0 2 0 0 -1 -7 -2 -14 -2 -12 -1 -13 -1 -9 -2 l5 -1 -6 0 c-4 0 -6 0 -7 1 m24 -1 c1 0 3 0 5 0 1 0 0 0 -2 0 s-3 0 -2 0 m-49 2 c-2 1 -3 3 -1 3 1 0 5 -3 4 -3 0 0 -2 0 -3 1 m58 0 c0 1 0 1 1 1 0 -1 0 -2 0 -2 s-1 0 -1 1 m24 -1 c1 0 2 0 3 0 1 0 0 -1 -1 -1 s-2 0 -1 1 m-38 1 c3 0 7 1 9 1 l4 0 -4 -1 c-2 0 -7 -1 -9 -1 l-4 0 zM280 369 c0 2 0 3 -2 3 -1 0 -3 1 -4 1 -2 1 -2 1 2 0 2 -1 4 -1 5 -1 1 0 2 -6 1 -6 0 0 0 1 0 3 m89 -2 c1 1 5 1 10 1 8 0 8 0 3 0 -3 0 -8 -1 -10 -1 -3 0 -4 0 -3 0 m-216 2 c-1 1 -1 9 1 16 4 14 6 12 3 -3 -2 -10 -3 -14 -5 -13 m213 0 a1 1 0 0 0 1 0 c0 0 0 -1 -1 -1 s-1 0 -1 1 m-31 4 0 4 -4 -1 a323 323 0 0 1 -7 -1 c-6 -1 -17 -2 -16 -1 1 1 27 4 28 3 0 0 1 -3 0 -5 l0 -4 zM389 370 c0 0 0 1 1 1 s1 0 1 0 0 0 0 0 0 0 0 1 m3 0 c1 0 2 0 3 0 s0 0 -2 0 -2 0 -1 0 M153 372 c0 4 4 21 5 20 0 -1 -4 -21 -4 -22 0 0 0 1 0 2 m212 -2 c0 0 5 1 11 2 12 1 15 2 13 3 -1 0 -2 0 -3 0 -1 -1 -3 -1 -5 -1 -3 0 -2 0 1 1 l4 1 -5 3 c-3 1 -5 3 -6 4 -1 2 -1 2 1 0 2 -1 3 -2 3 -1 s-5 4 -11 8 c-6 4 -12 8 -12 9 s4 -2 10 -6 c24 -16 28 -19 30 -21 1 -1 0 -1 -2 0 -2 1 -4 2 -4 1 -1 -1 -25 -4 -25 -3 m-8 1 c0 1 20 3 21 2 0 0 -3 -1 -7 -1 s-9 -1 -11 -1 c-2 0 -3 0 -3 0 m-3 4 c0 2 0 3 0 2 0 -1 0 -3 0 -4 0 -1 0 0 0 2 m-52 -2 c0 1 0 1 1 0 2 -1 2 -1 1 -1 -1 0 -1 0 -2 1 m-71 2 c-1 1 -14 6 -27 12 l-25 11 -7 -1 c-4 -1 -8 -1 -9 -1 s-2 0 -2 0 c0 1 2 2 8 3 6 1 61 8 65 8 2 0 3 0 3 -1 0 -1 -2 -2 -8 -2 -6 -1 -7 -1 -5 -1 2 0 -2 -1 -8 -1 -9 0 -11 0 -13 -2 -2 -2 -2 -2 -1 -3 2 -1 3 -1 2 0 0 1 0 1 2 1 2 0 2 0 1 1 -1 1 1 1 5 1 3 0 7 -1 7 -1 s1 0 1 0 2 1 4 1 4 0 4 1 1 1 4 0 c3 0 4 0 3 1 0 1 0 1 1 1 1 0 1 -1 1 -3 0 -3 0 -3 -3 -3 -5 0 -6 -1 -3 -3 1 -1 1 -1 1 -1 -1 0 -8 3 -9 4 0 0 -4 0 -8 -1 s-6 -1 -4 -1 c2 0 3 0 2 -1 -1 0 4 -3 12 -7 7 -3 13 -6 13 -7 s-4 1 -9 3 c-5 2 -14 6 -21 9 -12 5 -12 5 -8 5 2 0 4 0 4 1 0 0 -2 1 -4 0 a254 254 0 0 0 -6 0 c-1 0 -2 0 -2 0 0 0 10 -5 22 -10 s22 -10 22 -10 0 -2 0 -3 c-1 -3 -1 -3 -3 -1 m42 0 -2 2 3 -1 c2 0 3 -1 4 -2 2 -2 -2 -1 -4 1 m62 0 c0 1 0 2 1 1 0 -1 0 -2 0 -2 0 -1 -1 0 -1 1 m-54 3 a918 918 0 0 1 0 7 c0 2 0 3 1 3 s1 -3 1 -7 c0 -7 -1 -10 -1 -3 m4 4 c0 7 0 7 -2 8 -2 0 -2 0 0 1 q2 1 3 -1 c1 -1 1 -16 0 -16 0 0 0 3 0 7 m-78 5 c-14 6 -26 12 -25 12 0 0 50 -21 51 -22 0 0 0 0 0 -1 0 0 -12 5 -26 11 m175 -10 c-2 1 -3 2 -3 3 0 0 7 -3 7 -4 0 -1 0 -1 -4 2 M163 378 c0 1 0 1 1 1 a1 1 0 0 0 0 -1 c0 0 -1 0 -1 1 m116 5 c0 3 0 5 0 3 s0 -4 0 -6 c0 -2 0 0 0 3 m23 1 c1 10 0 12 -7 16 -5 3 -5 4 -4 4 2 1 14 2 28 4 5 1 10 1 12 1 l3 0 0 -14 c0 -8 0 -14 -1 -14 s-6 -1 -13 -1 c-7 -1 -14 -2 -15 -2 l-3 0 zM271 383 c0 3 0 4 0 3 s0 -4 0 -5 0 0 0 3 m85 -3 c1 0 5 1 9 1 7 0 8 0 3 0 -10 -2 -12 -2 -11 -1 M162 387 c0 4 0 6 0 4 s0 -5 0 -7 c0 -2 0 0 0 4 m104 -2 c-1 3 -2 6 -1 6 s1 0 2 -1 c1 -1 2 -2 1 -6 l0 -5 zm88 -2 c0 1 -1 4 -1 7 0 7 1 8 11 1 4 -3 8 -6 8 -6 0 -1 -2 -2 -10 -2 -5 -1 -7 0 -7 1 m0 6 c0 3 0 6 0 6 1 0 14 -9 13 -10 -1 0 -4 -1 -7 -1 l-6 -1 zm-130 0 c-6 3 -10 6 -10 6 2 2 10 1 15 -2 5 -3 6 -3 6 -6 0 -2 0 -3 0 -3 s-5 2 -11 5 m49 0 c0 1 1 1 4 1 4 0 4 -1 -1 -2 -2 0 -3 0 -3 1 m-39 3 c-1 1 -2 1 -2 2 s2 0 3 -1 c3 -2 2 -2 -2 -1 m42 5 c-4 3 -8 4 -10 4 -5 0 -4 1 3 1 3 0 4 0 4 0 -1 -1 -1 -1 1 -2 3 -2 4 -1 2 0 -2 2 -1 2 5 3 7 1 6 -1 -1 -1 l-5 -1 6 -4 c3 -2 6 -4 6 -4 0 0 -1 0 -2 0 s-5 2 -9 4 m-42 -2 c-2 1 -2 1 1 2 2 0 3 0 3 -1 0 -2 -1 -2 -4 0 m46 1 c-2 1 -3 2 -3 2 0 0 8 -4 8 -4 0 -1 -2 0 -5 2 m14 0 c-2 1 -2 2 -2 2 s2 -1 4 -2 c3 -2 2 -2 -2 0 m-6 1 c0 1 0 2 1 2 s1 -1 0 -3 c-1 -3 -1 -3 -1 1 M354 399 c0 1 0 2 1 1 0 -1 0 -2 0 -2 0 -1 -1 0 -1 1 m-128 0 c1 1 3 1 5 1 6 1 4 -1 -2 -2 -3 0 -4 0 -3 0 m-63 3 c0 1 1 4 2 6 s1 5 1 5 c0 0 7 1 44 6 9 1 17 2 19 2 2 0 3 0 5 -4 l2 -5 -4 -1 c-2 0 -18 -2 -35 -5 -17 -2 -32 -4 -32 -4 -1 -1 1 -1 42 4 13 2 25 3 27 3 s3 0 3 0 -4 -1 -8 -2 c-11 -1 -47 -6 -54 -7 -3 0 -7 -1 -9 -1 -3 0 -3 0 -2 1 m52 0 a1 1 0 0 0 1 0 c0 0 0 -1 -1 -1 s-1 0 -1 1 m3 0 c1 0 2 0 2 0 s0 -1 -1 -1 c-1 0 -1 0 -1 1 M286 402 c0 1 0 1 1 1 a1 1 0 0 0 0 -1 c0 0 -1 0 -1 1 m-55 2 c0 0 0 1 1 1 s1 0 1 0 0 0 0 0 0 0 0 1 m2 0 c0 0 0 1 1 1 s1 0 1 0 0 0 0 0 0 0 0 1 m30 0 c0 0 13 2 29 4 16 2 30 4 32 4 2 0 3 0 3 0 0 0 -9 -2 -19 -3 -48 -6 -45 -6 -45 -5 m81 4 c-3 2 -5 3 -4 3 s3 -2 6 -3 5 -3 4 -3 c-1 0 -3 2 -6 4 m-187 1 c0 2 -1 6 -2 9 -2 6 -2 7 0 7 2 0 4 -4 4 -8 0 -2 0 -2 -1 -1 -1 3 -3 8 -3 7 0 0 0 -3 1 -6 s1 -7 1 -9 l0 -3 zm106 -2 c2 1 9 1 8 1 0 0 -3 -1 -5 -1 -3 0 -4 0 -3 0 m14 2 c2 0 6 1 8 1 3 0 2 0 -1 -1 -2 0 -6 -1 -7 -1 -3 0 -3 0 1 1 m-17 3 -1 3 7 1 c14 1 48 6 48 7 0 1 2 0 5 -2 l4 -3 -3 -1 c-2 0 -8 -1 -13 -2 -11 -1 -38 -5 -42 -5 -2 0 -3 0 -4 2 m31 0 c1 0 3 0 4 0 1 0 0 0 -2 0 s-3 0 -2 0 m-30 1 c0 0 4 1 8 2 35 5 47 6 48 6 2 -1 -3 -1 -29 -5 -25 -3 -27 -3 -27 -3 m38 0 c1 0 3 0 5 0 1 0 0 0 -2 0 s-3 0 -2 0 M165 416 c0 1 0 1 1 1 0 0 3 0 6 0 6 1 7 1 29 4 9 1 20 3 24 3 5 1 7 1 7 0 0 -1 0 -1 -1 -1 -2 0 -7 -1 -46 -6 -17 -2 -21 -2 -21 -1 m95 4 v5 l17 2 c9 1 20 3 23 3 3 1 6 1 6 1 s1 -2 1 -4 c0 -3 1 -5 2 -5 1 -1 0 -1 -8 -2 -5 -1 -14 -2 -20 -3 s-12 -2 -15 -2 l-5 -1 zm50 6 c-1 3 -1 17 1 18 1 1 3 1 5 1 l4 0 -4 -1 -4 -1 v-8 c0 -9 0 -9 8 -8 l4 1 v9 c0 5 0 9 1 8 1 -1 0 -17 -1 -18 -2 -2 -12 -2 -12 -1 M325 441 c0 4 -2 6 -8 5 -9 -1 -9 -2 -10 -4 l0 -2 0 2 c0 1 1 3 2 3 3 2 11 2 14 1 2 -1 3 -2 3 -5 0 -2 0 -4 0 -4 s0 2 0 3 m3 -3 c1 1 3 1 4 1 4 0 3 -1 -2 -1 -3 0 -4 0 -2 0 m-174 2 c1 0 2 0 2 0 s0 -1 -1 -1 c-1 0 -1 0 -1 1 m176 5 c-3 2 -6 5 -6 5 s-1 0 -2 0 c-1 0 -2 0 -2 1 0 1 0 1 1 0 1 0 2 0 2 0 s2 -1 4 -2 5 -4 7 -6 c5 -4 2 -3 -4 2 m-11 0 a1 1 0 0 0 1 0 c0 0 0 -1 -1 -1 s-1 0 -1 1 m-20 2 c1 1 18 3 19 3 0 0 0 -1 -1 -1 -1 0 -5 -1 -10 -1 -5 -1 -8 -1 -8 -1"/></svg>
