<svg xmlns="http://www.w3.org/2000/svg" width="512" height="512" viewBox="0 0 512 512"><path fill="#eef1f6" fill-rule="evenodd" d="M247 20 c-9 4 -16 18 -17 32 l0 9 -6 1 c-3 1 -15 3 -25 4 l-19 3 -3 -3 c-3 -3 -8 -3 -20 -1 -9 2 -13 4 -15 8 -1 2 -3 3 -21 6 -11 2 -21 4 -21 5 -2 2 -2 5 0 6 1 1 1 1 0 2 -2 2 -2 4 0 6 1 1 2 1 9 0 13 -2 35 -6 37 -7 2 0 2 0 2 3 0 2 1 6 3 9 3 6 3 7 4 23 1 19 2 24 8 34 5 8 8 11 12 11 4 0 13 -3 17 -6 1 -1 4 -2 5 -2 4 -1 15 -10 21 -19 l2 -3 3 5 c1 3 3 5 3 6 s1 5 2 8 c1 4 3 11 4 16 1 9 1 9 -2 15 -2 5 -3 8 -4 16 0 7 -2 13 -4 22 -6 19 -6 19 -4 22 1 2 1 3 0 9 -4 14 -5 22 -1 50 1 6 4 11 11 15 9 5 32 12 43 14 6 1 10 2 10 2 0 0 0 5 1 11 1 10 0 12 -2 18 -3 9 -2 17 2 25 3 7 7 10 13 9 8 -1 16 -10 19 -19 1 -3 2 -4 5 -6 11 -7 15 -14 13 -27 -1 -6 -1 -9 0 -14 2 -8 2 -13 0 -17 -3 -8 -8 -12 -16 -12 l-5 0 0 -33 c0 -33 0 -33 -2 -42 -2 -9 -3 -11 -2 -23 l1 -14 -5 -9 c-5 -9 -5 -9 -4 -16 0 -4 2 -12 3 -17 2 -8 3 -11 7 -17 3 -4 5 -8 5 -9 s1 -2 1 -2 3 1 5 3 8 3 11 3 9 2 12 2 c4 1 8 2 11 2 4 0 5 0 8 -4 2 -2 4 -7 6 -11 2 -6 2 -8 2 -18 0 -8 -1 -14 -3 -19 -2 -6 -3 -11 -3 -20 l-1 -12 25 -5 c16 -3 26 -5 27 -6 2 -2 2 -6 0 -6 -2 0 -2 0 0 -1 3 -2 1 -8 -3 -8 -1 0 -13 2 -26 5 S359 38 359 38 s-1 -1 -2 -2 c-5 -5 -24 -2 -30 5 -3 3 -3 3 -22 7 l-19 3 0 -6 c-1 -11 -7 -18 -18 -23 -7 -3 -14 -4 -20 -1 m2 9 C244 31 239 45 239 55 c0 4 0 5 1 5 2 0 5 -4 5 -6 0 -2 6 -11 8 -11 2 0 4 4 5 9 1 4 0 4 -3 8 -2 2 -5 5 -8 6 l-5 2 3 3 c3 3 3 3 5 1 2 -1 3 -1 4 0 1 1 1 2 -1 5 -2 4 -7 8 -17 13 -2 1 -4 3 -4 3 0 1 6 4 8 4 3 -1 8 1 12 4 2 1 4 2 5 2 s3 1 4 2 c2 2 2 11 0 12 -1 0 -1 3 -1 5 s-1 6 -2 8 l-2 4 7 7 c8 8 9 11 7 13 -1 1 -2 1 -4 -1 -2 -1 -5 -5 -8 -9 -5 -7 -8 -8 -11 -5 -2 3 -5 4 -11 4 l-6 1 3 4 c3 4 3 4 5 2 1 -1 2 -2 3 -2 1 0 2 -1 3 -2 2 -3 5 -4 7 -2 2 2 2 5 -1 7 -1 1 -3 3 -3 4 s-1 3 -2 3 c-2 1 -2 1 -1 3 1 1 2 5 2 9 1 7 1 8 0 9 -1 1 -2 1 -4 -1 l-2 -2 1 4 c0 2 1 5 2 5 5 3 29 0 28 -3 0 -1 -1 -1 -2 -1 -1 0 -1 -4 -1 -10 0 -8 1 -10 2 -12 2 -2 2 -2 4 -1 2 1 2 2 1 12 0 6 -1 11 -2 11 -1 0 -1 1 -1 1 0 1 6 0 7 -1 0 0 2 -1 4 -2 3 -1 3 -2 3 -5 0 -2 0 -6 1 -8 1 -4 1 -4 -1 -4 -2 1 -7 -3 -7 -6 0 -1 1 -2 3 -3 2 -1 3 -1 5 1 l2 2 1 -4 c1 -3 1 -5 0 -6 -1 -1 -1 -3 0 -4 1 -2 4 -4 5 -4 1 0 5 -5 5 -7 0 0 -2 -1 -4 -1 s-4 0 -5 -1 c-2 -1 -2 -1 -3 3 -1 6 -3 9 -7 14 -4 5 -6 5 -8 3 -1 -1 -1 -2 2 -8 5 -9 7 -19 7 -31 0 -8 0 -9 3 -12 1 -2 3 -5 4 -8 1 -4 1 -4 0 -4 -4 0 -15 -7 -18 -12 -2 -4 -2 -7 1 -15 3 -8 4 -18 1 -23 -5 -8 -16 -13 -23 -9 m90 14 c-3 1 -5 2 -5 2 s1 2 2 3 c3 2 3 8 0 10 -1 1 -3 1 -4 1 -2 0 -2 0 2 4 6 5 7 9 8 23 0 11 0 12 3 16 3 4 3 4 1 6 s-2 1 -9 0 c-4 -1 -9 -2 -9 -3 -2 -1 -2 -2 0 -3 2 -2 1 -2 -3 -2 -4 0 -5 -1 -9 -5 -7 -6 -10 -8 -16 -8 -4 1 -4 1 -3 2 1 2 1 2 0 5 -1 3 -1 4 3 8 4 4 6 6 5 3 -1 -4 9 -7 12 -4 2 2 2 2 0 3 -1 1 -3 2 -5 2 s-3 1 -3 1 c0 1 1 3 2 6 1 4 2 5 5 7 5 2 4 2 3 -1 -1 -3 -1 -3 3 -7 2 -2 5 -4 6 -4 2 -1 10 3 16 8 3 2 6 4 7 4 s2 1 2 2 c1 3 3 -5 3 -13 0 -5 -1 -12 -3 -20 -2 -10 -3 -16 -4 -30 l-1 -17 -2 0 c-1 0 -5 1 -8 1 M358 46 c0 0 0 1 1 1 s1 0 1 0 0 0 0 0 0 0 0 1 m-60 19 C285 67 278 69 278 70 c0 2 3 4 8 6 4 2 5 2 12 1 9 -1 13 1 20 8 3 3 5 5 7 5 1 0 4 0 6 1 l3 1 -1 -10 c-1 -9 -1 -10 -3 -12 -2 -1 -4 -4 -6 -6 s-4 -3 -5 -3 c-1 0 -10 2 -21 4 m-143 10 c-6 2 -6 4 -2 9 3 3 4 5 4 8 0 2 1 7 3 10 3 6 3 7 4 23 1 11 1 18 2 22 2 6 8 16 10 16 1 0 10 -5 15 -8 3 -2 4 -2 5 -1 1 1 2 0 5 -3 3 -2 5 -4 5 -4 s-1 0 -2 0 -4 0 -6 -1 c-3 -1 -4 -1 -10 2 -4 2 -7 3 -8 3 -1 0 -2 -1 -2 -2 0 -2 10 -9 15 -12 l6 -3 2 2 c2 2 2 2 6 1 2 -1 4 -1 5 -1 1 0 2 -2 4 -5 4 -6 4 -6 1 -6 -1 0 -2 -1 -3 -1 -2 -2 2 -5 9 -7 a1238 1238 0 0 0 11 -3 c4 -1 5 -1 7 0 2 1 2 2 -2 5 l-4 3 3 2 c5 3 11 5 12 5 1 -1 1 -8 0 -15 0 -6 -3 -8 -11 -8 l-6 0 -3 -5 c-3 -5 -4 -5 -7 -5 -9 2 -12 5 -15 16 -2 7 -3 9 -7 9 -2 0 -2 0 0 1 2 1 2 2 -1 5 -7 7 -16 10 -20 6 -2 -2 -2 -2 0 -4 2 -2 2 -2 -2 -11 -4 -8 -7 -17 -7 -20 0 0 2 -3 5 -6 5 -5 5 -5 3 -7 -1 -1 -2 -3 -3 -4 s-2 -3 -3 -5 c-2 -2 -3 -3 -8 -3 -3 0 -8 1 -10 1 M230 77 c-5 1 -17 3 -25 5 l-16 3 0 3 c0 2 -2 4 -4 7 -2 2 -4 4 -4 6 0 2 6 18 6 18 0 0 3 -2 6 -4 4 -3 6 -5 8 -9 5 -11 12 -17 22 -19 8 -2 20 -9 18 -10 -1 -1 -4 0 -11 1 m24 5 c-1 1 -1 2 1 4 6 5 10 10 13 14 2 4 2 6 3 20 0 15 1 18 4 16 1 0 2 -3 3 -9 2 -11 1 -22 -2 -25 -1 -1 -2 -5 -3 -7 s-3 -6 -5 -9 c-3 -4 -5 -5 -8 -5 -3 0 -4 0 -5 1 M186 84 c0 0 0 1 1 1 s1 0 1 0 0 0 0 0 0 0 0 1 m-42 1 c0 0 0 1 1 1 s1 0 1 0 0 0 0 0 0 0 0 1 m149 2 c0 0 0 1 1 1 s1 0 1 0 0 0 0 0 0 0 0 1 m-2 18 c0 0 0 2 0 4 0 2 1 5 1 8 q0 7 6 7 c4 0 6 -2 6 -6 0 -3 -1 -4 -2 -5 -1 -1 -4 -3 -6 -5 -2 -2 -4 -3 -4 -3 M253 110 c0 0 0 1 1 1 s1 0 1 0 0 0 0 0 0 0 0 1 m77 10 c-2 2 -1 2 2 4 7 3 17 6 20 6 1 0 3 -1 3 -2 1 -1 0 -2 -1 -1 -2 2 -5 1 -9 -1 -2 -1 -6 -4 -8 -5 l-5 -2 zM197 122 c0 0 0 1 1 1 s1 0 1 0 0 0 0 0 0 0 0 1 m128 0 c0 0 0 1 1 1 s1 0 1 0 0 0 0 0 0 0 0 1 m-97 6 c-1 3 -1 5 -1 5 s3 1 7 1 l6 0 -5 -5 c-3 -3 -5 -6 -5 -6 s-1 2 -2 4 M226 141 c0 0 0 1 1 1 s1 0 1 0 0 0 0 0 0 0 0 1 m-15 2 c0 0 0 1 1 1 s1 0 1 0 0 0 0 0 0 0 0 1 m48 17 c-5 5 -7 11 -4 13 1 1 2 1 5 -2 5 -5 6 -11 4 -13 -1 -1 -2 -1 -5 2 m29 28 c0 1 -1 3 -3 5 -3 3 -6 4 -14 7 -6 2 -12 3 -13 3 -4 0 -9 -2 -11 -5 -1 -1 -3 -3 -5 -4 -3 -1 -3 -1 -4 2 -1 2 -2 7 -2 14 -1 8 -2 14 -5 23 -5 16 -5 18 2 22 6 4 16 6 22 5 2 0 7 -2 10 -4 4 -3 6 -3 6 -2 1 1 1 1 2 0 1 -1 2 -1 3 0 1 1 2 2 2 2 1 1 13 -2 18 -6 5 -3 5 -3 2 -13 -2 -7 -3 -13 -2 -26 1 -10 0 -16 -5 -21 -2 -2 -3 -3 -3 -2 m-41 23 c-2 2 -1 4 5 9 5 5 7 5 9 3 1 -1 1 -2 -3 -5 -7 -7 -10 -8 -11 -7 m27 18 c-5 5 -6 7 -7 12 -1 7 -1 9 0 11 3 3 7 0 8 -7 0 -3 2 -6 4 -10 2 -3 4 -6 4 -7 0 -2 -1 -5 -2 -5 0 0 -3 3 -7 6 m-24 5 c-2 1 -2 2 1 4 2 1 5 3 7 4 3 1 4 1 6 -1 2 -2 2 -2 0 -4 -4 -4 -11 -6 -14 -3 M270 257 c0 0 0 1 1 1 s1 0 1 0 0 0 0 0 0 0 0 1 m28 4 c-2 2 -14 6 -19 6 -5 0 -5 -1 0 13 3 8 4 9 4 19 l0 11 5 2 c2 1 6 2 8 2 3 0 3 0 3 -2 0 -1 0 -7 0 -13 1 -15 2 -39 1 -39 0 0 -1 0 -2 1 M267 261 c0 0 0 1 1 1 s1 0 1 0 0 0 0 0 0 0 0 1 m-43 6 c-1 3 -1 9 -1 25 0 23 1 24 6 27 3 2 3 2 4 0 1 -2 2 -1 8 2 10 6 13 7 24 9 5 1 11 2 13 3 3 1 5 1 7 0 7 -4 15 -2 20 4 2 3 3 4 3 13 0 7 1 12 2 15 1 2 2 6 2 8 l0 3 4 -4 4 -4 -1 -11 c-1 -9 0 -13 1 -18 1 -6 1 -7 0 -10 -2 -5 -5 -6 -12 -5 -7 2 -19 1 -23 0 -2 -1 -7 -3 -10 -6 -6 -4 -21 -10 -26 -10 -1 0 -2 -1 -4 -2 -2 -2 -3 -2 -2 -8 1 -5 0 -5 -1 -5 -1 0 -2 3 -3 6 s-2 6 -3 7 c-4 4 -6 -7 -3 -14 2 -4 6 -9 8 -9 1 0 1 0 0 1 s0 1 0 1 3 -3 5 -6 l4 -6 -7 -1 c-5 0 -8 -1 -12 -3 -3 -2 -6 -3 -6 -3 s-1 1 -2 3 M272 264 c0 0 0 1 1 1 s1 0 1 0 0 0 0 0 0 0 0 1 m-9 5 c-4 5 -7 13 -8 17 -2 12 -2 10 3 11 2 0 7 2 11 3 l6 2 -1 -7 c0 -4 -2 -12 -5 -19 l-4 -11 zm27 72 c-1 1 -1 3 -1 13 0 11 0 13 -2 20 -2 8 -2 10 0 18 1 4 1 4 4 4 4 0 8 -4 10 -11 2 -7 2 -11 -1 -21 -2 -6 -2 -10 -1 -15 0 -5 0 -7 -1 -8 -1 -2 -7 -2 -9 -1 M311 377 c0 0 0 1 1 1 s1 0 1 0 0 0 0 0 0 0 0 1"/></svg>
