<svg xmlns="http://www.w3.org/2000/svg" width="512" height="512" viewBox="0 0 512 512"><path fill="#eef1f6" fill-rule="evenodd" d="M417 16 c-5 2 -8 6 -9 11 -1 3 -1 3 -3 1 -4 -3 -19 -2 -23 1 -4 3 -7 10 -7 18 0 3 0 7 0 8 0 1 -3 5 -8 9 -19 17 -79 68 -101 85 l-10 8 -3 -3 c-1 -2 -3 -3 -4 -3 -2 0 -1 4 2 6 l3 2 -16 13 c-10 8 -17 14 -19 14 -2 0 -4 2 -6 4 -2 2 -4 4 -8 5 -5 1 -6 2 -9 7 -2 3 -4 5 -4 5 -1 0 -7 -3 -7 -4 0 0 1 -2 1 -4 1 -3 1 -3 3 -2 2 2 6 3 6 2 0 -1 -5 -6 -6 -6 -1 0 -2 -14 -1 -14 0 0 1 1 1 3 1 5 6 8 12 8 7 0 14 -3 17 -7 2 -3 3 -4 4 -3 1 1 2 1 3 0 2 -1 2 -1 0 -3 -1 -1 -2 -5 -3 -9 -1 -8 -4 -14 -9 -19 -5 -5 -8 -6 -18 -6 -4 0 -10 0 -13 0 -4 -1 -5 0 -9 3 -5 3 -7 7 -6 11 0 2 0 2 2 -1 1 -2 3 -5 5 -6 2 -2 3 -2 7 -2 2 0 9 1 15 1 14 1 16 2 18 7 6 16 4 25 -5 29 -5 2 -11 2 -14 0 -1 -1 -3 -4 -4 -6 -1 -3 -3 -6 -4 -8 l-3 -3 2 -5 c2 -3 2 -6 2 -8 0 -5 -2 -5 -3 1 -1 4 -2 6 -4 9 -2 2 -3 4 -3 4 0 0 1 2 2 5 3 6 4 15 2 21 -1 4 -1 5 -4 4 -1 0 -4 -2 -5 -3 -3 -3 -4 -2 -3 1 1 1 1 2 0 2 -3 0 0 2 4 4 3 1 6 3 8 4 2 1 5 3 7 4 3 1 4 1 4 5 0 2 1 5 1 6 1 2 0 2 -1 1 -4 -1 -7 -2 -6 -1 0 1 -1 1 -4 2 -9 1 -19 -7 -21 -18 0 -3 -1 -5 -2 -6 -1 -1 -1 -3 -1 -9 0 -4 0 -8 0 -8 s2 0 3 1 3 1 4 1 c1 0 0 -2 -4 -5 -11 -10 -9 -25 4 -32 2 -1 5 -3 6 -5 s4 -5 7 -7 c7 -5 10 -4 6 4 -1 2 -1 2 1 1 1 -1 2 -1 3 -1 1 1 1 -1 0 -4 l-1 -5 3 4 c4 5 10 9 12 8 1 0 1 -1 -3 -4 -2 -2 -6 -5 -7 -6 l-2 -2 4 -4 c4 -4 8 -10 8 -13 0 -1 -1 -1 -3 2 -3 4 -11 11 -14 11 -5 1 -7 0 -10 -7 -2 -4 -4 -8 -4 -9 -1 -1 -2 -3 -2 -3 s-2 -1 -2 -2 c-1 -2 -1 -6 0 -5 2 1 2 -2 0 -5 -7 -9 0 -24 12 -30 7 -3 18 -1 23 5 4 5 6 10 6 22 0 6 1 15 1 19 1 5 1 9 0 12 -1 7 -1 19 0 19 2 -1 3 -7 3 -17 l0 -9 2 4 c2 4 5 8 4 4 0 -1 1 -1 8 1 6 2 11 2 14 2 10 -1 16 5 18 16 1 4 1 7 2 7 0 0 1 -1 2 -2 1 -1 1 -3 1 -6 -2 -13 -11 -21 -23 -20 -5 0 -8 0 -17 -2 -3 -1 -4 -2 -7 -8 -3 -6 -3 -7 -3 -19 0 -11 0 -13 -2 -17 -4 -9 -11 -14 -21 -15 -18 -2 -34 16 -29 33 1 2 1 7 1 10 0 4 1 6 3 8 1 1 4 5 6 9 2 4 4 8 5 8 1 1 0 3 -6 8 -4 4 -8 7 -8 7 -2 0 -7 5 -9 9 -3 6 -4 13 -1 20 2 5 2 8 2 15 0 8 0 9 3 18 6 17 12 22 25 22 l7 0 1 5 c1 5 0 12 -2 17 -2 6 -4 9 -6 12 -1 2 -2 4 -2 5 s-2 5 -5 10 c-10 15 -20 37 -17 39 0 0 1 5 1 10 0 9 0 10 -4 17 -2 4 -6 11 -9 15 -7 11 -9 18 -10 37 -2 26 -5 44 -8 46 -1 1 -2 3 -3 5 -2 5 -9 16 -12 18 -5 3 -9 10 -9 13 0 6 6 10 17 10 7 0 13 -2 18 -7 3 -3 6 -5 9 -6 2 -1 6 -2 7 -4 2 -2 3 -3 2 -13 0 -6 -1 -11 -2 -13 -2 -3 -1 -9 1 -18 3 -9 5 -16 12 -26 6 -10 8 -15 9 -28 1 -7 2 -10 3 -13 1 -2 7 -10 12 -17 9 -13 10 -13 13 -13 3 0 3 0 10 -14 4 -8 7 -14 8 -14 1 0 6 11 8 18 2 5 3 6 5 7 1 1 3 3 4 8 1 4 4 12 7 18 4 8 5 12 5 15 0 6 2 10 7 17 7 9 8 14 7 31 -1 12 -1 15 -4 19 -6 11 -2 16 12 16 9 0 13 -2 16 -6 1 -2 2 -6 2 -19 0 -16 0 -17 -3 -20 -3 -4 -3 -6 -2 -25 1 -15 0 -19 -5 -26 -5 -7 -6 -9 -4 -23 1 -10 2 -12 4 -15 3 -3 3 -3 -1 -16 -2 -8 -10 -28 -12 -31 -1 -1 -1 -3 -1 -5 s-2 -6 -4 -10 L258 243 c-2 -3 -3 -6 -4 -7 -1 -2 -4 -14 -3 -16 0 -1 2 -2 4 -2 6 -2 20 -10 21 -12 1 -1 1 -9 0 -20 -1 -17 -1 -18 -4 -24 -2 -4 -4 -6 -5 -6 -1 0 -2 0 -2 0 s13 -11 29 -25 c16 -13 41 -35 56 -47 15 -13 27 -23 27 -23 s-1 1 -2 2 L374 65 v328 l-3 1 c-8 3 -12 5 -13 10 -1 4 -1 4 1 6 1 1 5 2 10 3 7 1 8 1 19 -4 6 -3 12 -5 13 -6 1 -1 3 -1 18 0 9 1 19 1 21 1 4 0 4 0 1 1 -8 2 -11 6 -11 11 0 3 2 4 10 5 6 1 8 0 24 -4 10 -3 18 -5 20 -6 6 -4 0 -14 -8 -14 h-4 l0 -180 0 -180 -3 -5 c-4 -7 -9 -11 -25 -14 -15 -4 -19 -4 -25 -1 m5 1 a1 1 0 0 0 1 0 c0 0 0 -1 -1 -1 s-1 0 -1 1 m6 0 a1 1 0 0 0 1 0 c0 0 0 -1 -1 -1 s-1 0 -1 1 M431 17 c0 0 0 1 1 1 s1 0 1 0 0 0 0 0 0 0 0 1 m-13 1 c0 0 0 1 1 1 s1 0 1 0 0 0 0 0 0 0 0 1 m18 1 c1 0 3 1 4 1 2 0 2 0 0 -1 -3 -1 -6 -1 -3 0 m7 2 c1 0 2 0 2 0 s0 -1 -1 -1 c-1 0 -1 0 -1 1 m-23 2 c-7 3 -10 12 -6 23 1 4 3 8 3 8 s3 1 6 1 l5 1 0 -10 c0 -6 -1 -10 -1 -10 0 0 -1 1 -2 2 -1 1 -2 1 -3 0 -1 -1 -1 -2 2 -4 4 -3 7 -3 18 0 9 3 11 4 13 8 1 2 1 54 1 184 l0 181 -10 3 c-11 4 -13 6 -6 7 5 1 5 1 25 -5 8 -2 15 -4 15 -5 0 -2 -3 -3 -9 -3 l-5 1 0 -183 c0 -182 0 -183 -2 -186 -3 -5 -7 -7 -19 -10 -14 -4 -19 -4 -23 -2 m26 -1 a1 1 0 0 0 1 0 c0 0 0 -1 -1 -1 s-1 0 -1 1 M450 22 c0 0 0 1 1 1 s1 0 1 0 0 0 0 0 0 0 0 1 m4 1 c0 0 0 1 1 1 s1 0 1 0 0 0 0 0 0 0 0 1 m2 1 c0 0 0 1 1 1 s1 0 1 0 0 0 0 0 0 0 0 1 m3 2 c0 0 1 2 3 3 l3 3 -3 -3 c-3 -3 -4 -4 -4 -3 M387 30 c0 0 0 1 1 1 s1 0 1 0 0 0 0 0 0 0 0 1 m5 4 c-8 6 -8 28 0 35 4 4 9 4 18 1 3 -1 6 -2 7 -2 1 0 2 -1 2 -4 0 -2 0 -5 0 -5 s-1 -1 -3 -1 c-3 0 -3 -1 -5 -6 -4 -11 -5 -14 -7 -16 -3 -3 -8 -3 -11 -1 m74 0 c0 1 1 84 1 183 0 100 1 181 1 181 s1 -82 0 -181 c0 -148 -1 -182 -2 -183 l-1 -2 zm-84 3 C379 41 378 52 380 52 c1 0 1 -2 1 -5 0 -3 1 -7 2 -9 2 -6 2 -6 -1 -1 m51 18 c0 17 0 18 -2 19 -2 1 -2 2 -2 5 0 3 -1 4 -3 5 l-2 1 V237 l3 2 c2 2 3 2 3 10 V256 h4 c6 0 10 3 10 8 0 1 1 3 3 4 l3 3 0 53 c0 29 0 53 -1 54 -1 2 -7 3 -13 3 -5 0 -6 0 -6 2 0 2 1 2 7 2 4 0 9 1 11 1 l4 0 0 -170 c0 -107 0 -171 -1 -173 -1 -2 -2 -3 -6 -4 -3 -1 -6 -2 -8 -2 h-2 zm-37 -14 c0 3 3 3 3 0 0 -1 -1 -2 -2 -2 -1 0 -1 1 -1 2 m1 15 c-2 3 -2 5 0 7 3 3 7 2 7 -2 0 -4 -5 -8 -7 -5 M352 79 c-36 31 -85 71 -98 83 -12 9 -15 13 -13 11 4 -2 63 -51 107 -89 a65284 65284 0 0 1 32 -27 c0 0 0 -1 0 -1 S367 66 352 79 m71 -19 c0 1 1 2 3 3 2 1 3 1 3 -1 0 -1 0 -2 -1 -2 s-2 0 -2 -1 c-1 0 -2 0 -2 1 M380 228 l0 169 -7 3 c-7 2 -10 4 -10 6 0 0 3 1 6 1 5 1 7 0 15 -3 10 -4 12 -5 8 -5 -1 0 -3 -1 -4 -1 -3 -3 1 -3 27 -1 14 1 27 2 30 3 l5 0 V392 l-10 -1 c-12 -1 -44 -4 -48 -4 l-2 0 V232 c0 -104 0 -155 1 -155 1 0 0 -2 -2 -5 -2 -2 -4 -6 -5 -8 -1 -2 -2 -4 -2 -5 -1 -1 -1 71 -1 168 M191 63 a1 1 0 0 0 1 0 c0 0 0 -1 -1 -1 s-1 0 -1 1 M182 64 c0 0 0 1 1 1 s1 0 1 0 0 0 0 0 0 0 0 1 m13 0 a1 1 0 0 0 1 0 c0 0 0 -1 -1 -1 s-1 0 -1 1 M179 65 c0 0 0 1 1 1 s1 0 1 0 0 0 0 0 0 0 0 1 m19 0 c0 0 0 1 1 1 s1 0 1 0 0 0 0 0 0 0 0 1 m179 1 c0 1 0 1 1 1 0 -1 0 -2 0 -2 s-1 0 -1 1 M177 66 c0 0 0 1 1 1 s1 0 1 0 0 0 0 0 0 0 0 1 m23 0 c0 0 0 1 1 1 s1 0 1 0 0 0 0 0 0 0 0 1 m224 1 C422 68 423 69 425 69 c1 0 2 -1 2 -1 0 -2 -2 -2 -3 -1 M203 67 c0 0 1 1 2 2 2 1 2 1 0 0 -1 -2 -2 -2 -2 -1 M172 69 c0 0 0 1 1 1 s1 0 1 0 0 0 0 0 0 0 0 1 m-3 3 c0 0 0 1 1 1 s1 0 1 0 0 0 0 0 0 0 0 1 m39 2 c0 1 1 1 1 1 s0 0 0 -1 -1 -1 -1 -1 0 0 0 1 m208 2 c0 1 1 1 2 1 1 0 2 0 1 0 0 0 -1 1 -2 1 S416 77 416 78 s1 1 3 1 c3 0 3 0 3 -3 0 -3 0 -3 -4 -3 -3 0 -4 0 -3 2 m-7 2 c-4 2 -10 2 -14 1 -2 -1 -3 -1 -1 0 2 1 2 7 2 96 0 59 0 95 -1 95 -1 0 -1 -2 -1 -4 s0 17 0 44 0 54 0 61 v13 l3 1 c2 0 6 1 9 1 5 1 5 1 5 -1 0 -2 -1 -2 -5 -2 -6 0 -10 -2 -10 -4 0 -1 0 -25 0 -54 0 -51 0 -52 2 -53 1 -1 2 -3 3 -4 1 -4 4 -7 8 -7 4 0 5 -1 5 -9 0 -5 0 -6 2 -8 2 -2 2 -3 2 -78 V85 l-2 -2 c-3 -2 -3 -6 -1 -7 1 0 1 -1 1 -1 s-2 0 -4 1 M209 76 c0 0 0 1 1 1 s1 0 1 0 0 0 0 0 0 0 0 1 M392 168 c0 49 0 69 0 45 0 -25 0 -65 0 -89 0 -25 0 -4 0 45 M418 84 c0 0 0 1 1 1 s1 0 1 0 0 0 0 0 0 0 0 1 m0 7 c0 3 0 4 0 2 s0 -4 0 -5 0 0 0 3 M163 90 c0 1 0 1 1 1 a1 1 0 0 0 0 -1 c0 0 -1 0 -1 1 m255 9 c0 2 0 2 0 1 s0 -2 0 -3 0 0 0 2 M165 104 c0 0 0 1 1 1 s1 0 1 0 0 0 0 0 0 0 0 1 m2 5 c0 0 0 1 1 1 s1 0 1 0 0 0 0 0 0 0 0 1 m210 13 c0 0 0 1 1 1 s1 0 1 0 0 0 0 0 0 0 0 1 m41 2 c0 1 0 2 1 1 0 -1 0 -2 0 -2 0 -1 -1 0 -1 1 m-186 6 c-2 0 -4 2 -5 4 -1 2 -5 4 -7 6 -5 3 -7 6 -7 9 0 3 0 3 5 -2 12 -12 18 -16 22 -15 2 0 2 0 1 -1 -2 -2 -5 -2 -9 -2 M257 130 c0 1 1 1 1 1 s0 0 0 -1 -1 -1 -1 -1 0 0 0 1 m121 5 c0 2 0 2 0 1 s0 -2 0 -3 0 0 0 2 M259 134 c0 0 0 1 1 1 s1 0 1 0 0 0 0 0 0 0 0 1 m-62 4 c0 0 0 1 1 1 s1 0 1 0 0 0 0 0 0 0 0 1 m32 4 c0 1 5 7 6 7 2 0 1 -3 -2 -5 -3 -3 -4 -3 -4 -1 M418 143 c0 2 0 3 0 2 0 -1 0 -3 0 -3 0 -1 0 0 0 2 M199 147 c0 0 0 1 1 1 s1 0 1 0 0 0 0 0 0 0 0 1 m-40 2 c0 0 0 1 1 1 s1 0 1 0 0 0 0 0 0 0 0 1 m12 0 c0 0 0 1 1 1 s1 0 1 0 0 0 0 0 0 0 0 1 m67 2 c0 1 1 2 1 3 1 1 1 4 1 8 0 7 0 7 2 5 3 -3 4 -11 2 -14 -3 -3 -5 -4 -5 -3 m5 23 C230 185 222 192 222 193 c0 1 -1 3 -3 4 -2 2 -3 3 -2 4 0 1 1 2 1 3 1 3 5 3 12 0 6 -3 15 -9 15 -11 0 -1 -1 0 -2 2 -3 4 -4 2 -2 -4 1 -3 2 -6 1 -7 -1 -4 -1 -7 1 -8 2 -1 2 -1 2 1 0 2 2 9 4 12 1 2 2 2 4 1 2 -1 4 -2 5 -3 3 -2 4 -2 3 0 0 1 0 2 1 2 3 0 0 3 -6 6 -3 1 -7 4 -10 6 -10 8 -21 13 -26 12 -4 -1 -4 0 -4 8 0 7 1 8 8 3 3 -2 8 -4 16 -6 14 -3 30 -10 31 -14 1 -1 0 -5 0 -9 -1 -4 -1 -11 -1 -15 0 -8 0 -9 -3 -15 l-3 -7 zm134 0 c0 7 0 10 0 6 0 -3 0 -9 0 -12 0 -3 0 -1 0 6 m41 -1 c0 4 0 5 0 3 0 -2 0 -5 0 -7 s0 0 0 4 m-157 0 c1 7 2 9 3 7 2 -3 0 -13 -2 -13 -1 0 -1 2 0 6 M273 171 c0 0 0 1 1 1 s1 0 1 0 0 0 0 0 0 0 0 1 m-100 2 c-3 2 -5 4 -5 7 0 2 0 2 2 0 3 -2 6 -7 6 -8 0 0 -2 0 -3 1 M238 175 c0 0 0 1 1 1 s1 0 1 0 0 0 0 0 0 0 0 1 m-8 6 c-10 8 -11 10 -2 2 7 -6 10 -8 9 -8 0 0 -3 3 -7 6 M273 182 c0 1 0 1 1 1 a1 1 0 0 0 0 -1 c0 0 -1 0 -1 1 m-76 2 c0 1 0 1 1 1 s1 0 1 -1 0 -1 -1 -1 -1 0 -1 1 m-36 4 c-1 3 1 8 3 8 1 0 1 -2 0 -4 0 -2 -1 -4 -1 -5 0 -2 -2 -1 -2 1 m258 2 c0 2 0 2 0 1 s0 -2 0 -3 0 0 0 2 M377 191 c0 1 0 1 1 1 a1 1 0 0 0 0 -1 c0 0 -1 0 -1 1 m0 19 c0 9 0 13 0 9 0 -5 0 -12 0 -17 0 -5 0 -1 0 8 M155 197 c0 0 0 1 1 1 s1 0 1 0 0 0 0 0 0 0 0 1 m105 2 c-5 2 -13 6 -13 6 0 1 11 -2 14 -4 3 -2 3 -4 -1 -2 m10 1 c-1 1 -1 2 -1 3 0 1 1 0 2 -1 1 -3 1 -3 -1 -1 m-67 0 c-1 0 -2 1 -2 2 0 2 1 2 5 2 4 0 6 0 6 -1 1 -3 -4 -5 -10 -3 m53 8 c-3 2 -5 3 -4 3 2 0 10 -3 10 -5 1 -2 1 -1 -6 2 m-59 1 c0 1 0 2 1 2 2 0 2 -2 1 -3 -1 -1 -1 -1 -1 1 m12 -1 c-2 1 -5 1 -6 1 -1 0 -2 1 -2 1 0 1 1 1 7 1 7 0 7 0 7 -3 0 -2 -1 -3 -6 -1 m210 1 c0 1 0 2 1 1 0 -1 0 -2 0 -2 0 -1 -1 0 -1 1 M248 212 c0 0 0 1 1 1 s1 0 1 0 0 0 0 0 0 0 0 1 m-52 4 c0 1 0 1 1 1 a1 1 0 0 0 0 -1 c0 0 -1 0 -1 1 m10 2 c-3 0 -5 1 -6 0 s-1 0 -2 1 c-1 1 0 1 4 1 3 0 6 -1 7 -1 s3 -1 3 0 1 0 1 -1 c0 -1 0 -1 -7 0 m38 4 c-6 1 -14 3 -16 5 -1 1 -4 2 -6 3 l-4 1 v7 c0 4 0 7 -1 8 -1 1 -3 -4 -3 -8 0 -3 0 -3 -6 -3 -5 0 -6 -1 -7 -3 -1 -1 -2 -2 -2 -2 s-2 0 -3 -1 c-1 -1 -2 0 -1 3 1 7 4 11 7 13 4 2 4 2 2 -1 -1 -2 -2 -4 -1 -5 l0 -2 2 2 c1 1 2 4 3 6 1 4 3 5 14 5 6 0 11 -1 15 -2 5 -2 7 -3 9 -6 3 -5 3 -5 2 -14 -1 -5 -1 -6 -3 -6 m-34 1 c-2 0 -5 1 -7 1 -5 0 -4 2 1 2 4 0 10 -2 10 -3 0 0 0 -1 0 -1 s-2 0 -3 1 m209 6 c0 3 0 5 0 3 s0 -4 0 -6 c0 -2 0 0 0 3 m-184 2 c-2 4 -5 15 -4 16 2 2 7 -12 6 -17 l0 -3 zM208 229 c-2 1 -1 1 1 1 2 0 3 0 3 -1 0 -1 -2 -1 -4 0 m170 18 c0 8 0 11 0 7 0 -4 0 -11 0 -15 0 -4 0 0 0 8 m-129 -8 c0 0 0 1 1 1 s1 0 1 0 0 0 0 0 0 0 0 1 m169 12 v8 l3 0 c3 0 3 0 3 -8 0 -7 0 -7 -3 -8 l-3 0 zm-169 -4 c-10 9 -33 10 -48 4 -5 -2 -7 -2 -7 1 0 1 9 6 16 9 l6 2 -6 0 c-4 0 -8 -1 -11 -3 -3 -1 -5 -2 -5 -2 s-1 2 -2 4 c-1 2 -2 5 -3 6 -1 1 -1 2 -1 4 0 1 -2 6 -6 10 -5 7 -16 28 -16 30 0 1 4 1 9 1 10 0 17 2 27 9 7 4 7 4 8 2 1 -1 4 -8 8 -16 s8 -14 8 -14 c2 0 7 11 12 22 l3 7 6 1 c11 2 24 0 31 -7 l3 -3 -2 -9 c-2 -9 -11 -30 -13 -33 -1 -1 -2 -4 -2 -7 -1 -3 -2 -7 -3 -8 S257 253 257 252 c0 -1 0 -1 -3 1 -4 4 -13 8 -19 8 -7 1 -7 -1 -2 -2 6 -2 15 -6 18 -9 1 -2 2 -3 2 -5 -1 -3 -1 -3 -5 1 m157 16 c-2 2 -1 6 1 6 3 1 26 1 28 0 3 -1 3 -5 1 -6 -2 -1 -3 0 -3 3 0 3 -2 3 -2 0 0 -2 0 -2 -6 -2 -6 0 -6 0 -4 2 2 2 2 2 0 3 -1 1 -3 1 -5 0 -3 -1 -3 -1 -1 -3 1 -1 2 -2 1 -2 -1 -1 -10 -1 -11 0 M195 266 c0 2 16 10 19 10 2 0 1 -1 -4 -4 -8 -5 -15 -8 -15 -5 m50 2 C240 271 232 279 232 281 c0 2 3 2 9 -1 7 -4 11 -7 11 -9 0 -1 -2 0 -5 2 s-5 3 -6 3 c0 0 2 -3 5 -5 8 -7 7 -8 -1 -3 M417 266 c0 0 0 1 1 1 s1 0 1 0 0 0 0 0 0 0 0 1 m-18 7 c0 1 3 1 7 1 s7 0 7 -1 -3 -1 -7 -1 -7 0 -7 1 m16 0 c0 1 1 1 2 1 s2 -1 1 -1 c-1 -1 -3 -1 -3 0 m6 2 c0 2 1 2 6 3 6 1 16 0 17 -1 0 0 0 -1 0 -2 0 -1 -3 -1 -12 -1 -11 0 -11 0 -11 2 M400 275 c4 1 13 1 13 0 0 -1 -3 -1 -8 -1 -5 0 -7 0 -5 1 m16 0 c0 1 0 1 2 1 s2 0 2 -1 -1 -1 -1 -1 -1 0 -1 1 m-223 2 c1 2 14 5 19 5 6 0 5 -1 -4 -4 -7 -2 -16 -3 -15 -1 m207 1 c0 1 0 2 0 2 -1 0 -1 0 0 1 s4 1 8 1 c7 0 7 0 7 -2 0 -2 -1 -2 -7 -3 -6 0 -7 0 -6 1 m31 -1 c-9 0 -10 1 -10 2 0 1 1 2 6 2 9 1 17 0 16 -2 0 -1 -1 -2 -1 -2 s-1 -1 -1 -1 -6 0 -11 1 M415 280 c0 1 0 2 2 2 2 0 2 0 1 -1 -1 -1 -1 -1 0 -2 1 -1 1 -1 -1 -1 -1 0 -2 1 -2 2 M242 285 c-4 1 -8 3 -10 4 l-3 2 4 0 c4 0 17 -3 22 -5 7 -3 -2 -4 -13 -1 M377 284 c0 1 0 1 1 1 a1 1 0 0 0 0 -1 c0 0 -1 0 -1 1 m22 0 c0 1 1 1 2 1 2 0 2 0 0 1 -1 0 -2 1 -2 1 0 1 3 1 7 1 6 0 7 0 7 -2 0 -1 -1 -2 -2 -2 -3 -1 -11 -1 -11 0 m33 0 c-12 0 -14 2 -3 2 l7 0 -7 0 c-10 0 -8 2 2 2 11 0 14 -1 14 -3 0 -1 0 -2 -1 -2 0 0 -5 0 -11 0 M415 286 c0 1 1 2 2 2 2 0 2 0 1 -1 -1 -1 -1 -1 0 -2 1 -1 1 -1 -1 -1 -2 0 -2 1 -2 2 m-173 1 c-2 1 -2 1 0 1 1 0 3 0 4 -1 2 -1 1 -1 -3 0 m-37 3 c-2 0 -5 1 -8 2 -5 1 -5 2 -4 3 2 1 14 0 22 -3 1 0 1 -1 0 -1 -1 -1 -4 -1 -9 0 m194 2 c0 2 0 2 4 3 7 1 10 1 10 0 0 -1 -1 -1 -1 -1 -1 0 -1 0 0 -1 2 -1 1 -2 -6 -2 -6 -1 -7 -1 -7 2 m17 1 c0 1 1 2 1 3 s1 0 0 0 c0 -1 0 -2 1 -2 2 -1 1 -2 -1 -2 -1 0 -1 1 -1 2 m6 1 v3 l11 0 c11 0 11 0 11 -3 0 -2 0 -2 -11 -2 H421 zm2 0 a1 1 0 0 0 1 0 c0 0 0 -1 -1 -1 s-1 0 -1 1 M428 293 c0 0 0 1 1 1 s1 0 1 0 0 0 0 0 0 0 0 1 m-29 4 c0 1 1 1 2 1 l2 0 -2 0 c-1 0 -2 1 -2 1 0 1 3 1 7 1 7 0 7 0 7 -2 s0 -2 -7 -2 c-4 0 -7 0 -7 1 m32 0 c-9 0 -13 2 -7 3 l2 0 -2 0 c-1 0 -2 1 -2 1 0 1 4 1 11 1 l11 0 0 -3 c0 -2 0 -3 -1 -3 -1 0 -6 0 -12 1 M415 298 c0 1 1 1 1 1 s2 0 2 -1 0 -1 -1 -1 -2 0 -2 1 m-9 1 c1 0 2 0 2 0 s0 -1 -1 -1 c-1 0 -1 0 -1 1 m-29 4 c0 2 0 3 0 2 s0 -3 0 -4 0 0 0 2 m52 -3 c1 0 3 0 5 0 1 0 0 0 -2 0 s-3 0 -2 0 m-14 1 c1 0 2 0 3 0 1 0 0 -1 -1 -1 s-2 0 -1 1 M399 303 c0 1 1 2 2 2 2 0 2 0 0 1 -2 1 -2 1 1 1 2 0 5 1 7 1 3 0 4 0 4 -2 0 -2 0 -3 -4 -3 -2 0 -5 0 -7 -1 -2 0 -3 0 -3 1 m16 2 c0 2 1 3 2 3 2 0 2 -4 0 -5 -1 0 -2 0 -2 2 m6 0 c0 2 1 2 7 3 9 1 15 0 15 -3 0 -2 0 -2 -11 -2 -11 0 -11 0 -11 2 m-17 0 a1 1 0 0 0 1 0 c0 0 0 -1 -1 -1 s-1 0 -1 1 m26 1 c1 0 3 0 4 0 1 0 0 0 -2 0 s-3 0 -2 0 M399 310 c0 1 1 1 2 1 2 0 2 0 0 1 -1 0 -2 1 -2 1 0 1 13 2 14 1 0 0 0 -1 -1 -1 -1 -1 -1 -1 0 -2 1 0 1 -1 1 -2 -1 -1 -13 -1 -13 0 m33 0 c-11 0 -11 0 -11 3 0 2 0 2 10 2 6 0 11 0 11 -1 1 -1 2 -5 1 -5 0 0 -6 0 -11 1 m-17 2 c0 1 1 2 1 2 1 0 1 0 1 -1 0 -1 0 -2 1 -2 1 -1 1 -1 -1 -1 -2 0 -2 1 -2 2 m9 1 c1 0 2 0 2 0 s0 -1 -1 -1 c-1 0 -1 0 -1 1 m4 0 c1 0 2 0 3 0 s0 0 -2 0 -2 0 -1 0 m-261 3 c-2 1 -3 3 -3 11 l0 6 3 -1 c1 -1 3 -1 3 -1 1 1 -5 8 -10 14 -1 1 -2 4 -4 7 s-4 7 -5 10 c-6 10 -8 19 -11 46 -1 8 -2 17 -3 22 -2 10 -2 10 0 10 2 0 7 5 8 7 1 3 3 -1 3 -6 0 -11 8 -32 15 -43 5 -7 7 -13 8 -27 1 -5 2 -10 2 -11 s4 -5 6 -8 6 -8 7 -10 4 -7 7 -10 l5 -7 -5 -3 c-3 -2 -7 -4 -10 -5 -5 -2 -15 -3 -18 -2 m232 2 c0 2 1 2 7 2 5 0 7 0 7 -1 0 -1 -2 -2 -7 -2 -6 0 -7 0 -7 1 m17 0 c-1 2 0 5 1 5 1 0 1 0 1 -2 0 -1 0 -2 0 -2 1 0 1 0 1 -1 -1 -1 -2 -1 -3 0 m15 0 c-5 0 -9 1 -9 1 0 1 7 1 18 1 3 0 3 0 -1 1 -2 1 -7 1 -11 0 -4 0 -6 0 -6 0 0 1 16 2 19 1 2 -1 3 -2 3 -4 0 -2 0 -3 -2 -2 -1 0 -6 0 -12 1 m-28 4 c6 1 11 1 11 0 0 -1 -3 -1 -7 -1 -7 0 -7 0 -3 1 m-3 3 c0 1 2 1 4 1 l4 0 -4 0 c-7 0 -5 2 3 2 6 0 7 0 7 -2 0 -2 0 -2 -7 -2 -4 0 -7 0 -7 1 m32 0 c-9 0 -10 1 -9 2 0 3 1 3 11 3 10 0 14 -1 9 -2 -2 -1 -2 -1 0 -1 1 0 2 -1 2 -2 0 -1 -1 -1 -2 -1 -1 0 -6 0 -12 1 M268 326 c-4 2 -7 2 -14 2 -5 0 -10 0 -10 1 0 2 5 16 7 18 1 1 2 4 2 5 1 4 4 8 9 12 2 2 4 4 4 5 0 2 -1 2 -5 -1 -4 -2 -4 -2 -4 0 0 3 3 9 6 13 5 5 8 14 9 22 l1 7 h5 c3 0 6 0 6 1 1 1 1 1 2 -1 0 -1 0 -1 0 -1 s-1 0 -2 0 c-1 -1 -1 -4 -1 -21 0 -20 -1 -25 -4 -30 -1 -1 -2 -2 -3 -2 -1 0 -1 -1 -1 -4 0 -3 0 -5 -1 -5 s-1 1 -1 2 c0 3 -1 9 -1 10 -1 3 -2 1 -3 -4 -1 -7 -1 -7 0 -7 1 0 2 -1 3 -4 3 -9 5 -20 3 -20 0 0 -3 1 -5 2 M415 326 c0 1 1 2 2 2 1 0 1 0 1 -1 -1 0 -1 -1 0 -2 1 -1 1 -1 -1 -1 -1 0 -2 1 -2 2 m-38 6 c0 4 0 6 0 4 s0 -5 0 -7 c0 -2 0 0 0 4 m51 -5 c1 0 3 0 4 0 s0 0 -2 0 -3 0 -2 0 M399 331 c0 1 1 2 7 2 8 0 9 -1 3 -2 -7 -1 -10 -1 -10 1 m16 1 c0 1 1 1 2 1 s2 0 2 -1 -1 -1 -2 -1 -2 0 -2 1 m6 1 c0 1 2 1 9 2 l9 0 -9 0 c-12 0 -11 2 1 2 9 0 13 -1 13 -2 0 0 -1 -1 -2 -1 l-2 0 2 -1 c1 0 2 -1 2 -1 0 0 -5 0 -11 0 -9 0 -11 0 -11 1 m-249 4 c-1 4 0 9 3 11 3 1 6 1 7 -1 2 -2 2 -4 -1 -3 -3 1 -3 0 -5 -4 -2 -6 -3 -6 -4 -3 M401 334 c4 1 12 1 12 0 0 -1 -3 -1 -7 -1 -5 0 -7 0 -5 1 m14 1 a1 1 0 0 0 1 0 c0 0 0 -1 -1 -1 s-1 0 -1 1 M418 335 c0 0 0 1 1 1 s1 0 1 0 0 0 0 0 0 0 0 1 m-19 4 c0 2 0 2 7 2 5 0 7 0 5 -1 -2 -1 -2 -1 0 -1 1 0 2 0 2 -1 0 -1 -6 -2 -11 -2 -3 0 -3 0 -3 2 m16 0 c0 1 1 1 2 1 s2 0 2 -1 -1 -1 -2 -1 -2 0 -2 1 m6 1 c0 2 1 2 8 3 10 1 14 0 15 -3 0 -2 0 -2 -11 -2 -11 0 -11 0 -11 2 m3 0 c1 0 2 0 3 0 s0 0 -2 0 -2 0 -1 0 m-9 1 a1 1 0 0 0 1 0 c0 0 0 -1 -1 -1 s-1 0 -1 1 m19 0 a1 1 0 0 0 1 0 c0 0 0 -1 -1 -1 s-1 0 -1 1 M399 344 c0 2 1 2 6 2 4 0 7 0 7 -1 1 -2 1 -2 -7 -2 -6 0 -7 0 -7 1 m16 0 c0 1 1 2 2 1 2 0 2 -2 0 -3 -1 0 -2 0 -2 1 m6 0 c0 1 6 2 14 1 3 0 3 0 1 1 -1 1 -4 1 -9 0 -4 0 -7 0 -7 0 0 1 14 2 19 1 3 -1 4 -1 4 -3 0 -2 0 -2 -11 -2 -8 0 -11 0 -11 1 m-165 1 c-1 2 -1 8 0 9 1 1 3 -4 3 -7 0 -3 -2 -4 -3 -2 M441 347 c0 0 0 1 1 1 s1 0 1 0 0 0 0 0 0 0 0 1 m-39 1 c2 0 5 0 8 0 2 0 0 0 -4 0 s-6 0 -4 0 m13 0 c1 1 1 1 2 1 0 0 0 -1 -1 -1 -1 -1 -2 0 -1 1 m-258 4 c-1 2 -1 6 -1 8 l0 3 2 -3 c2 -4 3 -11 1 -12 -1 0 -2 2 -2 4 m12 -1 c-2 5 -1 5 3 2 3 -3 3 -5 0 -5 -1 0 -2 1 -3 4 M399 351 c0 1 3 1 6 1 3 0 6 0 7 0 s1 0 1 -1 c0 -1 -2 -1 -7 -1 -4 0 -7 0 -7 1 m16 0 c1 2 3 2 3 0 0 -1 -1 -2 -2 -2 s-1 1 -1 1 m6 0 c0 1 1 1 3 2 l3 0 -3 0 c-5 0 -3 2 4 3 9 1 18 -1 15 -3 -1 -1 -1 -1 0 -1 3 -1 0 -2 -10 -2 -8 0 -11 0 -11 1 M399 354 c0 0 3 1 7 1 6 0 8 0 7 -1 -1 -1 -14 -1 -14 -1 m17 1 c0 1 0 1 1 1 s1 0 1 -1 0 -1 -1 -1 -1 0 -1 1 m12 0 c1 0 2 0 3 0 1 0 0 -1 -1 -1 s-2 0 -1 1 M399 358 c0 1 3 1 7 1 s7 0 7 -1 -3 -1 -7 -1 -7 0 -7 1 m16 0 c0 1 1 1 2 1 2 0 2 0 1 -1 -2 -1 -3 -1 -3 0 m6 0 c-1 1 0 2 3 2 l3 0 -3 0 c-6 0 -3 2 4 3 9 1 15 -1 15 -4 0 -2 0 -2 -11 -2 -6 0 -11 0 -11 0 M400 361 c2 1 13 1 13 0 0 -1 -4 -1 -7 -1 -5 0 -6 0 -5 1 m36 0 c0 0 0 1 1 1 s1 0 1 0 0 0 0 0 0 0 0 1 m-20 1 c1 0 2 0 3 0 1 0 0 -1 -1 -1 s-2 0 -1 1 M399 365 c0 1 1 2 6 2 l6 0 -6 1 c-6 1 -6 1 -3 1 2 0 5 1 7 1 3 0 4 0 4 -2 0 -3 -2 -4 -9 -4 -4 0 -5 0 -5 1 m16 1 c1 2 3 2 3 0 0 -1 -1 -1 -2 -1 -1 0 -1 0 -1 1 m6 1 c0 1 2 1 5 2 l5 0 -5 0 c-6 0 -6 2 -1 2 2 0 5 0 8 0 s5 0 7 0 c3 -1 4 -1 4 -3 l0 -2 -11 0 c-8 0 -11 0 -11 1 m-5 3 c1 0 2 0 3 0 1 0 0 -1 -1 -1 s-2 0 -1 1 M399 371 c0 2 3 4 9 4 5 0 5 0 5 -2 0 -2 -1 -2 -7 -3 -5 0 -7 0 -7 1 m16 2 c0 2 1 3 2 3 1 0 2 0 2 -1 s0 -1 -1 -1 -1 -1 -1 -1 0 -1 0 -1 c-1 0 -1 1 -1 3 m6 0 c0 2 1 2 6 3 7 1 15 0 17 -2 2 -3 1 -3 -11 -3 -11 0 -11 0 -11 2 m-44 1 c0 2 0 2 0 1 s0 -2 0 -3 0 0 0 2 m32 -2 c1 0 2 0 2 0 s0 -1 -1 -1 c-1 0 -1 0 -1 1 M157 379 c-4 8 -6 26 -4 23 1 -1 5 -15 6 -22 1 -5 -1 -6 -3 0 M415 382 c0 3 0 3 4 3 4 0 4 0 4 -3 0 -2 -1 -3 -4 -3 -4 0 -4 0 -4 3 m2 0 a1 1 0 0 0 1 0 c0 0 0 -1 -1 -1 s-1 0 -1 1 M480 401 c0 1 1 1 1 1 s0 0 0 -1 -1 -1 -1 -1 0 0 0 1 m1 8 c0 1 0 1 0 0 1 0 1 -1 1 -1 0 -1 -1 0 -2 1 M367 411 c0 0 0 1 1 1 s1 0 1 0 0 0 0 0 0 0 0 1 m-82 5 c-1 5 -4 7 -4 2 0 -2 0 -2 -4 -2 h-4 l-1 8 c0 6 -1 9 -3 13 -2 3 -2 6 -2 7 1 2 10 3 15 2 6 -1 7 -3 7 -19 0 -13 -1 -17 -2 -11 M464 414 c0 0 0 1 1 1 s1 0 1 0 0 0 0 0 0 0 0 1 m-191 22 C270 437 272 438 276 438 c3 0 6 -1 5 -3 -1 -1 -6 -1 -8 0 M263 445 c0 0 0 1 1 1 s1 0 1 0 0 0 0 0 0 0 0 1 m-134 2 c-2 6 -4 8 -8 15 L116 468 h3 c4 0 7 2 4 3 -1 0 -4 0 -6 0 -4 -1 -5 -1 -6 1 -4 6 -3 8 5 9 7 1 14 -1 19 -6 3 -3 6 -5 9 -6 3 -1 5 -2 6 -4 1 -2 1 -13 -1 -13 0 0 -3 2 -5 4 q-4 4 -5 3 c-1 -1 2 -7 4 -8 1 0 1 -1 0 -1 -1 0 -3 -2 -4 -3 -3 -2 -8 -2 -9 0 M265 447 c0 1 1 1 1 1 s0 0 0 -1 -1 -1 -1 -1 0 0 0 1 M144 474 c0 0 0 1 1 1 s1 0 1 0 0 0 0 0 0 0 0 1 m-30 12 c0 0 0 1 1 1 s1 0 1 0 0 0 0 0 0 0 0 1"/></svg>
