<svg xmlns="http://www.w3.org/2000/svg" width="512" height="512" viewBox="0 0 512 512"><path fill="#eef1f6" fill-rule="evenodd" d="M403 178 c-2 1 -5 3 -9 6 s-9 6 -13 9 c-6 4 -9 4 -16 5 -11 1 -17 4 -27 14 l-8 8 -11 3 c-6 2 -15 3 -20 4 s-10 1 -12 2 c-3 1 -4 1 -5 0 -1 -1 -4 -2 -10 -2 -14 0 -21 3 -34 16 l-6 6 -13 0 c-7 0 -15 0 -18 0 s-9 0 -14 0 L179 248 v-5 c0 -7 -4 -18 -9 -23 -2 -3 -4 -3 -7 -3 -3 0 -5 1 -9 7 -1 1 -3 4 -5 6 -3 4 -3 5 -3 11 0 5 -1 8 -3 13 -4 8 -4 13 -1 18 4 5 1 6 -7 1 -12 -8 -17 -8 -27 -2 -4 2 -6 5 -9 11 -8 14 -8 20 -2 29 5 7 21 17 30 19 8 2 12 0 16 -7 2 -3 5 -7 9 -10 l6 -4 3 2 c4 3 9 5 13 5 2 0 4 1 6 3 4 4 6 5 16 6 18 2 26 2 28 0 1 -1 2 -1 3 0 1 1 1 2 0 8 l-1 5 -7 2 c-4 1 -8 3 -10 4 -3 2 -8 9 -8 10 0 0 -2 4 -4 8 -4 8 -4 10 2 12 7 4 15 2 25 -5 4 -2 10 -6 13 -8 8 -4 12 -9 12 -13 0 -4 5 -26 9 -39 3 -8 3 -9 7 -10 2 -1 6 -3 9 -5 3 -2 5 -3 5 -2 0 1 5 1 13 0 11 -1 13 -1 17 -3 2 -2 10 -4 16 -6 15 -4 18 -6 34 -21 3 -3 7 -6 9 -7 3 -2 10 -9 10 -11 0 -1 6 -6 13 -12 7 -6 13 -11 13 -12 0 -2 4 -6 6 -7 2 -1 2 0 5 7 2 7 2 8 1 10 a515 515 0 0 1 -5 6 l-3 4 -4 -7 c-2 -4 -4 -6 -4 -6 -1 1 2 9 4 11 11 10 33 8 38 -4 2 -4 0 -45 -2 -48 -3 -4 -6 -5 -12 -4 -5 1 -5 1 -8 -2 -2 -2 -4 -3 -4 -3 a95 95 0 0 1 -4 0 c-1 0 -3 0 -5 1 m-1 4 c-2 1 -7 5 -10 7 -9 7 -13 9 -25 11 -6 1 -12 3 -15 4 s-9 6 -13 11 c-9 9 -11 10 -21 11 -12 2 -11 1 -9 4 2 2 2 2 9 2 13 -1 17 -3 23 -10 C350 211 354 208 355 208 c2 0 -3 6 -10 13 l-6 6 h4 c4 0 9 -4 21 -16 9 -9 14 -12 23 -13 11 -2 31 -10 31 -12 0 -2 -6 -7 -8 -7 -1 0 -4 1 -7 3 m23 4 c-4 2 -14 9 -14 10 0 0 2 1 4 2 l4 1 -6 2 c-8 2 -8 2 -7 -1 1 -2 0 -3 -1 -2 -1 0 -7 2 -13 3 -11 2 -19 5 -21 8 -1 1 0 1 4 -1 l5 -2 -3 3 c-2 1 -9 7 -16 11 -14 9 -14 9 -31 13 -4 1 -4 1 2 8 l3 4 4 -2 c4 -2 12 -3 12 -2 0 1 -3 2 -7 3 s-7 2 -8 3 c0 1 0 2 1 4 2 4 5 13 5 17 v3 l4 -3 c6 -4 9 -8 13 -16 2 -3 3 -6 3 -6 0 0 0 2 0 5 -1 7 1 6 10 -6 2 -2 7 -7 11 -10 s10 -9 13 -13 c6 -7 8 -8 16 -9 l5 -1 -2 2 c-2 2 -2 3 -1 10 l2 8 -3 7 -3 7 5 1 c5 1 13 -1 16 -3 4 -2 5 -7 5 -23 0 -28 -3 -35 -12 -32 m-39 31 c-13 10 -12 13 0 3 4 -3 12 -11 10 -11 0 0 -5 4 -11 8 m-224 3 c-1 1 -4 5 -7 8 -3 5 -4 7 -5 14 -1 4 -2 11 -4 15 -3 8 -3 13 -1 10 1 -2 9 -7 11 -7 1 0 -1 2 -3 4 -4 4 -5 5 -5 9 -1 5 -3 7 -5 5 -1 -1 -2 -1 -2 -1 s-4 -2 -8 -4 c-8 -5 -13 -5 -19 -2 -5 3 -10 9 -13 18 -4 13 -1 19 16 30 11 6 12 7 16 6 5 0 8 -2 11 -8 2 -3 2 -5 1 -11 l-1 -8 2 3 c1 2 2 5 2 7 0 4 1 5 2 2 0 -1 2 -3 5 -4 l4 -3 4 3 c2 2 6 3 10 4 4 1 7 2 8 4 6 8 18 8 27 0 5 -4 5 -5 2 -6 -1 0 -2 -1 -1 -2 1 -1 1 -1 2 0 s2 0 3 -2 l2 -3 0 2 c0 2 0 2 4 2 2 0 4 -1 4 -1 1 -1 -1 -6 -3 -6 -1 0 -2 0 -4 0 -3 0 -3 -2 1 -3 3 -1 3 -1 3 -5 0 -2 0 -5 1 -6 1 -3 0 -4 -2 -3 -2 2 -8 4 -10 4 -2 0 -2 -1 -2 -6 0 -5 0 -5 1 -4 1 1 2 3 2 5 0 2 1 3 2 3 1 0 4 -2 7 -5 3 -3 6 -5 6 -5 s0 1 -1 3 c-2 4 -2 4 0 4 1 0 1 1 1 2 -2 5 -2 16 1 24 2 10 3 22 1 28 -1 4 -1 4 1 6 2 2 6 7 5 8 0 0 -3 -2 -6 -4 -3 -3 -6 -4 -7 -4 -1 0 -4 1 -7 2 -6 2 -11 5 -13 11 -1 2 -4 7 -5 9 S194 369 194 370 c0 2 1 2 9 2 9 0 15 -3 24 -9 2 -2 7 -4 9 -6 3 -1 5 -3 6 -4 s3 -8 4 -15 4 -18 6 -24 c3 -8 3 -12 3 -18 0 -10 -3 -23 -6 -28 -2 -4 -2 -4 -7 -4 -7 0 -28 7 -34 11 -3 2 -6 3 -6 3 -1 -1 7 -7 12 -9 3 -1 8 -3 12 -4 4 -1 9 -2 11 -3 s6 -1 8 -1 c3 0 4 1 6 4 1 2 3 6 4 9 1 3 2 5 2 5 s2 -1 4 -2 c6 -3 7 -2 1 2 l-5 3 1 9 c0 5 1 9 1 9 1 1 15 -10 16 -12 1 -1 1 -6 1 -10 0 -6 0 -8 -3 -11 -5 -7 -8 -9 -15 -12 -4 -1 -7 -3 -8 -4 -1 -2 -1 -2 4 0 8 3 15 7 20 11 l4 4 0 11 c0 6 -1 11 -1 12 -1 2 0 2 10 1 10 0 12 -1 17 -3 4 -2 11 -4 17 -6 9 -2 12 -4 14 -6 l3 -3 -2 -8 c-4 -13 -7 -18 -13 -23 -5 -5 -6 -5 -9 -4 -8 2 -10 2 -14 1 -11 -4 -13 -4 -20 -2 -7 1 -7 1 -5 0 1 -1 2 -2 2 -2 0 -1 -14 -1 -19 1 -6 2 -14 7 -16 11 l-2 3 2 0 c1 0 3 0 4 1 2 1 1 2 -7 2 -3 0 -7 1 -10 2 -3 1 -5 1 -8 0 -2 -1 -7 -1 -10 0 -4 0 -9 1 -13 1 s-7 1 -8 2 c-4 3 -8 4 -14 5 -4 1 -9 2 -11 4 -6 3 -7 3 -4 0 3 -4 8 -6 15 -7 3 0 9 -2 12 -3 l6 -2 -8 0 -8 0 0 -7 0 -7 -3 8 c-2 5 -4 8 -4 9 -6 2 -8 2 -9 0 -1 -1 -1 -2 2 -2 4 0 5 0 10 -10 l4 -8 -3 -6 c-2 -3 -4 -7 -5 -8 -2 -2 -2 -2 -5 0 m222 6 c-2 2 -5 4 -6 5 -2 3 6 -2 9 -5 3 -4 2 -4 -3 0 m-23 3 c-6 3 -9 5 -6 5 1 0 9 -4 12 -5 3 -3 1 -3 -5 0 M300 230 c2 1 5 2 7 2 3 0 3 0 -1 -2 -2 -1 -6 -2 -7 -2 -2 0 -2 0 2 2 m-2 20 c-1 3 -2 9 0 10 0 0 1 -1 2 -3 2 -6 1 -13 -2 -7 m-51 1 c-1 0 -5 2 -9 3 s-8 3 -9 3 c-2 0 -2 0 0 1 3 1 19 -3 21 -6 2 -2 2 -2 -2 -1 m102 3 c-3 2 -5 4 -4 4 1 0 8 -4 9 -5 1 -2 -2 -1 -5 1 M187 258 c-11 4 -17 8 -24 15 -4 4 -8 8 -11 9 -5 3 -5 4 1 2 4 -1 4 -1 5 0 1 1 1 1 4 -4 5 -8 9 -12 20 -17 9 -4 11 -5 19 -5 11 0 12 1 7 5 -3 2 -4 3 -3 4 s2 0 5 -2 c4 -3 11 -7 14 -7 1 0 1 0 1 -1 0 -1 -4 -2 -9 -1 -3 1 -5 1 -7 0 -3 -2 -16 -1 -23 1 m5 11 c-1 2 -1 3 2 2 3 0 4 -4 1 -4 -1 0 -2 1 -3 2 m48 3 c2 3 2 3 1 5 -2 3 -2 4 0 4 1 0 5 -5 5 -7 0 -1 -6 -5 -7 -5 0 0 0 1 2 3 m-56 1 c-4 4 -4 6 -1 3 2 -2 5 -6 4 -6 0 0 -2 1 -4 3 M189 276 c0 1 0 1 1 1 s3 1 5 2 c4 2 6 1 3 -2 -3 -2 -8 -3 -9 -1 m-10 9 c0 6 0 6 3 7 2 1 3 1 4 1 s-1 -3 -3 -7 l-4 -7 zm-47 6 c-1 1 -2 2 -2 3 1 1 8 -1 10 -3 2 -1 2 -1 -2 -2 -3 0 -5 1 -6 2 m22 0 c-1 1 -1 1 1 2 1 0 5 3 8 6 7 6 9 7 15 7 l4 0 -7 -3 c-5 -2 -9 -5 -12 -8 -4 -4 -6 -5 -9 -4 m34 8 c-2 1 -3 4 -4 5 a449 449 0 0 1 -1 5 c0 2 0 2 2 0 2 -3 7 -12 7 -12 0 0 -2 1 -3 2 m33 12 c-3 1 -7 5 -10 7 l-6 5 7 0 c4 0 9 0 12 -1 5 -1 5 -1 5 -4 0 -4 -1 -6 -3 -6 -2 0 -2 -1 0 -3 2 -2 0 -1 -5 1"/></svg>
