<svg xmlns="http://www.w3.org/2000/svg" width="512" height="512" viewBox="0 0 512 512"><path fill="#eef1f6" fill-rule="evenodd" d="M217 28 c-5 2 -12 10 -15 16 l-3 5 -3 -5 c-5 -10 -13 -12 -24 -6 -11 5 -19 16 -21 28 -1 7 0 13 5 17 4 4 8 4 15 2 5 -2 7 -1 7 1 0 1 0 2 1 3 1 1 1 -3 0 -13 l-1 -14 6 -2 6 -2 2 2 c1 1 3 2 3 2 2 0 1 1 -3 5 -7 7 -12 21 -11 29 C182 106 188 113 196 113 c3 0 3 1 4 4 1 2 1 10 2 18 0 13 1 15 3 19 4 6 8 24 7 31 0 3 -1 6 -1 7 0 1 1 3 5 5 3 2 8 4 10 5 4 1 4 1 4 0 0 -2 -5 -5 -10 -7 -2 -1 -4 -1 -5 -2 -1 -1 1 -10 3 -11 1 -1 3 -1 6 -1 5 0 6 -1 8 -6 3 -11 4 -14 2 -18 -4 -7 -15 -15 -23 -15 -2 0 -3 -2 -3 -6 0 -3 -2 -16 -3 -20 0 -2 0 -2 4 -4 6 -3 14 -12 17 -18 1 -3 3 -5 3 -5 0 0 1 1 2 3 2 3 7 6 11 6 2 0 2 0 0 1 -2 1 -2 2 -1 14 1 10 2 14 4 19 2 5 3 6 1 12 -1 5 -1 8 0 13 l1 7 -7 7 c-4 4 -7 7 -8 7 -2 0 -1 2 1 3 2 1 3 1 8 -5 5 -6 7 -8 8 -5 1 1 4 2 4 1 0 0 -1 -3 -2 -6 s-2 -10 -3 -14 c-1 -8 -1 -9 2 -15 1 -3 3 -7 2 -8 0 -2 0 -2 -2 1 -1 2 -2 3 -3 3 s-2 -3 -3 -7 c-2 -6 -2 -9 -2 -18 l0 -11 4 -1 c2 -1 5 -2 7 -3 S256 89 256 89 c0 0 2 3 4 7 4 9 5 18 4 28 -1 6 -1 8 1 11 2 4 5 13 7 22 1 3 2 6 3 6 2 0 1 -9 -3 -18 -3 -9 -4 -12 -4 -24 -1 -14 -3 -24 -7 -31 l-2 -3 3 -5 c6 -10 8 -20 4 -27 -4 -8 -12 -10 -21 -5 l-5 2 -3 -2 c-3 -3 -7 -3 -14 1 -4 2 -4 3 -4 6 0 5 2 5 4 1 3 -4 10 -7 12 -4 2 1 1 2 -2 7 -2 3 -4 7 -5 8 -1 5 -1 5 -4 0 -4 -9 -12 -11 -22 -6 -3 1 -5 2 -5 2 0 -1 1 -1 2 -2 1 -1 3 -3 4 -7 2 -8 6 -13 11 -18 6 -5 14 -8 18 -6 3 1 6 7 5 12 0 3 0 3 1 4 3 2 3 1 3 -4 0 -6 -3 -12 -6 -14 -3 -2 -14 -1 -18 1 m-43 14 c-12 6 -21 22 -19 34 1 5 4 8 8 8 3 0 11 -4 11 -5 0 0 -1 -3 -1 -7 l-1 -6 3 -3 c2 -1 6 -4 10 -5 8 -3 10 -5 8 -11 -3 -8 -9 -10 -19 -5 m75 9 c-9 3 -14 9 -18 20 -1 3 -3 6 -4 8 -1 2 -1 3 2 7 2 3 4 6 6 7 3 2 4 2 8 0 9 -4 16 -12 19 -25 2 -7 1 -10 -2 -14 -3 -3 -6 -4 -11 -2 m-42 13 c-10 4 -17 12 -21 24 -3 10 -2 16 5 20 7 5 21 -3 27 -15 3 -7 6 -18 5 -21 -1 -3 -7 -10 -9 -10 -1 0 -4 1 -7 2 m-30 44 c-1 5 -1 14 -2 19 -1 9 0 12 2 18 3 8 3 10 2 20 -1 6 0 8 2 15 1 5 3 12 3 17 0 5 1 10 2 12 1 4 6 8 9 10 2 1 3 2 3 4 0 2 5 10 9 13 2 1 2 2 1 4 -1 2 0 20 3 58 l1 16 -9 5 A7165 7165 0 0 0 182 327 l-11 6 0 7 c0 5 0 8 1 10 2 3 10 8 12 8 2 0 25 -14 30 -18 5 -4 5 -5 2 -4 -2 1 -9 5 -17 9 C192 350 184 354 183 354 c-3 0 -8 -5 -9 -9 -2 -8 -2 -8 10 -14 6 -3 15 -8 20 -11 l9 -5 0 -6 c0 -3 -1 -15 -2 -25 -2 -16 -4 -46 -4 -46 0 0 16 5 23 7 7 2 10 5 18 15 6 8 7 9 7 6 0 -3 -1 -6 -9 -14 -8 -8 -12 -11 -21 -12 -10 -2 -15 -5 -26 -17 -10 -11 -14 -17 -15 -25 l-1 -5 4 3 c2 2 4 3 4 2 s-1 -2 -3 -4 c-2 -2 -5 -9 -7 -15 l-4 -11 2 -9 2 -9 -3 -6 c-3 -6 -3 -6 -2 -19 1 -21 1 -23 0 -25 -1 -1 -1 0 -2 7 M206 146 c0 1 1 5 2 8 s3 8 4 11 c2 10 4 12 11 12 h4 l1 -8 c0 -4 1 -9 1 -10 0 -4 -5 -9 -12 -13 -8 -4 -10 -4 -10 -1 m66 18 c0 1 0 4 -1 7 -1 5 -1 7 1 8 3 4 1 4 -3 -1 -2 -3 -5 -5 -5 -4 0 0 0 3 1 5 1 4 3 5 8 8 5 3 6 4 4 5 -1 1 -4 1 -6 0 l-4 -1 2 2 c2 2 3 2 7 2 l5 -1 2 5 c1 3 3 7 4 9 1 3 3 6 8 11 4 4 7 7 7 6 1 -1 -2 -6 -6 -10 -4 -4 -6 -8 -7 -11 0 -4 -5 -13 -11 -18 l-6 -6 1 -8 c0 -6 0 -9 -1 -10 -1 -1 -1 -1 -1 -1 M252 186 c-8 4 -16 11 -15 12 0 0 4 -2 8 -5 4 -3 10 -6 13 -7 4 -1 5 -2 5 -3 -1 -2 -2 -2 -11 3 m-50 0 c-2 6 0 23 2 23 1 0 1 -18 0 -23 l-1 -3 zm58 9 c0 1 3 3 6 4 4 3 6 4 7 7 1 5 9 18 10 18 0 0 1 -1 0 -3 -1 -3 -8 -20 -9 -22 -1 -1 -11 -6 -13 -6 -1 0 -1 0 0 1 m-7 5 c-2 2 -5 10 -5 13 0 2 1 3 3 4 3 1 4 1 3 -1 -2 -2 -1 -6 0 -11 2 -5 1 -7 0 -4 m-19 4 c-3 3 -5 12 -3 12 1 0 5 -13 5 -14 0 0 -1 0 -2 1 m-13 14 c4 4 8 9 10 11 l3 4 v-3 c0 -7 -1 -9 -9 -14 -5 -3 -9 -5 -9 -5 s2 3 6 7 m35 4 c2 3 5 4 6 2 1 -1 -1 -2 -6 -4 l-3 -1 zm31 8 c1 2 3 4 3 4 s-3 3 -6 5 c-8 5 -15 13 -20 22 -3 6 -3 7 -2 9 3 6 7 17 6 22 l0 5 -9 -11 c-14 -17 -30 -34 -37 -40 -4 -3 -7 -5 -7 -5 -1 1 2 6 6 11 3 4 4 6 4 6 -1 0 -1 1 -1 3 0 1 1 7 2 13 1 6 2 11 2 11 s1 -1 2 -2 c1 -1 1 -3 0 -9 -1 -4 -2 -9 -2 -12 v-4 l7 6 c4 3 10 10 14 15 s11 13 14 17 c4 4 8 9 9 11 4 7 10 12 7 6 -3 -6 -6 -17 -6 -24 0 -6 -1 -8 -3 -14 -2 -4 -3 -8 -3 -9 0 -4 6 -14 12 -19 8 -7 21 -14 29 -14 3 0 8 0 11 1 5 1 5 2 6 5 0 2 1 4 2 5 s4 1 8 2 c10 2 21 5 28 8 7 3 7 3 2 8 -1 2 -2 2 -5 -1 -3 -3 -4 -3 -8 -3 -5 1 -17 7 -25 13 -8 6 -10 10 -11 19 l-1 5 -5 1 c-10 1 -19 9 -25 21 -2 5 -3 7 -2 8 1 2 1 1 2 -1 l1 -3 5 8 c3 4 6 10 8 12 l2 4 -2 5 c-3 6 -4 6 -13 -1 -4 -3 -37 -24 -41 -25 0 0 -1 1 -1 2 0 2 1 3 8 8 12 8 38 22 41 22 2 0 2 0 -1 7 -2 4 -3 7 -4 8 s-5 -2 -10 -6 c-5 -4 -14 -9 -19 -12 -16 -9 -32 -17 -34 -18 -4 -1 5 6 13 10 4 2 17 10 28 17 l20 13 0 5 c0 3 -1 11 -1 18 -1 12 -1 14 -5 24 -2 6 -4 11 -4 12 0 3 3 7 8 10 3 2 10 7 14 11 10 9 13 11 20 10 9 0 18 -5 20 -11 l1 -2 -3 3 c-5 4 -9 6 -15 6 -7 0 -12 -1 -15 -4 -3 -2 -3 -3 -3 -9 0 -8 -3 -24 -6 -26 -1 -1 -1 -1 -1 4 0 3 2 9 3 13 s2 8 1 8 c-1 1 -9 -3 -15 -6 -7 -4 -7 -5 -3 -18 5 -14 6 -19 7 -33 1 -11 2 -14 4 -21 3 -9 6 -13 10 -17 l3 -3 -4 -7 c-2 -4 -5 -9 -7 -11 -5 -6 -8 -11 -8 -13 0 -5 11 -16 19 -17 8 -2 15 6 17 18 0 4 2 10 4 13 4 9 4 12 -1 20 -2 4 -6 11 -8 16 s-5 14 -8 20 c-6 14 -7 18 -2 31 6 17 13 25 26 29 2 1 2 1 1 -1 -1 -1 -4 -3 -6 -5 -7 -4 -8 -6 -11 -13 -2 -5 -2 -7 -1 -7 1 -1 4 -3 7 -6 7 -6 26 -19 41 -29 16 -10 17 -12 18 -21 l1 -7 -6 -2 c-4 -1 -8 -2 -10 -2 -2 0 -4 0 -5 -1 -1 -1 0 -2 4 -6 6 -5 13 -17 14 -26 1 -5 1 -7 11 -18 l3 -3 5 2 c4 1 5 2 6 1 1 -1 1 -2 -4 -4 -4 -2 -8 -3 -15 -3 -5 0 -13 -2 -16 -3 l-6 -2 0 -10 c0 -13 0 -14 4 -18 6 -6 7 -6 22 1 11 6 14 7 21 14 10 10 11 13 7 20 -4 7 -13 20 -23 33 l-8 10 4 4 c2 2 5 6 7 9 s6 6 8 8 c4 3 5 4 5 6 0 5 -1 7 -5 8 -4 1 -5 1 -10 -2 -6 -4 -12 -6 -11 -3 0 1 5 4 10 6 l10 5 4 -2 c3 -1 5 -3 6 -5 3 -7 1 -11 -6 -15 -2 -1 -5 -5 -9 -8 s-7 -7 -8 -8 c-2 -1 -2 -1 3 -6 9 -10 24 -32 27 -39 4 -8 2 -12 -10 -24 -7 -6 -11 -9 -19 -13 -6 -3 -11 -6 -11 -7 -1 -2 -2 -2 -6 -1 -4 1 -5 1 -8 -2 -3 -3 -5 -4 -12 -6 -5 -1 -13 -3 -17 -3 -9 -1 -10 -2 -10 -5 0 -3 -3 -5 -12 -8 l-7 -2 -8 3 -8 3 -2 -2 c-1 -1 -2 -3 -4 -4 -2 -1 -2 -1 1 2 m-37 -1 c1 1 5 3 8 5 s7 5 9 7 c4 6 6 6 5 1 0 -2 -1 -5 -2 -6 -2 -3 -10 -7 -17 -8 -5 -1 -5 -1 -3 1 m52 10 c-10 3 -23 13 -26 20 -2 5 -2 6 0 4 2 -1 2 -1 1 5 l-1 6 2 -2 c1 -2 2 -4 2 -8 0 -5 0 -6 4 -11 5 -6 11 -10 19 -13 3 -1 6 -2 6 -3 0 -1 -5 0 -8 1 m5 6 c-5 2 -12 9 -11 10 0 0 3 -1 6 -4 s8 -5 10 -7 c6 -3 2 -3 -5 0 m3 8 c-7 3 -13 7 -16 11 -3 4 -2 4 4 0 3 -2 9 -5 12 -6 s7 -4 8 -5 c2 -3 0 -3 -8 1 m36 11 c-8 2 -22 11 -25 15 -1 2 -3 6 -4 10 l-2 6 3 3 c2 2 2 3 2 5 -1 2 -1 3 2 7 2 3 3 5 3 5 1 1 28 -20 29 -22 2 -4 3 -23 2 -26 -2 -4 -4 -5 -10 -3 m-3 7 c-10 3 -16 9 -19 20 -1 5 -2 8 -2 9 s2 -3 5 -8 c5 -9 8 -13 16 -17 7 -4 7 -6 0 -4 m33 14 c1 3 6 6 6 6 1 -1 -3 -5 -5 -7 l-2 -2 zm16 2 c1 2 4 5 6 7 4 3 4 4 9 3 5 0 5 -1 6 -3 0 -2 0 -2 -5 -2 -5 1 -5 0 -11 -4 -3 -3 -6 -5 -7 -5 s0 2 2 3 m-164 1 c-1 1 -1 3 0 10 1 9 1 9 4 9 6 0 20 -11 17 -13 -1 -1 -9 4 -14 8 -3 2 -4 2 -4 0 0 -1 -1 -5 -1 -9 -1 -6 -1 -6 -3 -5 M355 299 c-2 2 -9 7 -15 11 s-12 8 -12 9 c-1 2 2 13 4 19 2 4 2 5 0 11 l-2 6 4 6 c6 10 7 10 14 6 3 -2 8 -4 10 -6 l3 -2 h-3 c-5 0 -3 -6 4 -13 6 -6 10 -13 11 -22 1 -8 3 -10 8 -16 5 -5 5 -6 -2 -6 -3 0 -8 -1 -20 -5 -1 0 -3 0 -5 3 m-104 14 c-5 3 -10 6 -11 7 l-3 3 3 0 c5 0 21 -11 21 -15 0 -1 -2 0 -10 4 M388 324 c-5 5 -6 8 -1 5 2 -2 7 -8 6 -9 0 0 -3 2 -5 5 m-71 12 c-1 1 -2 4 -3 5 -2 4 1 3 3 -2 2 -5 2 -7 -1 -3 m7 26 -2 7 5 6 c5 6 6 9 4 10 -1 0 -3 -3 -6 -7 l-5 -7 -2 6 -2 6 4 3 4 3 -7 7 c-4 4 -7 8 -8 9 -1 2 2 14 3 14 0 0 3 -2 6 -5 3 -3 18 -13 33 -23 29 -20 28 -18 26 -26 0 -3 -1 -3 -5 -4 l-4 -1 -11 6 -11 6 4 4 c2 2 4 4 3 4 s-3 -1 -7 -3 c-5 -3 -7 -5 -12 -12 -3 -5 -6 -9 -7 -9 0 0 -2 3 -3 6 m-12 27 c0 0 -1 2 -1 3 0 2 0 2 2 1 2 -1 3 -5 1 -5 -1 0 -2 0 -2 1"/></svg>
