<svg xmlns="http://www.w3.org/2000/svg" width="512" height="512" viewBox="0 0 512 512"><path fill="#eef1f6" fill-rule="evenodd" d="M177 197 c-10 3 -19 11 -20 16 -2 8 0 17 5 28 3 6 5 12 5 13 1 3 6 6 9 6 1 0 5 -1 10 -2 11 -3 11 -3 12 3 0 6 4 12 13 23 4 6 5 7 8 19 3 11 3 16 4 31 0 10 1 21 1 25 0 5 0 8 -1 12 l-2 6 -4 -1 c-2 -1 -5 -1 -5 -2 0 0 0 -3 1 -5 2 -6 1 -19 -1 -26 -4 -8 -17 -17 -26 -17 -10 0 -20 6 -27 16 -5 7 -4 7 -18 0 -11 -5 -11 -5 -13 2 l-1 4 11 4 c6 2 11 5 11 5 s0 3 -1 7 c-4 14 -1 29 6 36 4 4 15 8 23 8 10 0 22 -9 27 -19 l3 -5 6 2 c4 2 6 3 5 4 0 1 1 3 5 5 10 7 19 10 24 7 3 -1 3 -1 8 0 3 1 5 2 5 2 s0 2 -1 3 c0 2 0 4 0 5 1 2 -1 3 -8 11 -5 5 -11 11 -14 13 -7 5 -11 10 -11 13 0 3 2 8 5 10 3 2 8 2 14 0 5 -2 6 -3 5 -6 -1 -2 -1 -2 -2 0 -3 3 -9 6 -12 4 -2 -1 -8 -10 -7 -12 0 0 4 -3 9 -6 8 -5 13 -9 19 -17 3 -4 4 -4 6 -4 4 1 18 8 18 9 0 2 -20 23 -29 31 -4 4 -5 5 -5 8 0 3 1 4 4 5 5 3 11 4 19 4 5 0 8 -1 16 -4 5 -2 11 -5 14 -5 5 -1 12 -5 12 -6 0 0 0 -2 1 -3 0 -1 0 -1 -3 1 -2 1 -7 3 -11 4 s-11 3 -15 5 c-7 3 -8 3 -16 3 -7 0 -11 -1 -14 -3 -5 -2 -5 -2 -3 -4 1 -1 5 -4 9 -6 6 -3 9 -6 16 -14 5 -5 9 -11 9 -12 l1 -4 c0 -1 2 -3 4 -4 4 -2 4 -2 8 -1 2 1 6 3 8 4 4 2 4 2 3 4 -1 1 0 4 2 9 l2 7 0 -8 c0 -9 1 -10 4 -7 2 1 2 2 1 6 -2 7 -2 25 0 32 3 9 8 14 17 17 10 3 16 3 23 0 9 -5 22 -19 21 -24 0 -2 -1 -1 -4 3 -5 8 -13 15 -18 18 -5 2 -10 3 -18 1 -9 -2 -13 -5 -16 -12 -2 -5 -3 -7 -3 -16 -1 -18 6 -36 17 -47 6 -7 11 -9 19 -11 5 -1 6 -1 13 2 C380 405 383 411 383 433 c0 10 0 14 -1 14 -1 0 -6 -2 -11 -4 S361 438 360 438 c-2 0 -5 4 -6 7 0 3 0 3 5 6 3 2 14 6 24 11 10 4 19 8 20 9 s2 1 3 1 c1 0 0 -4 -1 -6 -1 -1 -1 -2 0 -3 1 -1 1 -2 1 -3 0 -1 -11 -6 -20 -10 l-3 -1 1 -7 c2 -9 1 -19 -2 -29 -3 -9 -8 -14 -18 -18 -9 -3 -14 -3 -21 1 -6 3 -15 12 -19 19 l-3 6 -6 -2 -6 -2 0 -4 c0 -2 1 -8 1 -12 s1 -13 1 -19 c0 -9 0 -12 -3 -19 -1 -5 -3 -12 -3 -17 l-1 -9 5 -5 c7 -6 21 -16 25 -17 3 -1 8 -8 13 -17 1 -2 5 -7 8 -10 7 -8 10 -13 11 -22 2 -14 -1 -22 -10 -32 -5 -5 -6 -6 -12 -8 -4 -1 -10 -2 -16 -2 -5 0 -12 -1 -15 -1 s-11 -1 -16 -1 c-8 0 -13 -1 -22 -3 -12 -3 -12 -3 -30 -2 -10 0 -18 1 -19 1 -2 1 -16 4 -20 3 -3 -1 -4 -1 -5 -5 -3 -12 -16 -20 -28 -16 m1 3 c-6 2 -12 6 -15 10 -3 4 -2 9 1 24 2 10 3 13 5 15 2 2 3 4 4 5 1 2 5 2 12 0 5 -1 18 -5 24 -6 l3 -1 -3 3 -3 3 3 2 c5 3 9 3 12 -1 2 -3 3 -3 4 3 1 9 10 20 19 23 5 2 5 2 5 6 0 3 2 7 6 16 5 11 6 12 8 10 3 -3 4 -2 4 1 -2 11 -2 18 1 29 2 8 3 15 4 23 1 10 0 12 -2 21 -2 5 -3 11 -3 12 s-1 4 -2 6 c-2 6 -1 8 7 12 9 4 11 5 14 3 2 -1 2 -2 -2 -5 -2 -2 -4 -4 -4 -4 s1 -2 3 -4 c2 -3 3 -5 3 -14 0 -7 1 -14 2 -21 3 -15 4 -33 2 -41 -1 -4 -2 -10 -2 -14 0 -6 -1 -8 -3 -13 -2 -3 -3 -8 -4 -11 -2 -7 -7 -15 -14 -22 L261 265 v-8 c0 -6 0 -8 1 -7 1 0 1 3 2 6 0 4 1 6 2 6 1 0 4 0 7 -2 4 -2 6 -3 9 -8 5 -7 6 -8 13 -12 4 -2 7 -3 11 -2 5 0 5 0 3 2 -1 1 -6 2 -10 3 -7 2 -7 2 -12 8 -6 8 -11 12 -15 13 l-3 1 3 4 c2 2 4 6 5 7 2 4 4 4 11 0 3 -2 7 -3 9 -4 4 -1 6 -2 14 -11 10 -10 13 -15 16 -25 1 -6 0 -9 -4 -12 -5 -3 -9 -4 -25 -5 -9 -1 -18 -2 -22 -3 -11 -3 -37 -3 -52 0 -9 2 -11 2 -16 1 -4 -1 -6 -1 -7 0 -1 1 -2 0 -2 -4 0 -13 -9 -20 -22 -16 m15 23 c0 2 3 2 3 0 0 -1 -1 -2 -2 -2 -1 0 -2 0 -1 1 m143 2 c0 1 -1 1 -3 1 -4 0 -4 0 -3 2 1 3 1 3 3 1 1 -1 1 -2 2 -2 2 0 1 5 -3 15 -4 10 -4 11 -10 17 C306 275 305 276 305 280 c0 3 0 5 1 5 6 0 28 13 33 19 l3 3 4 -9 c3 -6 6 -10 10 -14 8 -8 8 -8 10 -17 4 -14 2 -21 -7 -32 -3 -4 -5 -5 -11 -7 -10 -4 -12 -4 -11 -3 M195 233 c-2 1 -4 2 -4 2 0 0 0 2 1 3 2 3 1 3 -3 9 -4 5 -4 6 -2 5 4 -1 8 -6 10 -13 1 -4 2 -7 2 -7 s-2 1 -4 1 m13 0 c0 0 2 2 3 3 s4 4 5 5 c2 3 10 7 12 7 1 0 0 -2 -4 -4 -3 -2 -7 -6 -9 -8 -2 -3 -4 -4 -6 -4 -1 0 -2 0 -2 1 m41 6 c-1 2 -2 4 -2 4 s-1 1 -1 3 0 3 1 3 c1 0 5 -7 5 -10 0 -4 -2 -3 -3 0 m18 3 c-6 5 -6 8 0 5 3 -2 8 -8 6 -9 0 0 -3 2 -6 4 m-29 1 c-4 2 -10 11 -8 11 1 0 4 -2 7 -5 s6 -6 7 -6 1 0 1 -1 c-1 -1 -2 -1 -6 1 m-36 18 c1 7 3 11 10 16 6 4 7 8 9 18 1 6 1 7 4 7 2 0 3 2 5 5 2 3 5 6 7 8 5 4 4 5 -2 2 -4 -2 -6 -4 -10 -10 -2 -3 -2 -4 -2 -2 0 1 1 9 2 18 1 9 2 19 2 23 1 11 1 23 -2 30 -3 8 -3 11 0 15 3 4 10 8 16 9 l4 1 -2 -2 c-2 -3 -2 -8 0 -10 2 -2 5 -1 11 2 2 1 3 2 4 2 1 0 -7 -12 -10 -17 -2 -3 -3 -4 -2 -11 0 -4 1 -13 2 -19 2 -9 2 -13 1 -19 0 -5 -1 -13 -1 -18 0 -12 -2 -15 -9 -20 -3 -2 -7 -6 -9 -10 -8 -13 -10 -14 -13 -15 -2 0 -6 -1 -9 -3 S202 255 201 255 s0 2 0 6 m92 19 c-3 1 -4 2 -3 2 7 2 8 2 10 1 3 -2 3 -5 0 -5 -1 0 -4 1 -7 2 m-9 7 c-2 0 -3 1 -3 2 0 2 5 16 7 19 1 2 2 6 3 11 0 4 1 12 2 17 1 9 1 10 -1 22 -2 9 -2 16 -3 29 0 9 -1 18 -1 19 -1 3 -1 3 1 3 1 0 5 2 9 4 l8 4 1 -4 c0 -2 1 -12 1 -22 0 -15 0 -19 -2 -26 -3 -12 -5 -22 -4 -24 1 -4 9 -12 17 -17 5 -3 10 -8 12 -10 l4 -5 -4 -4 c-8 -7 -16 -12 -23 -13 -7 -2 -7 -2 -9 1 -1 1 -4 5 -5 8 -3 5 -5 7 -5 4 0 -1 1 -4 3 -7 3 -5 3 -5 1 -7 -2 -1 -3 -1 -8 -1 m-34 23 c0 1 0 3 1 5 1 2 1 7 1 15 -1 10 0 12 2 17 2 4 2 8 2 11 0 3 1 11 2 18 s2 13 2 15 c0 1 1 3 1 3 1 0 1 1 -1 1 -1 0 -4 0 -8 -2 -5 -2 -6 -2 -8 -2 -1 1 -2 1 -2 2 s4 2 9 4 l9 4 2 -5 c1 -3 2 -6 1 -8 s1 -8 2 -15 l2 -12 -3 -10 c-2 -6 -3 -14 -3 -19 -1 -8 -1 -9 -5 -15 -3 -4 -5 -6 -5 -6 M180 330 c-14 4 -26 19 -30 37 -3 12 0 25 7 31 4 4 16 7 21 6 8 -1 20 -10 24 -19 1 -3 1 -3 0 -3 -4 -1 -17 -7 -18 -9 -1 -2 0 -7 3 -8 2 -1 3 -1 10 3 6 3 8 4 10 3 2 -1 3 -2 3 -8 1 -9 0 -15 -4 -21 -3 -5 -10 -10 -12 -9 -4 1 -16 11 -20 14 -11 12 -16 33 -11 47 1 3 2 6 2 6 0 0 -1 -1 -3 -2 -7 -7 -6 -26 2 -42 5 -10 12 -17 21 -22 4 -2 7 -4 7 -4 0 -1 -9 0 -12 0 m-50 12 c0 3 3 5 11 9 5 2 9 4 9 4 s0 -1 1 -2 c0 -2 0 -3 -7 -5 a2398 2398 0 0 1 -11 -5 c-3 -1 -4 -1 -4 0 m119 10 c-1 11 0 18 3 23 3 5 4 6 3 3 0 -1 -1 -7 -2 -14 -1 -7 -2 -14 -2 -16 -1 -3 -1 -3 -2 5 M187 370 c4 3 13 8 22 10 9 3 11 3 10 2 -1 -2 -27 -14 -30 -14 l-3 0 zm168 32 c-11 7 -22 23 -26 39 -2 8 -2 26 -1 31 1 3 5 8 6 8 0 0 0 -3 -1 -6 -3 -9 -3 -26 0 -36 5 -16 13 -27 23 -33 5 -3 7 -6 3 -5 -1 0 -3 1 -5 2 m-70 8 c-1 1 0 2 5 4 3 2 11 6 17 9 l11 6 1 -3 c2 -4 1 -5 -2 -5 -2 0 -8 -2 -15 -6 -15 -7 -16 -8 -17 -6 m73 33 c-2 2 -2 2 29 16 9 4 14 6 15 5 1 -4 1 -5 -8 -8 -5 -2 -13 -6 -19 -8 -10 -5 -15 -6 -17 -4"/></svg>
