<svg xmlns="http://www.w3.org/2000/svg" width="512" height="512" viewBox="0 0 512 512"><path fill="#eef1f6" fill-rule="evenodd" d="M145 20 c-5 2 -9 6 -13 14 -4 9 -9 28 -7 32 1 3 6 6 13 10 4 2 6 4 8 8 l3 5 -6 7 c-3 4 -6 8 -7 9 -2 4 -2 10 0 19 2 8 2 8 -1 16 -2 6 -3 11 -3 16 0 6 -1 9 -3 16 -3 8 -3 11 -4 26 -1 13 -1 19 -3 23 -1 3 -2 8 -2 10 0 3 0 4 -2 4 -3 1 -9 6 -9 8 0 1 1 2 3 3 4 2 5 3 5 7 0 2 1 4 2 6 3 3 13 8 18 9 3 1 4 0 7 -3 l3 -4 8 4 L162 270 v25 c0 14 0 25 -1 26 0 0 -2 1 -4 1 -3 1 -4 1 -4 -3 -1 -5 -6 -15 -9 -18 -2 -2 -4 -3 -6 -4 -5 -2 -23 -2 -34 1 C99 299 91 300 87 300 c-15 0 -21 4 -26 16 -2 6 -3 10 -3 15 l0 7 -8 1 c-11 1 -12 2 -14 6 -2 4 -2 9 -1 13 2 6 3 6 13 4 5 -1 10 -1 11 -1 1 0 2 2 2 4 1 9 9 20 16 24 2 1 6 1 13 1 9 0 10 0 9 2 0 1 -3 7 -6 14 s-6 13 -5 13 c11 9 11 9 21 6 9 -2 14 -4 14 -6 0 -2 -1 -1 -13 2 -4 1 -8 2 -8 2 s-3 -1 -5 -3 l-4 -3 5 -10 c3 -6 5 -12 6 -14 1 -3 2 -4 7 -4 3 0 7 -1 8 -1 l3 0 -3 6 c-5 9 -8 16 -7 18 1 1 6 1 11 -1 4 -2 3 -3 -2 -2 l-5 0 3 -3 c2 -2 5 -3 15 -6 a8662 8662 0 0 0 24 -6 c20 -5 20 -5 14 10 -2 6 -5 15 -7 21 -2 6 -6 18 -10 29 s-8 21 -9 25 l-2 7 5 5 c4 4 5 5 9 4 3 0 6 -1 7 -2 s4 -2 6 -2 c2 0 10 -3 18 -6 s26 -8 41 -12 c14 -4 31 -9 38 -11 7 -2 13 -4 13 -4 s3 -1 6 -2 c5 -2 6 -2 5 -5 -1 -5 -9 -41 -9 -43 -1 -2 0 -3 3 -4 4 -3 4 -2 60 -16 l45 -11 4 2 c2 1 8 4 12 7 s12 7 18 10 c5 3 11 6 13 7 l3 3 9 -3 c5 -1 9 -3 10 -4 1 -2 1 -14 -1 -17 -2 -5 -4 -6 -14 -10 -11 -5 -17 -8 -18 -12 -1 -2 -1 -14 0 -32 1 -16 1 -29 1 -30 s-2 0 -4 1 c-7 2 -10 1 -12 -5 -2 -5 -2 -5 1 -11 3 -7 3 -9 -1 -4 -2 3 -4 7 -4 12 0 2 0 3 -2 2 -2 0 -2 -1 -2 -6 0 -10 6 -15 15 -13 7 1 9 4 10 12 1 8 2 6 2 -2 0 -11 1 -10 -19 -15 -13 -3 -18 -3 -22 -1 -3 1 -9 7 -11 11 -1 2 -35 8 -79 14 -19 3 -31 6 -27 7 1 0 5 0 8 -1 3 -1 9 -2 13 -2 11 -1 53 -7 69 -10 21 -4 29 -6 34 -9 4 -2 4 -3 3 -4 -2 -2 -2 -2 -7 2 -3 2 -6 3 -6 3 0 0 1 -2 3 -4 4 -4 10 -5 13 -4 1 1 3 1 4 1 1 0 1 0 0 2 -3 3 -4 8 -4 14 0 5 0 5 -2 5 -1 0 -9 2 -18 4 s-26 5 -39 7 c-50 9 -65 12 -74 16 -2 1 -2 0 -1 -2 0 -1 1 -7 2 -12 1 -11 0 -23 -4 -36 -2 -6 -3 -11 -3 -17 0 -7 0 -8 4 -15 2 -4 6 -12 9 -17 12 -20 17 -33 20 -46 1 -4 2 -11 4 -16 l2 -9 -2 -5 c-4 -9 -12 -15 -23 -21 -10 -5 -10 -5 -18 -14 -4 -5 -9 -10 -10 -11 s-6 -3 -11 -5 -10 -4 -11 -5 c-1 -1 -5 -3 -9 -5 -4 -2 -8 -5 -10 -7 -2 -2 -6 -5 -10 -6 -7 -3 -7 -3 -9 -8 -2 -6 -3 -7 -1 -13 2 -6 2 -17 0 -22 -2 -5 -6 -8 -14 -12 -8 -4 -20 -5 -26 -2 m2 3 c-7 3 -12 11 -17 28 -4 12 -4 14 5 18 8 4 10 6 14 11 2 3 5 7 8 10 7 7 6 10 -2 4 -4 -3 -6 -3 -7 0 0 1 0 2 2 2 1 0 3 1 3 2 0 1 3 3 5 4 5 2 5 2 6 0 2 -3 7 -5 12 -5 3 0 4 0 4 3 0 2 0 2 2 2 2 0 2 0 2 5 0 10 4 16 14 23 7 5 8 6 6 6 -1 0 -3 1 -3 1 -1 1 3 31 4 35 1 1 2 3 3 3 3 1 3 0 -1 17 -2 9 -2 12 -1 21 1 6 1 16 2 23 l1 13 -5 14 c-3 8 -5 15 -5 15 0 2 14 8 24 9 l4 1 -2 -4 c-2 -4 -2 -4 0 -8 1 -2 3 -4 4 -5 4 -1 9 1 10 3 1 2 1 2 -3 1 -7 -1 -8 -1 -8 2 0 4 2 8 6 9 3 1 7 -3 7 -8 l0 -4 2 2 c1 1 2 4 2 6 0 3 -1 4 -4 6 l-4 2 1 8 c0 4 1 10 2 14 2 8 2 17 0 25 -1 6 -1 6 0 6 3 1 1 4 -2 5 -3 1 -15 9 -23 15 -2 2 -4 2 -6 2 -1 0 -3 -1 -3 -1 0 0 3 -2 7 -4 8 -4 14 -8 13 -10 0 -1 -4 -3 -7 -4 s-8 -4 -9 -5 c-2 -2 -3 -2 -10 -1 -4 1 -15 3 -25 5 l-17 4 -1 6 c0 3 -1 6 -1 8 0 2 0 2 3 3 3 1 3 1 5 -2 1 -2 2 -3 3 -3 5 -2 49 -7 50 -6 1 1 -2 4 -8 5 -3 1 -14 2 -24 3 s-18 1 -19 2 0 2 0 3 l1 2 12 -1 c6 0 13 -1 14 -1 3 -1 3 0 1 3 -1 2 -3 2 -14 3 -7 0 -12 1 -13 1 0 0 -1 2 -1 4 l-1 4 11 8 c6 4 12 10 14 12 l3 4 9 0 c5 0 21 -1 35 -1 14 -1 29 -1 33 -1 8 0 11 -2 12 -6 1 -2 0 -3 -6 -8 -9 -8 -9 -8 -13 -6 -2 1 -6 2 -13 2 -6 0 -10 0 -10 0 s1 -1 2 -2 c1 -1 4 -2 10 -2 7 0 9 -1 10 -3 3 -3 3 -11 -1 -21 -4 -12 -4 -19 0 -39 4 -17 4 -22 1 -34 -9 -29 -9 -32 2 -50 3 -5 5 -10 5 -11 0 -2 -1 -3 -8 -8 -8 -6 -20 -11 -25 -12 -2 0 -2 0 -2 6 0 4 -1 9 -3 16 -2 6 -4 15 -4 20 -1 9 -1 9 1 17 2 7 3 10 1 9 -2 -1 -6 -12 -7 -17 0 -5 2 -20 5 -31 1 -4 2 -12 2 -19 0 -10 0 -13 -1 -17 -2 -5 -2 -6 -1 -14 1 -9 1 -17 -2 -35 -1 -8 -2 -16 -1 -25 1 -15 1 -14 -9 -18 -3 -1 -8 -4 -11 -7 -3 -3 -8 -6 -12 -8 -6 -3 -7 -3 -10 -9 l-3 -6 3 -8 c2 -7 2 -8 1 -13 -2 -8 -5 -12 -14 -17 -9 -5 -16 -6 -22 -3 m45 75 c-2 2 -2 3 0 2 4 -1 10 -2 14 -1 4 1 4 1 4 -1 0 -2 -4 -3 -10 -3 -4 0 -5 0 -7 3 m-52 3 c-4 6 -5 11 -2 19 3 8 3 13 0 18 -1 2 -2 8 -2 15 -1 10 -1 13 -4 20 -3 8 -3 9 -4 25 0 10 -1 20 -2 23 -1 3 -2 8 -2 11 s-1 8 -2 13 l-2 8 4 4 c4 4 11 7 16 6 l3 0 -3 -4 c-4 -6 -2 -11 6 -11 1 0 2 0 2 -1 0 -1 -6 -9 -8 -11 -2 -1 -2 -2 -1 -7 1 -3 3 -9 5 -14 6 -13 7 -18 8 -34 0 -8 2 -17 3 -22 3 -11 3 -12 0 -18 -3 -6 -7 -19 -7 -23 0 -1 1 -4 2 -5 l2 -2 0 5 c0 5 4 20 7 24 3 5 11 7 13 3 0 -1 -1 -4 -2 -6 -2 -3 -2 -5 -2 -7 1 -2 1 -2 2 0 1 1 3 4 5 7 4 6 7 7 14 8 l6 0 0 -5 c0 -4 0 -5 -2 -6 -6 -3 -14 -18 -14 -25 0 -7 -2 -9 -9 -7 -1 0 -3 2 -3 3 -1 3 -6 4 -10 0 -1 -1 -3 -2 -4 -2 -1 0 -3 -1 -4 -3 -1 -2 -3 -3 -3 -3 s-2 2 -4 4 m87 8 0 8 4 0 c3 0 4 0 4 2 0 1 -1 2 -4 3 l-4 1 1 6 c1 9 3 9 14 3 4 -2 8 -4 10 -4 2 0 2 0 0 3 -1 2 -1 3 -1 3 3 1 4 3 5 4 0 1 -2 1 -13 1 l-13 0 1 4 c3 16 3 18 2 27 -1 5 -2 9 -2 9 0 0 0 2 1 5 1 2 2 7 2 11 0 4 1 7 1 7 s3 1 5 1 c9 0 22 6 29 13 3 3 5 4 5 4 1 -1 11 -23 12 -26 2 -5 7 -33 7 -37 0 -5 -1 -8 -5 -12 -3 -4 -14 -12 -16 -12 0 0 -1 3 0 6 1 11 -6 24 -16 29 l-4 2 4 1 c5 1 9 -1 15 -5 6 -4 6 -4 5 1 0 4 0 5 1 6 2 1 6 6 4 6 -2 0 -7 -7 -7 -9 v-3 l-5 3 c-3 2 -6 3 -6 4 -2 0 3 2 8 2 3 0 4 1 4 2 0 0 -3 0 -5 0 -2 -1 -6 -1 -8 -1 -4 0 -4 0 -4 -2 0 -2 0 -2 -5 -1 -4 1 -5 1 -3 -2 1 -2 1 -2 -6 -2 -4 0 -8 0 -8 -1 s4 -2 8 -4 c13 -4 19 -10 23 -19 3 -8 2 -11 -7 -21 -15 -16 -17 -18 -25 -21 -4 -1 -7 -3 -8 -3 0 0 0 4 0 8 m-10 0 c-2 2 -3 5 -4 7 -1 4 -2 11 0 10 2 -2 9 -20 8 -20 0 0 -2 2 -3 4 M172 148 c-2 2 -1 4 4 6 6 3 17 6 18 5 0 0 -1 -11 -2 -12 0 0 -3 0 -6 1 -5 1 -6 1 -9 -1 -3 -2 -4 -2 -6 0 m-14 12 c-2 9 -3 13 -3 21 0 9 0 12 -3 20 -2 5 -4 12 -6 15 -2 3 -4 8 -4 12 l-1 6 3 4 c2 2 5 6 6 9 3 5 3 5 19 10 9 3 18 6 21 8 l5 2 3 -7 3 -7 -1 -17 c0 -9 -1 -20 -1 -23 0 -4 0 -6 -1 -6 -2 0 -8 14 -9 22 -1 4 -2 8 -3 10 -3 3 -6 10 -7 14 -1 4 -1 5 -3 3 -2 -2 -1 -5 3 -14 2 -5 5 -12 5 -16 2 -8 5 -15 10 -21 2 -3 4 -6 5 -11 l2 -8 -3 -6 c-1 -3 -3 -8 -3 -10 l-1 -4 -8 -2 c-6 -2 -11 -4 -15 -7 -12 -8 -10 -8 -13 4 m58 -6 c-1 2 -1 17 0 20 1 2 3 5 4 4 0 0 0 -4 -1 -8 -2 -11 -2 -12 2 -13 5 -2 5 -4 1 -4 -5 -1 -6 -1 -7 1 m-77 14 c0 1 3 7 5 10 1 1 1 1 1 -1 0 -2 -6 -11 -6 -9 M222 191 c0 3 -2 7 -7 14 -4 5 -4 5 -4 15 0 5 0 10 0 10 1 0 3 -6 3 -13 1 -6 1 -7 5 -12 C226 196 228 188 224 188 c-1 0 -2 1 -2 3 m34 42 L249 240 v6 c0 3 0 6 0 6 0 0 1 -3 3 -6 s4 -8 6 -10 c4 -4 7 -8 7 -10 0 -2 -2 0 -9 6 M235 228 c0 1 1 3 2 5 s2 5 2 8 c0 5 1 4 4 -1 l2 -4 -3 -3 c-3 -3 -7 -6 -7 -4 m-93 26 c-2 1 -1 2 10 7 10 5 39 16 42 16 1 0 3 -7 3 -8 0 0 -46 -15 -50 -16 -1 0 -3 0 -4 1 m98 1 c-5 2 -5 10 -1 16 3 3 3 2 2 -3 -1 -3 0 -6 1 -9 1 -2 1 -4 1 -4 s-1 0 -2 1 m-74 41 c0 30 0 29 2 32 2 3 3 3 10 1 2 -1 3 0 3 2 0 2 0 2 -1 2 -1 0 -3 0 -5 1 -2 1 -4 2 -4 2 s-2 -2 -5 -4 c-4 -4 -5 -4 -8 -3 l-3 1 1 8 c0 4 1 8 1 8 s15 -3 33 -6 36 -7 39 -7 c4 0 7 -1 7 -2 0 -2 -3 -17 -3 -17 0 0 -2 0 -3 1 s-8 2 -14 3 c-11 2 -28 5 -33 6 l-3 1 v-23 c0 -26 0 -25 -8 -27 l-4 -1 zM182 296 v21 l6 -1 c3 0 7 -1 7 -1 s2 -6 4 -13 c3 -12 3 -13 1 -14 -7 -5 -13 -10 -15 -11 L182 275 zm68 -15 c0 1 1 5 1 10 1 5 2 13 2 17 1 7 1 8 2 5 1 -2 1 -9 1 -15 0 -11 -1 -12 -3 -15 -1 -2 -3 -3 -3 -2 m-46 15 c-1 4 -1 9 -2 13 l-1 6 3 -1 c2 0 8 -1 15 -2 l12 -2 0 -6 c0 -5 -1 -13 -2 -14 0 0 -2 0 -4 1 -4 2 -10 2 -15 0 -2 -1 -4 -2 -5 -2 s-1 3 -1 6 M124 300 c-4 0 -16 1 -27 2 L77 304 l-4 3 c-2 2 -5 6 -6 9 -3 5 -5 18 -5 21 0 1 3 1 8 1 l8 0 2 7 c3 12 1 14 -11 17 -4 1 -7 2 -7 3 0 2 4 13 6 16 5 7 7 8 13 9 3 0 9 0 11 0 l5 -1 v-4 c0 -2 1 -7 2 -10 2 -5 3 -9 3 -19 1 -18 0 -28 -5 -37 -2 -4 -3 -8 -3 -8 1 -1 6 6 8 11 6 17 4 50 -4 63 -1 2 -1 2 1 3 2 0 4 1 5 1 1 0 7 0 13 -1 9 -1 11 -2 10 -3 -1 -1 0 -3 2 -9 3 -7 3 -10 4 -21 1 -17 0 -27 -5 -37 -4 -8 -4 -9 -1 -8 3 1 7 9 9 18 2 7 2 10 2 22 -1 15 -2 24 -6 29 -2 4 -2 4 -1 6 2 2 2 2 5 0 10 -5 16 -27 14 -45 -1 -8 -5 -23 -8 -27 -2 -4 -8 -9 -11 -9 -1 0 -5 0 -9 0 m280 5 c0 3 -1 18 -1 33 0 25 0 27 1 28 7 2 24 9 29 13 8 4 11 5 16 4 3 -1 3 -1 -10 -8 -7 -4 -14 -8 -15 -9 l-2 -3 0 -28 0 -28 -4 -1 c-2 0 -6 -2 -9 -4 l-5 -3 zm-11 -2 -3 1 -1 14 c0 8 -1 20 -1 27 v14 l-29 7 c-16 4 -33 8 -37 9 -10 2 -43 10 -44 10 0 0 1 2 3 4 2 2 4 5 5 7 1 2 2 4 3 4 4 0 73 -17 92 -23 l8 -2 8 4 c5 2 10 5 12 7 s9 6 16 9 c7 3 13 7 14 7 1 1 3 1 9 -1 l7 -2 0 -7 0 -7 -3 1 c-13 2 -12 2 -21 -3 -5 -3 -11 -6 -15 -7 -4 -1 -9 -4 -12 -6 l-6 -4 1 -31 c1 -35 1 -32 -6 -30 m-313 3 c0 1 2 7 5 14 l4 13 0 16 c0 15 0 17 -3 24 -1 4 -3 8 -3 9 0 3 2 1 4 -3 3 -7 5 -14 5 -29 0 -13 0 -16 -2 -23 -3 -11 -7 -20 -10 -22 -2 -1 -2 -1 -2 0 m303 17 c-1 10 -2 20 -2 22 0 2 -1 5 -1 6 -1 2 -2 2 -12 -3 -6 -3 -11 -5 -12 -5 -1 0 -6 -4 -6 -5 0 -2 9 1 19 6 l10 5 v-8 l-10 -3 c-6 -2 -13 -3 -15 -4 l-5 -1 v7 c0 4 1 8 1 9 1 1 4 2 7 3 s8 3 9 4 c4 2 4 2 15 0 l5 -1 0 -20 c0 -11 0 -22 1 -25 0 -3 0 -5 0 -5 s-2 8 -3 18 M110 307 c0 0 2 4 3 7 5 10 6 16 5 34 0 14 -1 16 -4 23 -4 9 -4 11 0 7 8 -9 11 -42 5 -59 -2 -7 -7 -13 -9 -13 -1 0 -1 0 -1 1 m245 4 c-11 2 -25 5 -31 5 s-20 4 -31 6 -21 5 -24 5 c-3 0 -5 1 -5 2 0 1 -1 6 -1 11 0 8 0 10 2 17 2 5 3 10 3 16 l1 9 7 -1 c4 0 12 -2 19 -4 s14 -3 17 -3 c9 -1 46 -11 49 -12 l3 -2 -9 -3 c-5 -1 -9 -3 -10 -4 -1 -1 -1 -5 -2 -9 l-1 -8 7 -2 7 -2 10 4 c6 2 10 4 10 4 s1 -7 1 -17 c0 -16 0 -16 -2 -16 -1 0 -11 2 -22 4 m-132 27 c-4 1 -9 2 -11 3 l-4 1 11 5 c6 3 11 5 12 5 0 0 1 -3 2 -7 s2 -7 2 -8 c1 -2 -3 -2 -12 0 M53 343 c-16 2 -17 3 -17 4 0 2 3 12 4 12 1 0 31 -4 35 -5 2 0 2 -1 1 -4 0 -2 -1 -5 -2 -6 -1 -3 -3 -3 -21 -1 m96 33 c-5 10 -8 12 -16 12 h-7 l-4 7 c-3 6 -3 7 -2 6 4 -2 25 -7 34 -8 6 -1 11 -2 11 -3 s0 -2 -2 -4 c-2 -3 -3 -4 -2 -9 1 -5 1 -5 -2 -6 a151 151 0 0 1 -5 -1 c-2 -1 -3 0 -6 6 m42 0 c-1 1 -1 2 -1 2 0 1 14 7 20 8 6 2 25 2 27 0 2 -2 -1 -2 -12 -3 -13 -1 -21 -3 -27 -8 -4 -3 -5 -3 -6 0 m-15 27 c-1 3 -5 14 -8 24 s-9 28 -14 39 l-8 19 4 3 c5 4 6 4 19 -1 16 -6 42 -14 54 -17 6 -2 21 -6 32 -9 s23 -7 26 -8 l6 -2 -2 -8 c-1 -4 -4 -14 -5 -21 -2 -8 -3 -14 -4 -14 -1 -1 -3 -1 -6 -1 h-4 l1 4 c0 2 1 9 3 15 2 9 3 12 5 14 l3 3 -4 -1 c-3 0 -4 0 -6 1 -1 1 -9 3 -16 5 s-26 7 -42 11 c-23 6 -28 8 -29 7 -2 -2 -2 -3 1 -3 2 0 8 -2 15 -4 s17 -5 22 -6 c11 -3 48 -13 49 -14 1 -1 -3 -23 -4 -27 -1 -3 -1 -4 -4 -4 -8 0 -65 3 -65 3 0 1 -5 13 -10 28 -3 8 -6 17 -7 19 -2 4 -2 5 -1 7 1 2 1 3 0 3 -2 1 -7 5 -7 6 0 0 2 0 4 -1 5 -2 5 -1 4 1 -1 2 -4 3 -9 4 -3 1 -3 0 -3 -2 0 -1 2 -7 4 -12 C173 456 190 411 190 410 c0 0 -3 -3 -6 -6 l-6 -5 zm-21 7 c-22 5 -29 7 -31 9 -1 1 -2 2 -1 2 0 0 6 -1 13 -3 s16 -4 20 -4 c4 -1 7 -2 8 -3 2 -2 2 -2 -1 -2 -1 0 -5 1 -9 1"/></svg>
